; NON-PLATED HOLES START AT T1
; THROUGH (PLATED) HOLES START AT T100
M48
INCH
T100C0.035000
T101C0.042000
T102C0.030000
T103C0.038189
T104C0.051181
T105C0.036000
T106C0.031497
T107C0.100000
T108C0.037000
T109C0.038000
T110C0.015748
T111C0.038795
T112C0.032000
T113C0.048750
T114C0.114173
%
T100
X041700Y007370
X036470Y008659
X042400Y015270
X042070Y009659
X036400Y015270
X040770Y009659
X043600Y015270
X024069Y026459
X025769Y005659
X037770Y008659
X018869Y019259
X042170Y012359
X040000Y015270
X045170Y012359
X037069Y021259
X039169Y021259
X043369Y021259
X043969Y025459
X040369Y005759
X029669Y012159
X037969Y005759
X035270Y015959
X046969Y016859
X040770Y011359
X040770Y008659
X035700Y007370
X038169Y021259
X028754Y008380
X041269Y021259
X046969Y007359
X035569Y005759
X037600Y015270
X044100Y007370
X042900Y007370
X033470Y009659
X041970Y004759
X046969Y023359
X029669Y013059
X045070Y009659
X037770Y009659
X033169Y005759
X026369Y007659
X042269Y013659
X046969Y020359
X036069Y021259
X039169Y005759
X046969Y004059
X025769Y004759
X015869Y019259
X042070Y008659
X042170Y011359
X035270Y016959
X044970Y003759
X037770Y011359
X034969Y021259
X033869Y013659
X044970Y004759
X041200Y015270
X036470Y009659
X028769Y005659
X042369Y021259
X035069Y013659
X038100Y007370
X039869Y013659
X041970Y003759
X040500Y007370
X046969Y013859
X038800Y015270
X028769Y004759
X041069Y013659
X032270Y016959
X026069Y026459
X036269Y013659
X045070Y008659
X036900Y007370
X033470Y011359
X038669Y013659
X041569Y005759
X040770Y012359
X043969Y027459
X026669Y013059
X033470Y012359
X037770Y012359
X034369Y005759
X037469Y013659
X026370Y006559
X046969Y001059
X036470Y012359
X033470Y008659
X040269Y021259
X045170Y011359
X039300Y007370
X032270Y015959
X044800Y015270
X036470Y011359
X046969Y010359
X026669Y012159
X028777Y009449
X033969Y021259
X036769Y005759
T101
X027869Y018259
X016169Y027559
X027869Y021239
X047869Y013879
X047869Y007379
X047869Y004039
X021169Y027559
X031969Y027559
X026869Y021239
X026869Y018259
X058289Y026259
X029969Y027559
X047869Y023359
X020169Y027559
X047869Y010359
X024869Y021239
X030969Y027559
X047869Y016859
X015169Y027559
X025869Y018259
X024869Y018259
X025869Y021239
X061269Y026259
X014169Y027559
X047869Y001059
X047869Y020379
X019169Y027559
T102
X043069Y023559
X027969Y027259
X045069Y023559
X027969Y025259
T103
X037169Y004559
X034169Y001559
X033169Y001559
X040169Y004559
X036169Y001559
X040169Y001559
X035169Y004559
X039169Y001559
X038169Y004559
X037169Y001559
X033169Y004559
X038169Y001559
X035169Y001559
X039169Y004559
X036169Y004559
X034169Y004559
T104
X050577Y012321
X050577Y007597
X055360Y005821
X049770Y003459
X050577Y014097
X050577Y020597
X055360Y001097
X050577Y025321
X049770Y009959
X049770Y022959
X050577Y018821
X055360Y014097
X055360Y025321
X049770Y016459
X050577Y001097
X055360Y007597
X050577Y005821
X055360Y018821
X055360Y020597
X055360Y012321
T105
X024669Y014359
X024669Y011359
X024669Y012359
X024669Y013359
X024669Y004359
X024669Y008359
X030669Y015359
X030669Y005359
X024669Y006359
X030669Y003359
X030669Y010359
X030669Y002359
X024669Y002359
X030669Y009359
X030669Y013359
X024669Y016359
X030669Y008359
X024669Y009359
X030669Y007359
X030669Y012359
X024669Y003359
X024669Y007359
X030669Y016359
X030669Y006359
X024669Y015359
X024669Y010359
X030669Y004359
X024669Y005359
X030669Y014359
X030669Y011359
T106
X047954Y005559
X046969Y024959
X047954Y018459
X046969Y018459
X046969Y005559
X046969Y011959
X047954Y024959
X047954Y011959
T107
X051396Y027559
X056970Y027559
X054670Y027559
X049096Y027559
T108
X021869Y023359
X019769Y024359
X013469Y023359
X015569Y022359
X017669Y024359
X013469Y024359
X017669Y023359
X013469Y025359
X015569Y025359
X021869Y024359
X015569Y024359
X013469Y022359
X015569Y023359
X021869Y025359
X019769Y025359
X019769Y022359
X017669Y025359
X021869Y022359
X019769Y023359
X017669Y022359
T109
X025769Y023559
X025769Y022459
X031769Y023559
X024769Y022459
X024769Y023559
X026769Y022459
X028769Y022459
X030769Y022459
X030769Y023559
X028769Y023559
X029769Y022459
X026769Y023559
X027769Y022459
X029769Y023559
X027769Y023559
X031769Y022459
T110
X013970Y009859
X019969Y007359
X027169Y003159
X029069Y001259
X018169Y001359
X021369Y003559
X014370Y001259
X010369Y012959
X015970Y004659
X028269Y001859
X012470Y000359
X016170Y009459
X020169Y020859
X011670Y004859
X019969Y001359
X016869Y004859
X015970Y020559
X001769Y009359
X015970Y008459
X018769Y004759
T111
X022253Y008358
X022253Y002365
X001969Y012361
X022253Y003359
X022253Y005356
X013259Y004362
X001969Y006368
X013259Y008358
X013259Y002365
X022253Y012364
X010963Y006368
X001969Y002362
X022253Y016360
X022253Y015356
X022253Y014362
X022253Y001361
X010963Y012361
X022253Y018358
X013259Y017354
X022253Y017354
X010963Y004370
X001969Y015363
X001969Y004370
X001969Y001368
X010963Y013365
X010963Y007361
X022253Y007365
X022253Y006360
X013259Y011360
X013259Y016360
X001969Y016367
X010963Y008366
X001969Y005364
X010963Y003366
X001969Y007361
X001969Y011368
X013259Y001361
X013259Y018358
X013259Y003359
X013259Y013358
X010963Y009370
X013259Y019362
X013259Y010356
X022253Y011360
X013259Y009362
X022253Y010356
X022253Y019362
X001969Y003366
X022253Y013358
X010963Y010363
X013259Y012364
X010963Y014359
X010963Y005364
X013259Y005356
X001969Y014359
X010963Y016367
X022253Y004362
X010963Y015363
X010963Y001368
X013259Y014362
X013259Y015356
X010963Y011368
X001969Y013365
X022253Y009362
X013259Y006360
X001969Y008366
X013259Y007365
X010963Y002362
T112
X039869Y019359
X044869Y019359
X036869Y026059
X039869Y023059
X037869Y019359
X034869Y023059
X036869Y016359
X034869Y026059
X038869Y016359
X035869Y023059
X036869Y019359
X033869Y026059
X044869Y016359
X038869Y023059
X037869Y016359
X039869Y026059
X041869Y016359
X042869Y016359
X033869Y023059
X037869Y023059
X040869Y026059
X038869Y019359
X041869Y019359
X043869Y019359
X037869Y026059
X042869Y019359
X038869Y026059
X040869Y023059
X035869Y026059
X036869Y023059
X040869Y019359
X039869Y016359
X040869Y016359
X043869Y016359
T113
X059669Y020459
X059669Y014459
X059669Y006459
X059669Y016459
X059669Y018459
X059669Y022459
X059669Y024459
X059669Y010459
X059669Y008459
X059669Y012459
X059669Y004459
X059669Y002459
T114
X045469Y001559
X006469Y014859
X026469Y009859
X045569Y021559
X017470Y002859
X006369Y002859
T00
M30
