G04 MADE WITH FRITZING*
G04 WWW.FRITZING.ORG*
G04 DOUBLE SIDED*
G04 HOLES PLATED*
G04 CONTOUR ON CENTER OF CONTOUR VECTOR*
%ASAXBY*%
%FSLAX23Y23*%
%MOIN*%
%OFA0B0*%
%SFA1.0B1.0*%
%ADD10C,0.140000*%
%ADD11R,0.039370X0.055118*%
%ADD12R,0.055118X0.059055*%
%ADD13R,0.059055X0.055118*%
%ADD14R,0.001000X0.001000*%
%LNPASTEMASK1*%
G90*
G70*
G54D10*
X5140Y2756D03*
X5697Y2756D03*
X5140Y2756D03*
X5697Y2756D03*
G54D11*
X254Y939D03*
X217Y1026D03*
X292Y1026D03*
X2590Y273D03*
X2627Y186D03*
X2552Y186D03*
G54D12*
X1906Y846D03*
X1987Y846D03*
G54D13*
X2057Y617D03*
X2057Y536D03*
G54D12*
X1686Y846D03*
X1767Y846D03*
G54D13*
X2087Y217D03*
X2087Y136D03*
X1527Y697D03*
X1527Y616D03*
G54D12*
X2188Y2086D03*
X2107Y2086D03*
X1928Y2086D03*
X1847Y2086D03*
G54D13*
X2347Y297D03*
X2347Y216D03*
G36*
X1731Y704D02*
X1644Y704D01*
X1644Y728D01*
X1731Y728D01*
X1731Y704D01*
G37*
D02*
G36*
X1731Y654D02*
X1644Y654D01*
X1644Y678D01*
X1731Y678D01*
X1731Y654D01*
G37*
D02*
G36*
X1731Y604D02*
X1644Y604D01*
X1644Y628D01*
X1731Y628D01*
X1731Y604D01*
G37*
D02*
G36*
X1731Y554D02*
X1644Y554D01*
X1644Y578D01*
X1731Y578D01*
X1731Y554D01*
G37*
D02*
G36*
X1937Y554D02*
X1850Y554D01*
X1850Y578D01*
X1937Y578D01*
X1937Y554D01*
G37*
D02*
G36*
X1937Y604D02*
X1850Y604D01*
X1850Y628D01*
X1937Y628D01*
X1937Y604D01*
G37*
D02*
G36*
X1937Y654D02*
X1850Y654D01*
X1850Y678D01*
X1937Y678D01*
X1937Y654D01*
G37*
D02*
G36*
X1937Y704D02*
X1850Y704D01*
X1850Y728D01*
X1937Y728D01*
X1937Y704D01*
G37*
D02*
G54D14*
D02*
G04 End of PasteMask1*
M02*