<?xml version="1.0" encoding="UTF-8" standalone="no"?>
<svg
   xmlns:dc="http://purl.org/dc/elements/1.1/"
   xmlns:cc="http://creativecommons.org/ns#"
   xmlns:rdf="http://www.w3.org/1999/02/22-rdf-syntax-ns#"
   xmlns:svg="http://www.w3.org/2000/svg"
   xmlns="http://www.w3.org/2000/svg"
   xmlns:sodipodi="http://sodipodi.sourceforge.net/DTD/sodipodi-0.dtd"
   xmlns:inkscape="http://www.inkscape.org/namespaces/inkscape"
   width="108.33353mm"
   height="108.62668mm"
   viewBox="0 0 108.33353 108.62668"
   version="1.1"
   id="svg8"
   inkscape:version="1.0.2-2 (e86c870879, 2021-01-15)"
   sodipodi:docname="Erb_Iot.svg">
  <defs
     id="defs2" />
  <sodipodi:namedview
     id="base"
     pagecolor="#ffffff"
     bordercolor="#666666"
     borderopacity="1.0"
     inkscape:pageopacity="0.0"
     inkscape:pageshadow="2"
     inkscape:zoom="0.94"
     inkscape:cx="26.670923"
     inkscape:cy="162.95731"
     inkscape:document-units="mm"
     inkscape:current-layer="layer1"
     inkscape:document-rotation="0"
     showgrid="false"
     inkscape:window-width="1920"
     inkscape:window-height="1017"
     inkscape:window-x="-8"
     inkscape:window-y="-8"
     inkscape:window-maximized="1" />
  <metadata
     id="metadata5">
    <rdf:RDF>
      <cc:Work
         rdf:about="">
        <dc:format>image/svg+xml</dc:format>
        <dc:type
           rdf:resource="http://purl.org/dc/dcmitype/StillImage" />
        <dc:title></dc:title>
      </cc:Work>
    </rdf:RDF>
  </metadata>
  <g
     inkscape:label="Capa 1"
     inkscape:groupmode="layer"
     id="layer1"
     transform="translate(-48.959387,-87.61796)">
    <path
       style="fill:#000000;stroke-width:0.264583"
       d="M 99.491374,196.18329 C 85.368401,194.9453 73.590686,189.40904 64.029051,179.51379 55.988553,171.19275 50.952954,160.89971 49.3699,149.54969 c -0.548269,-3.93093 -0.547162,-11.63873 0.0022,-15.35107 3.588293,-24.24785 22.199946,-42.753902 46.467073,-46.203415 3.538531,-0.502993 11.174187,-0.502993 14.712737,0 23.54831,3.347336 41.9082,20.988685 46.26012,44.449665 0.40139,2.16387 0.48889,3.92304 0.48034,9.65729 -0.01,6.59771 -0.0528,7.21005 -0.72749,10.37677 -2.28511,10.72495 -6.85115,19.41432 -14.20612,27.03486 -8.53781,8.84609 -19.19964,14.37335 -31.17416,16.16119 -2.74321,0.40957 -9.47922,0.70239 -11.693226,0.50831 z m -7.716273,-32.65825 -0.107468,-11.65003 -1.11632,-1.02041 c -0.613976,-0.56123 -1.443241,-1.71832 -1.842815,-2.57133 -0.701487,-1.49751 -0.726246,-1.70118 -0.719299,-5.91653 0.0066,-3.98165 0.06053,-4.48185 0.613662,-5.68713 0.333555,-0.72684 1.163754,-1.84037 1.844886,-2.47453 l 1.238422,-1.15302 0.07918,-11.48224 0.07918,-11.48224 h -6.627613 -6.627614 v 32.54375 32.54375 h 6.646637 6.646635 z M 122.51012,146.33989 V 125.4422 l 6.94532,-0.0705 6.94531,-0.0705 0.0727,-4.29948 0.0727,-4.29948 H 117.48959 98.433044 v 4.36563 4.36562 h 6.879166 6.87916 v 20.90208 20.90209 h 5.15938 5.15937 z m -23.078436,5.94195 c 1.960256,-0.58214 3.482576,-1.85205 4.421876,-3.6887 0.75937,-1.48483 0.80015,-1.7342 0.8907,-5.4468 0.10941,-4.48582 -0.22049,-6.11205 -1.61718,-7.97191 -1.8238,-2.42862 -6.199705,-3.53852 -9.811437,-2.48856 l -1.497182,0.43524 v 9.37731 9.37731 l 1.256771,0.38645 c 1.664057,0.5117 4.668292,0.52099 6.356452,0.0197 z m -5.191076,-4.76191 c -0.924799,-0.77817 -1.363814,-2.3944 -1.363814,-5.02089 0,-4.04173 0.995752,-5.68855 3.439584,-5.68855 2.430094,0 3.439586,1.62246 3.439586,5.5281 0,4.21049 -0.96355,5.84899 -3.439586,5.84899 -0.98496,0 -1.466311,-0.15482 -2.07577,-0.66765 z"
       id="path847" />
  </g>
</svg>
