<?xml version="1.0" encoding="UTF-8" standalone="no"?>
<svg
   xmlns:dc="http://purl.org/dc/elements/1.1/"
   xmlns:cc="http://creativecommons.org/ns#"
   xmlns:rdf="http://www.w3.org/1999/02/22-rdf-syntax-ns#"
   xmlns:svg="http://www.w3.org/2000/svg"
   xmlns="http://www.w3.org/2000/svg"
   xmlns:sodipodi="http://sodipodi.sourceforge.net/DTD/sodipodi-0.dtd"
   xmlns:inkscape="http://www.inkscape.org/namespaces/inkscape"
   xml:space="preserve"
   width="1.11in"
   height="2.41in"
   version="1.1"
   shape-rendering="geometricPrecision"
   text-rendering="geometricPrecision"
   image-rendering="optimizeQuality"
   fill-rule="evenodd"
   clip-rule="evenodd"
   viewBox="0 0 1110 2410"
   id="svg341"
   sodipodi:docname="A9G_schematic.svg"
   inkscape:version="1.0.2-2 (e86c870879, 2021-01-15)"><metadata
   id="metadata347"><rdf:RDF><cc:Work
       rdf:about=""><dc:format>image/svg+xml</dc:format><dc:type
         rdf:resource="http://purl.org/dc/dcmitype/StillImage" /><dc:title></dc:title></cc:Work></rdf:RDF></metadata><defs
   id="defs345" /><sodipodi:namedview
   pagecolor="#ffffff"
   bordercolor="#666666"
   borderopacity="1"
   objecttolerance="10"
   gridtolerance="10"
   guidetolerance="10"
   inkscape:pageopacity="0"
   inkscape:pageshadow="2"
   inkscape:window-width="1920"
   inkscape:window-height="1017"
   id="namedview343"
   showgrid="false"
   inkscape:zoom="3.6739279"
   inkscape:cx="53.280001"
   inkscape:cy="115.68"
   inkscape:window-x="-8"
   inkscape:window-y="-8"
   inkscape:window-maximized="1"
   inkscape:current-layer="Schematic" />
 <g
   id="Schematic">
  <metadata
   id="CorelCorpID_0Corel-Layer" />
  <rect
   fill="#FEFEFE"
   stroke="#373435"
   stroke-width="10"
   x="105"
   y="105"
   width="900"
   height="2200"
   id="rect3" />
  
  <rect
   id="connector1terminal"
   fill="none"
   x="400"
   y="2"
   width="10"
   height="10"
   gorn="0.4.0.0.0.0.0.0.0.0.85" />
  
  
  <rect
   id="connector2terminal"
   fill="none"
   y="402"
   width="10"
   height="10"
   gorn="0.4.0.0.0.0.0.0.0.0.8" />
  
  
  
  <rect
   id="connector3terminal"
   fill="none"
   y="502"
   width="10"
   height="10"
   gorn="0.4.0.0.0.0.0.0.0.0.82" />
  
  
  <line
   id="connector4pin"
   fill="none"
   stroke="#999999"
   stroke-width="9.49213"
   stroke-linecap="round"
   x1="105"
   y1="605"
   x2="5"
   y2="605"
   gorn="0.4.0.0.0.0.0.0.0.0.83" />
  <rect
   id="connector4terminal"
   fill="none"
   y="602"
   width="10"
   height="10"
   gorn="0.4.0.0.0.0.0.0.0.0.85" />
  <text
   x="136"
   y="622"
   fill="#1A1A1A"
   font-weight="normal"
   font-size="48.6102"
   font-family="Droid Sans"
   id="text29">GPIO39/SVN</text>
  <g
   transform="matrix(1 0 0 1 -482.173 -1218.22)"
   id="g33">
   <text
   x="542"
   y="1805"
   fill="#1A1A1A"
   font-weight="normal"
   font-size="48.6102"
   font-family="Droid Sans"
   id="text31">4</text>
  </g>
  <line
   id="connector5pin"
   fill="none"
   stroke="#999999"
   stroke-width="9.49213"
   stroke-linecap="round"
   x1="105"
   y1="705"
   x2="5"
   y2="705"
   gorn="0.4.0.0.0.0.0.0.0.0.7" />
  <rect
   id="connector5terminal"
   fill="none"
   y="702"
   width="10"
   height="10"
   gorn="0.4.0.0.0.0.0.0.0.0.8" />
  <text
   x="141"
   y="722"
   fill="#1A1A1A"
   font-weight="normal"
   font-size="48.6102"
   font-family="Droid Sans"
   id="text37">GPIO34</text>
  <text
   x="56"
   y="690"
   fill="#1A1A1A"
   font-weight="normal"
   font-size="48.6102"
   font-family="Droid Sans"
   id="text39">5</text>
  <line
   id="connector6pin"
   fill="none"
   stroke="#999999"
   stroke-width="9.48425"
   stroke-linecap="round"
   x1="105"
   y1="805"
   x2="5"
   y2="805"
   gorn="0.4.0.0.0.0.0.0.0.0.81" />
  <rect
   id="connector6terminal"
   fill="none"
   y="802"
   width="10"
   height="10"
   gorn="0.4.0.0.0.0.0.0.0.0.82" />
  <g
   transform="matrix(1 0 0 1 -333.295 -983.311)"
   id="g45">
   <text
   x="471"
   y="1805"
   fill="#1A1A1A"
   font-weight="normal"
   font-size="48.6102"
   font-family="Droid Sans"
   id="text43">GPIO35</text>
  </g>
  <g
   transform="matrix(1 0 0 1 -485.48 -1015.48)"
   id="g49">
   <text
   x="542"
   y="1805"
   fill="#1A1A1A"
   font-weight="normal"
   font-size="48.6102"
   font-family="Droid Sans"
   id="text47">6</text>
  </g>
  <line
   id="connector7pin"
   fill="none"
   stroke="#999999"
   stroke-width="9.49213"
   stroke-linecap="round"
   x1="5"
   y1="905"
   x2="105"
   y2="905"
   gorn="0.4.0.0.0.0.0.0.0.0.71" />
  <rect
   id="connector7terminal"
   fill="none"
   y="902"
   width="10"
   height="10"
   gorn="0.4.0.0.0.0.0.0.0.0.72" />
  <g
   transform="matrix(1 0 0 1 -333.067 -883.13)"
   id="g55">
   <text
   x="471"
   y="1805"
   fill="#1A1A1A"
   font-weight="normal"
   font-size="48.6102"
   font-family="Droid Sans"
   id="text53">GPIO32</text>
  </g>
  <g
   transform="matrix(1 0 0 1 -487.425 -915)"
   id="g59">
   <text
   x="542"
   y="1805"
   fill="#1A1A1A"
   font-weight="normal"
   font-size="48.6102"
   font-family="Droid Sans"
   id="text57">7</text>
  </g>
  <line
   id="connector8pin"
   fill="none"
   stroke="#999999"
   stroke-width="9.49213"
   stroke-linecap="round"
   x1="105"
   y1="1005"
   x2="5"
   y2="1005"
   gorn="0.4.0.0.0.0.0.0.0.0.12" />
  <rect
   id="connector8terminal"
   fill="none"
   y="1002"
   width="10"
   height="10"
   gorn="0.4.0.0.0.0.0.0.0.0.13" />
  <g
   transform="matrix(1 0 0 1 -333.067 -783.13)"
   id="g65">
   <text
   x="471"
   y="1805"
   fill="#1A1A1A"
   font-weight="normal"
   font-size="48.6102"
   font-family="Droid Sans"
   id="text63">GPIO33</text>
  </g>
  <g
   transform="matrix(1 0 0 1 -485.677 -815.484)"
   id="g69">
   <text
   x="542"
   y="1805"
   fill="#1A1A1A"
   font-weight="normal"
   font-size="48.6102"
   font-family="Droid Sans"
   id="text67">8</text>
  </g>
  <line
   id="connector9pin"
   fill="none"
   stroke="#999999"
   stroke-width="9.49213"
   stroke-linecap="round"
   x1="105"
   y1="1105"
   x2="5"
   y2="1105"
   gorn="0.4.0.0.0.0.0.0.0.0.17" />
  <rect
   id="connector9terminal"
   fill="none"
   y="1102"
   width="10"
   height="10"
   gorn="0.4.0.0.0.0.0.0.0.0.18" />
  <g
   transform="matrix(1 0 0 1 -333.067 -683.13)"
   id="g75">
   <text
   x="471"
   y="1805"
   fill="#1A1A1A"
   font-weight="normal"
   font-size="48.6102"
   font-family="Droid Sans"
   id="text73">GPIO25</text>
  </g>
  <g
   transform="matrix(1 0 0 1 -486.161 -715.484)"
   id="g79">
   <text
   x="542"
   y="1805"
   fill="#1A1A1A"
   font-weight="normal"
   font-size="48.6102"
   font-family="Droid Sans"
   id="text77">9</text>
  </g>
  <line
   id="connector10pin"
   fill="none"
   stroke="#999999"
   stroke-width="9.49213"
   stroke-linecap="round"
   x1="105"
   y1="1205"
   x2="5"
   y2="1205"
   gorn="0.4.0.0.0.0.0.0.0.0.22" />
  <rect
   id="connector10terminal"
   fill="none"
   y="1202"
   width="10"
   height="10"
   gorn="0.4.0.0.0.0.0.0.0.0.23" />
  <g
   transform="matrix(1 0 0 1 -333.067 -583.13)"
   id="g85">
   <text
   x="471"
   y="1805"
   fill="#1A1A1A"
   font-weight="normal"
   font-size="48.6102"
   font-family="Droid Sans"
   id="text83">GPIO26</text>
  </g>
  <g
   transform="matrix(1 0 0 1 -498.429 -615)"
   id="g89">
   <text
   x="528"
   y="1805"
   fill="#1A1A1A"
   font-weight="normal"
   font-size="48.6102"
   font-family="Droid Sans"
   id="text87">10</text>
  </g>
  <line
   id="connector11pin"
   fill="none"
   stroke="#999999"
   stroke-width="10"
   stroke-linecap="round"
   x1="5"
   y1="1305"
   x2="105"
   y2="1305"
   gorn="0.4.0.0.0.0.0.0.0.0.3" />
  <rect
   id="connector11terminal"
   fill="none"
   y="1300"
   width="10"
   height="10"
   gorn="0.4.0.0.0.0.0.0.0.0.4" />
  <g
   transform="matrix(1 0 0 1 -332.972 -483.13)"
   id="g95">
   <text
   x="471"
   y="1805"
   fill="#1A1A1A"
   font-weight="normal"
   font-size="48.6102"
   font-family="Droid Sans"
   id="text93">GPIO27</text>
  </g>
  <g
   transform="matrix(1.02597 0 0 1 -512.998 -515.484)"
   id="g99">
   <text
   x="528"
   y="1805"
   fill="#1A1A1A"
   font-weight="normal"
   font-size="48.6102"
   font-family="Droid Sans"
   id="text97">11</text>
  </g>
  <line
   id="connector12pin"
   fill="none"
   stroke="#999999"
   stroke-width="9.49213"
   stroke-linecap="round"
   x1="105"
   y1="1405"
   x2="5"
   y2="1405"
   gorn="0.4.0.0.0.0.0.0.0.0.83" />
  <rect
   id="connector12terminal"
   fill="none"
   y="1402"
   width="10"
   height="10"
   gorn="0.4.0.0.0.0.0.0.0.0.85" />
  <text
   x="136"
   y="1422"
   fill="#1A1A1A"
   font-weight="normal"
   font-size="48.6102"
   font-family="Droid Sans"
   id="text103">GPIO14</text>
  <text
   x="28"
   y="1391"
   fill="#1A1A1A"
   font-weight="normal"
   font-size="48.6102"
   font-family="Droid Sans"
   id="text105">12</text>
  <line
   id="connector13pin"
   fill="none"
   stroke="#999999"
   stroke-width="9.49213"
   stroke-linecap="round"
   x1="105"
   y1="1505"
   x2="5"
   y2="1505"
   gorn="0.4.0.0.0.0.0.0.0.0.7" />
  <rect
   id="connector13terminal"
   fill="none"
   y="1502"
   width="10"
   height="10"
   gorn="0.4.0.0.0.0.0.0.0.0.8" />
  <text
   x="141"
   y="1522"
   fill="#1A1A1A"
   font-weight="normal"
   font-size="48.6102"
   font-family="Droid Sans"
   id="text109">GPIO12</text>
  <text
   x="28"
   y="1490"
   fill="#1A1A1A"
   font-weight="normal"
   font-size="48.6102"
   font-family="Droid Sans"
   id="text111">13</text>
  <line
   id="connector14pin"
   fill="none"
   x1="555"
   y1="2305"
   x2="555"
   y2="2405"
   gorn="0.4.0.0.0.0.0.0.0.0.81" />
  <rect
   id="connector14terminal"
   fill="none"
   x="550"
   y="2402"
   width="10"
   height="10"
   gorn="0.4.0.0.0.0.0.0.0.0.82" />
  
  <line
   id="connector15pin"
   fill="none"
   stroke="#999999"
   stroke-width="9.49213"
   stroke-linecap="round"
   x1="5"
   y1="1605"
   x2="105"
   y2="1605"
   gorn="0.4.0.0.0.0.0.0.0.0.71" />
  <rect
   id="connector15terminal"
   fill="none"
   y="1602"
   width="10"
   height="10"
   gorn="0.4.0.0.0.0.0.0.0.0.72" />
  <g
   transform="matrix(1 0 0 1 -333.067 -183.13)"
   id="g123">
   <text
   x="471"
   y="1805"
   fill="#1A1A1A"
   font-weight="normal"
   font-size="48.6102"
   font-family="Droid Sans"
   id="text121">GPIO13</text>
  </g>
  <g
   transform="matrix(1 0 0 1 -501.748 -215)"
   id="g127">
   <text
   x="528"
   y="1805"
   fill="#1A1A1A"
   font-weight="normal"
   font-size="48.6102"
   font-family="Droid Sans"
   id="text125">15</text>
  </g>
  <line
   id="connector16pin"
   fill="none"
   stroke="#999999"
   stroke-width="9.49213"
   stroke-linecap="round"
   x1="105"
   y1="1705"
   x2="5"
   y2="1705"
   gorn="0.4.0.0.0.0.0.0.0.0.12" />
  <rect
   id="connector16terminal"
   fill="none"
   y="1702"
   width="10"
   height="10"
   gorn="0.4.0.0.0.0.0.0.0.0.13" />
  <g
   transform="matrix(1 0 0 1 -294.764 -83.1299)"
   id="g133">
   <text
   x="433"
   y="1805"
   fill="#1A1A1A"
   font-weight="normal"
   font-size="48.6102"
   font-family="Droid Sans"
   id="text131">GPIO9/SD2</text>
  </g>
  <g
   transform="matrix(1 0 0 1 -500 -115.484)"
   id="g137">
   <text
   x="528"
   y="1805"
   fill="#1A1A1A"
   font-weight="normal"
   font-size="48.6102"
   font-family="Droid Sans"
   id="text135">16</text>
  </g>
  <line
   id="connector17pin"
   fill="none"
   stroke="#999999"
   stroke-width="9.49213"
   stroke-linecap="round"
   x1="105"
   y1="1805"
   x2="5"
   y2="1805"
   gorn="0.4.0.0.0.0.0.0.0.0.17" />
  <rect
   id="connector17terminal"
   fill="none"
   y="1802"
   width="10"
   height="10"
   gorn="0.4.0.0.0.0.0.0.0.0.18" />
  <g
   transform="matrix(1 0 0 1 -281.374 16.8701)"
   id="g143">
   <text
   x="420"
   y="1805"
   fill="#1A1A1A"
   font-weight="normal"
   font-size="48.6102"
   font-family="Droid Sans"
   id="text141">GPIO10/SD3</text>
  </g>
  <g
   transform="matrix(1 0 0 1 -500.484 -15.4843)"
   id="g147">
   <text
   x="528"
   y="1805"
   fill="#1A1A1A"
   font-weight="normal"
   font-size="48.6102"
   font-family="Droid Sans"
   id="text145">17</text>
  </g>
  <line
   id="connector18pin"
   fill="none"
   stroke="#999999"
   stroke-width="9.49213"
   stroke-linecap="round"
   x1="105"
   y1="1905"
   x2="5"
   y2="1905"
   gorn="0.4.0.0.0.0.0.0.0.0.22" />
  <rect
   id="connector18terminal"
   fill="none"
   y="1902"
   width="10"
   height="10"
   gorn="0.4.0.0.0.0.0.0.0.0.23" />
  <g
   transform="matrix(1 0 0 1 -243.512 116.87)"
   id="g153">
   <text
   x="381"
   y="1805"
   fill="#1A1A1A"
   font-weight="normal"
   font-size="48.6102"
   font-family="Droid Sans"
   id="text151">GPIO11/SDCMD</text>
  </g>
  <g
   transform="matrix(1 0 0 1 -500.39 85)"
   id="g157">
   <text
   x="528"
   y="1805"
   fill="#1A1A1A"
   font-weight="normal"
   font-size="48.6102"
   font-family="Droid Sans"
   id="text155">18</text>
  </g>
  <line
   id="connector19pin"
   fill="none"
   stroke="#999999"
   stroke-width="10"
   stroke-linecap="round"
   x1="705"
   y1="5"
   x2="705"
   y2="105"
   gorn="0.4.0.0.0.0.0.0.0.0.3" />
  <rect
   id="connector19terminal"
   fill="none"
   x="700"
   width="10"
   height="10"
   gorn="0.4.0.0.0.0.0.0.0.0.4" />
  <g
   transform="matrix(-1.05938E-013 -1 1 -1.05938E-013 -1083.13 769.177)"
   id="g163">
   <text
   x="482"
   y="1805"
   fill="#1A1A1A"
   font-weight="normal"
   font-size="48.6102"
   font-family="Droid Sans"
   id="text161">VIN 5V</text>
  </g>
  <line
   id="connector20pin"
   fill="none"
   stroke="#999999"
   stroke-width="10"
   stroke-linecap="round"
   x1="1005"
   y1="2005"
   x2="1105"
   y2="2005"
   gorn="0.4.0.0.0.0.0.0.0.0.37" />
  <rect
   id="connector20terminal"
   fill="none"
   x="1100"
   y="2002"
   width="10"
   height="10"
   gorn="0.4.0.0.0.0.0.0.0.0.38" />
  <g
   transform="matrix(1 0 0 1 264.827 217.783)"
   id="g169">
   <text
   x="406"
   y="1805"
   fill="#1A1A1A"
   font-weight="normal"
   font-size="48.6102"
   font-family="Droid Sans"
   id="text167">GPIO6/SDCLK</text>
  </g>
  <g
   transform="matrix(1 0 0 1 496.213 184.516)"
   id="g173">
   <text
   x="528"
   y="1805"
   fill="#1A1A1A"
   font-weight="normal"
   font-size="48.6102"
   font-family="Droid Sans"
   id="text171">20</text>
  </g>
  <line
   id="connector21pin"
   fill="none"
   stroke="#999999"
   stroke-width="9.49213"
   stroke-linecap="round"
   x1="1005"
   y1="1905"
   x2="1105"
   y2="1905"
   gorn="0.4.0.0.0.0.0.0.0.0.32" />
  <rect
   id="connector21terminal"
   fill="none"
   x="1100"
   y="1902"
   width="10"
   height="10"
   gorn="0.4.0.0.0.0.0.0.0.0.33" />
  <g
   transform="matrix(1 0 0 1 294.504 117.89)"
   id="g179">
   <text
   x="433"
   y="1805"
   fill="#1A1A1A"
   font-weight="normal"
   font-size="48.6102"
   font-family="Droid Sans"
   id="text177">GPIO7/SD0</text>
  </g>
  <g
   transform="matrix(1 0 0 1 497.492 83.7559)"
   id="g183">
   <text
   x="528"
   y="1805"
   fill="#1A1A1A"
   font-weight="normal"
   font-size="48.6102"
   font-family="Droid Sans"
   id="text181">21</text>
  </g>
  <line
   id="connector22pin"
   fill="none"
   stroke="#999999"
   stroke-width="9.49213"
   stroke-linecap="round"
   x1="1005"
   y1="1805"
   x2="1105"
   y2="1805"
   gorn="0.4.0.0.0.0.0.0.0.0.27" />
  <rect
   id="connector22terminal"
   fill="none"
   x="1100"
   y="1802"
   width="10"
   height="10"
   gorn="0.4.0.0.0.0.0.0.0.0.28" />
  <g
   transform="matrix(1 0 0 1 294.638 17.8898)"
   id="g189">
   <text
   x="433"
   y="1805"
   fill="#1A1A1A"
   font-weight="normal"
   font-size="48.6102"
   font-family="Droid Sans"
   id="text187">GPIO8/SD1</text>
  </g>
  <g
   transform="matrix(1 0 0 1 497.547 -15)"
   id="g193">
   <text
   x="528"
   y="1805"
   fill="#1A1A1A"
   font-weight="normal"
   font-size="48.6102"
   font-family="Droid Sans"
   id="text191">22</text>
  </g>
  <line
   id="connector23pin"
   fill="none"
   stroke="#999999"
   stroke-width="9.49213"
   stroke-linecap="round"
   x1="1005"
   y1="1705"
   x2="1105"
   y2="1705"
   gorn="0.4.0.0.0.0.0.0.0.0.27" />
  <rect
   id="connector23terminal"
   fill="none"
   x="1100"
   y="1702"
   width="10"
   height="10"
   gorn="0.4.0.0.0.0.0.0.0.0.28" />
  <g
   transform="matrix(1 0 0 1 332.374 -82.1102)"
   id="g199">
   <text
   x="471"
   y="1805"
   fill="#1A1A1A"
   font-weight="normal"
   font-size="48.6102"
   font-family="Droid Sans"
   id="text197">GPIO15</text>
  </g>
  <g
   transform="matrix(1 0 0 1 497.547 -115)"
   id="g203">
   <text
   x="528"
   y="1805"
   fill="#1A1A1A"
   font-weight="normal"
   font-size="48.6102"
   font-family="Droid Sans"
   id="text201">23</text>
  </g>
  <line
   id="connector24pin"
   fill="none"
   stroke="#999999"
   stroke-width="9.72047"
   stroke-linecap="round"
   x1="1105"
   y1="1605"
   x2="1005"
   y2="1605"
   gorn="0.4.0.0.0.0.0.0.0.0.69" />
  <rect
   id="connector24terminal"
   fill="none"
   x="1100"
   y="1602"
   width="10"
   height="10"
   gorn="0.4.0.0.0.0.0.0.0.0.70" />
  <g
   transform="matrix(1 0 0 1 344.449 -182.11)"
   id="g209">
   <text
   x="485"
   y="1805"
   fill="#1A1A1A"
   font-weight="normal"
   font-size="48.6102"
   font-family="Droid Sans"
   id="text207">GPIO2</text>
  </g>
  <g
   transform="matrix(1 0 0 1 497.547 -215.484)"
   id="g213">
   <text
   x="528"
   y="1805"
   fill="#1A1A1A"
   font-weight="normal"
   font-size="48.6102"
   font-family="Droid Sans"
   id="text211">24</text>
  </g>
  <line
   id="connector25pin"
   fill="none"
   stroke="#999999"
   stroke-width="9.49213"
   stroke-linecap="round"
   x1="1105"
   y1="1505"
   x2="1005"
   y2="1505"
   gorn="0.4.0.0.0.0.0.0.0.0.66.0.0.0.0.0.0.0.0.0.0" />
  <rect
   id="connector25terminal"
   fill="none"
   x="1100"
   y="1502"
   width="10"
   height="10"
   gorn="0.4.0.0.0.0.0.0.0.0.68" />
  <g
   transform="matrix(1 0 0 1 346.197 -282.11)"
   id="g219">
   <text
   x="485"
   y="1805"
   fill="#1A1A1A"
   font-weight="normal"
   font-size="48.6102"
   font-family="Droid Sans"
   id="text217">GPIO0</text>
  </g>
  <g
   transform="matrix(1 0 0 1 498.157 -315)"
   id="g223">
   <text
   x="528"
   y="1805"
   fill="#1A1A1A"
   font-weight="normal"
   font-size="48.6102"
   font-family="Droid Sans"
   id="text221">25</text>
  </g>
  
  <rect
   id="connector26terminal"
   fill="none"
   x="1100"
   y="1402"
   width="10"
   height="10"
   gorn="0.4.0.0.0.0.0.0.0.0.79" />
  
  
  
  <rect
   id="connector27terminal"
   fill="none"
   x="1100"
   y="1302"
   width="10"
   height="10"
   gorn="0.4.0.0.0.0.0.0.0.0.76" />
  
  
  <line
   id="connector28pin"
   fill="none"
   stroke="#999999"
   stroke-width="10"
   stroke-linecap="round"
   x1="1005"
   y1="1205"
   x2="1105"
   y2="1205"
   gorn="0.4.0.0.0.0.0.0.0.0.37" />
  <rect
   id="connector28terminal"
   fill="none"
   x="1100"
   y="1202"
   width="10"
   height="10"
   gorn="0.4.0.0.0.0.0.0.0.0.38" />
  <g
   transform="matrix(1 0 0 1 333.579 -582.161)"
   id="g245">
   <text
   x="471"
   y="1805"
   fill="#1A1A1A"
   font-weight="normal"
   font-size="48.6102"
   font-family="Droid Sans"
   id="text243">GPIO17</text>
  </g>
  <g
   transform="matrix(1 0 0 1 496.213 -615.484)"
   id="g249">
   <text
   x="528"
   y="1805"
   fill="#1A1A1A"
   font-weight="normal"
   font-size="48.6102"
   font-family="Droid Sans"
   id="text247">28</text>
  </g>
  <line
   id="connector29pin"
   fill="none"
   stroke="#999999"
   stroke-width="9.49213"
   stroke-linecap="round"
   x1="1005"
   y1="1105"
   x2="1105"
   y2="1105"
   gorn="0.4.0.0.0.0.0.0.0.0.32" />
  <rect
   id="connector29terminal"
   fill="none"
   x="1100"
   y="1102"
   width="10"
   height="10"
   gorn="0.4.0.0.0.0.0.0.0.0.33" />
  <g
   transform="matrix(1 0 0 1 346.193 -682.11)"
   id="g255">
   <text
   x="485"
   y="1805"
   fill="#1A1A1A"
   font-weight="normal"
   font-size="48.6102"
   font-family="Droid Sans"
   id="text253">GPIO5</text>
  </g>
  <g
   transform="matrix(1 0 0 1 497.492 -716.244)"
   id="g259">
   <text
   x="528"
   y="1805"
   fill="#1A1A1A"
   font-weight="normal"
   font-size="48.6102"
   font-family="Droid Sans"
   id="text257">29</text>
  </g>
  <line
   id="connector30pin"
   fill="none"
   stroke="#999999"
   stroke-width="9.49213"
   stroke-linecap="round"
   x1="1005"
   y1="1005"
   x2="1105"
   y2="1005"
   gorn="0.4.0.0.0.0.0.0.0.0.27" />
  <rect
   id="connector30terminal"
   fill="none"
   x="1100"
   y="1002"
   width="10"
   height="10"
   gorn="0.4.0.0.0.0.0.0.0.0.28" />
  <g
   transform="matrix(1 0 0 1 332.941 -782.11)"
   id="g265">
   <text
   x="471"
   y="1805"
   fill="#1A1A1A"
   font-weight="normal"
   font-size="48.6102"
   font-family="Droid Sans"
   id="text263">GPIO18</text>
  </g>
  <g
   transform="matrix(1 0 0 1 497.547 -815)"
   id="g269">
   <text
   x="528"
   y="1805"
   fill="#1A1A1A"
   font-weight="normal"
   font-size="48.6102"
   font-family="Droid Sans"
   id="text267">30</text>
  </g>
  <line
   id="connector31pin"
   fill="none"
   stroke="#999999"
   stroke-width="9.49213"
   stroke-linecap="round"
   x1="1005"
   y1="905"
   x2="1105"
   y2="905"
   gorn="0.4.0.0.0.0.0.0.0.0.27" />
  <rect
   id="connector31terminal"
   fill="none"
   x="1100"
   y="902"
   width="10"
   height="10"
   gorn="0.4.0.0.0.0.0.0.0.0.28" />
  <g
   transform="matrix(1 0 0 1 332.374 -882.11)"
   id="g275">
   <text
   x="471"
   y="1805"
   fill="#1A1A1A"
   font-weight="normal"
   font-size="48.6102"
   font-family="Droid Sans"
   id="text273">GPIO19</text>
  </g>
  <g
   transform="matrix(1 0 0 1 497.547 -915)"
   id="g279">
   <text
   x="528"
   y="1805"
   fill="#1A1A1A"
   font-weight="normal"
   font-size="48.6102"
   font-family="Droid Sans"
   id="text277">31</text>
  </g>
  <line
   id="connector32pin"
   fill="none"
   x1="555"
   y1="2405"
   x2="555"
   y2="2305"
   gorn="0.4.0.0.0.0.0.0.0.0.69" />
  <rect
   id="connector32terminal"
   fill="none"
   x="550"
   y="2398"
   width="10"
   height="10"
   gorn="0.4.0.0.0.0.0.0.0.0.70" />
  <line
   id="connector33pin"
   fill="none"
   stroke="#999999"
   stroke-width="9.49213"
   stroke-linecap="round"
   x1="1105"
   y1="805"
   x2="1005"
   y2="805"
   gorn="0.4.0.0.0.0.0.0.0.0.66.0.0.0.0.0.0.0.0.0.0" />
  <rect
   id="connector33terminal"
   fill="none"
   x="1100"
   y="802"
   width="10"
   height="10"
   gorn="0.4.0.0.0.0.0.0.0.0.68" />
  <g
   transform="matrix(1 0 0 1 332.811 -982.11)"
   id="g287">
   <text
   x="471"
   y="1805"
   fill="#1A1A1A"
   font-weight="normal"
   font-size="48.6102"
   font-family="Droid Sans"
   id="text285">GPIO21</text>
  </g>
  <g
   transform="matrix(1 0 0 1 498.157 -1015)"
   id="g291">
   <text
   x="528"
   y="1805"
   fill="#1A1A1A"
   font-weight="normal"
   font-size="48.6102"
   font-family="Droid Sans"
   id="text289">33</text>
  </g>
  <line
   id="connector34pin"
   fill="none"
   stroke="#999999"
   stroke-width="9.49213"
   stroke-linecap="round"
   x1="1105"
   y1="705"
   x2="1005"
   y2="705"
   gorn="0.4.0.0.0.0.0.0.0.0.78" />
  <rect
   id="connector34terminal"
   fill="none"
   x="1100"
   y="702"
   width="10"
   height="10"
   gorn="0.4.0.0.0.0.0.0.0.0.79" />
  <g
   transform="matrix(1 0 0 1 295.917 -1082.65)"
   id="g297">
   <text
   x="435"
   y="1805"
   fill="#1A1A1A"
   font-weight="normal"
   font-size="48.6102"
   font-family="Droid Sans"
   id="text295">GPIO3/RX0</text>
  </g>
  <text
   x="1026"
   y="690"
   fill="#1A1A1A"
   font-weight="normal"
   font-size="48.6102"
   font-family="Droid Sans"
   id="text299">34</text>
  <line
   id="connector35pin"
   fill="none"
   stroke="#999999"
   stroke-width="9.49213"
   stroke-linecap="round"
   x1="1105"
   y1="605"
   x2="1005"
   y2="605"
   gorn="0.4.0.0.0.0.0.0.0.0.75" />
  <rect
   id="connector35terminal"
   fill="none"
   x="1100"
   y="602"
   width="10"
   height="10"
   gorn="0.4.0.0.0.0.0.0.0.0.76" />
  <g
   transform="matrix(1 0 0 1 295.917 -1182.65)"
   id="g305">
   <text
   x="436"
   y="1805"
   fill="#1A1A1A"
   font-weight="normal"
   font-size="48.6102"
   font-family="Droid Sans"
   id="text303">GPIO1/TX0</text>
  </g>
  <text
   x="1026"
   y="590"
   fill="#1A1A1A"
   font-weight="normal"
   font-size="48.6102"
   font-family="Droid Sans"
   id="text307">35</text>
  
  <rect
   id="connector36terminal"
   fill="none"
   x="1100"
   y="502"
   width="10"
   height="10"
   gorn="0.4.0.0.0.0.0.0.0.0.68" />
  
  
  
  <rect
   id="connector37terminal"
   fill="none"
   x="1100"
   y="402"
   width="10"
   height="10"
   gorn="0.4.0.0.0.0.0.0.0.0.79" />
  
  
  
  <rect
   id="connector38terminal"
   fill="none"
   x="550"
   y="2398"
   width="10"
   height="10"
   gorn="0.4.0.0.0.0.0.0.0.0.76" />
  
  
  
  
 </g>
</svg>
