G04 MADE WITH FRITZING*
G04 WWW.FRITZING.ORG*
G04 DOUBLE SIDED*
G04 HOLES PLATED*
G04 CONTOUR ON CENTER OF CONTOUR VECTOR*
%ASAXBY*%
%FSLAX23Y23*%
%MOIN*%
%OFA0B0*%
%SFA1.0B1.0*%
%ADD10C,0.008*%
%LNCONTOUR*%
G90*
G70*
G54D10*
X361Y2901D02*
X362Y2901D01*
X363Y2901D01*
X364Y2901D01*
X365Y2901D01*
X366Y2901D01*
X367Y2901D01*
X368Y2901D01*
X369Y2901D01*
X370Y2901D01*
X371Y2901D01*
X372Y2901D01*
X373Y2901D01*
X374Y2901D01*
X375Y2901D01*
X376Y2901D01*
X377Y2901D01*
X378Y2901D01*
X379Y2901D01*
X380Y2901D01*
X381Y2901D01*
X382Y2901D01*
X383Y2901D01*
X384Y2901D01*
X385Y2901D01*
X386Y2901D01*
X387Y2901D01*
X388Y2901D01*
X389Y2901D01*
X390Y2901D01*
X391Y2901D01*
X392Y2901D01*
X393Y2901D01*
X394Y2901D01*
X395Y2901D01*
X396Y2901D01*
X397Y2901D01*
X398Y2901D01*
X399Y2901D01*
X400Y2901D01*
X401Y2901D01*
X402Y2901D01*
X403Y2901D01*
X404Y2901D01*
X405Y2901D01*
X406Y2901D01*
X407Y2901D01*
X408Y2901D01*
X409Y2901D01*
X410Y2901D01*
X411Y2901D01*
X412Y2901D01*
X413Y2901D01*
X414Y2901D01*
X415Y2901D01*
X416Y2901D01*
X417Y2901D01*
X418Y2901D01*
X419Y2901D01*
X420Y2901D01*
X421Y2901D01*
X422Y2901D01*
X423Y2901D01*
X424Y2901D01*
X425Y2901D01*
X426Y2901D01*
X427Y2901D01*
X428Y2901D01*
X429Y2901D01*
X430Y2901D01*
X431Y2901D01*
X432Y2901D01*
X433Y2901D01*
X434Y2901D01*
X435Y2901D01*
X436Y2901D01*
X437Y2901D01*
X438Y2901D01*
X439Y2901D01*
X440Y2901D01*
X441Y2901D01*
X442Y2901D01*
X443Y2901D01*
X444Y2901D01*
X445Y2901D01*
X446Y2901D01*
X447Y2901D01*
X448Y2901D01*
X449Y2901D01*
X450Y2901D01*
X451Y2901D01*
X452Y2901D01*
X453Y2901D01*
X454Y2901D01*
X455Y2901D01*
X456Y2901D01*
X457Y2901D01*
X458Y2901D01*
X459Y2901D01*
X460Y2901D01*
X461Y2901D01*
X462Y2901D01*
X463Y2901D01*
X464Y2901D01*
X465Y2901D01*
X466Y2901D01*
X467Y2901D01*
X468Y2901D01*
X469Y2901D01*
X470Y2901D01*
X471Y2901D01*
X472Y2901D01*
X473Y2901D01*
X474Y2901D01*
X475Y2901D01*
X476Y2901D01*
X477Y2901D01*
X478Y2901D01*
X479Y2901D01*
X480Y2901D01*
X481Y2901D01*
X482Y2901D01*
X483Y2901D01*
X484Y2901D01*
X485Y2901D01*
X486Y2901D01*
X487Y2901D01*
X488Y2901D01*
X489Y2901D01*
X490Y2901D01*
X491Y2901D01*
X492Y2901D01*
X493Y2901D01*
X494Y2901D01*
X495Y2901D01*
X496Y2901D01*
X497Y2901D01*
X498Y2901D01*
X499Y2901D01*
X500Y2901D01*
X501Y2901D01*
X502Y2901D01*
X503Y2901D01*
X504Y2901D01*
X505Y2901D01*
X506Y2901D01*
X507Y2901D01*
X508Y2901D01*
X509Y2901D01*
X510Y2901D01*
X511Y2901D01*
X512Y2901D01*
X513Y2901D01*
X514Y2901D01*
X515Y2901D01*
X516Y2901D01*
X517Y2901D01*
X518Y2901D01*
X519Y2901D01*
X520Y2901D01*
X521Y2901D01*
X522Y2901D01*
X523Y2901D01*
X524Y2901D01*
X525Y2901D01*
X526Y2901D01*
X527Y2901D01*
X528Y2901D01*
X529Y2901D01*
X530Y2901D01*
X531Y2901D01*
X532Y2901D01*
X533Y2901D01*
X534Y2901D01*
X535Y2901D01*
X536Y2901D01*
X537Y2901D01*
X538Y2901D01*
X539Y2901D01*
X540Y2901D01*
X541Y2901D01*
X542Y2901D01*
X543Y2901D01*
X544Y2901D01*
X545Y2901D01*
X546Y2901D01*
X547Y2901D01*
X548Y2901D01*
X549Y2901D01*
X550Y2901D01*
X551Y2901D01*
X552Y2901D01*
X553Y2901D01*
X554Y2901D01*
X555Y2901D01*
X556Y2901D01*
X557Y2901D01*
X558Y2901D01*
X559Y2901D01*
X560Y2901D01*
X561Y2901D01*
X562Y2901D01*
X563Y2901D01*
X564Y2901D01*
X565Y2901D01*
X566Y2901D01*
X567Y2901D01*
X568Y2901D01*
X569Y2901D01*
X570Y2901D01*
X571Y2901D01*
X572Y2901D01*
X573Y2901D01*
X574Y2901D01*
X575Y2901D01*
X576Y2901D01*
X577Y2901D01*
X578Y2901D01*
X579Y2901D01*
X580Y2901D01*
X581Y2901D01*
X582Y2901D01*
X583Y2901D01*
X584Y2901D01*
X585Y2901D01*
X586Y2901D01*
X587Y2901D01*
X588Y2901D01*
X589Y2901D01*
X590Y2901D01*
X591Y2901D01*
X592Y2901D01*
X593Y2901D01*
X594Y2901D01*
X595Y2901D01*
X596Y2901D01*
X597Y2901D01*
X598Y2901D01*
X599Y2901D01*
X600Y2901D01*
X601Y2901D01*
X602Y2901D01*
X603Y2901D01*
X604Y2901D01*
X605Y2901D01*
X606Y2901D01*
X607Y2901D01*
X608Y2901D01*
X609Y2901D01*
X610Y2901D01*
X611Y2901D01*
X612Y2901D01*
X613Y2901D01*
X614Y2901D01*
X615Y2901D01*
X616Y2901D01*
X617Y2901D01*
X618Y2901D01*
X619Y2901D01*
X620Y2901D01*
X621Y2901D01*
X622Y2901D01*
X623Y2901D01*
X624Y2901D01*
X625Y2901D01*
X626Y2901D01*
X627Y2901D01*
X628Y2901D01*
X629Y2901D01*
X630Y2901D01*
X631Y2901D01*
X632Y2901D01*
X633Y2901D01*
X634Y2901D01*
X635Y2901D01*
X636Y2901D01*
X637Y2901D01*
X638Y2901D01*
X639Y2901D01*
X640Y2901D01*
X641Y2901D01*
X642Y2901D01*
X643Y2901D01*
X644Y2901D01*
X645Y2901D01*
X646Y2901D01*
X647Y2901D01*
X648Y2901D01*
X649Y2901D01*
X650Y2901D01*
X651Y2901D01*
X652Y2901D01*
X653Y2901D01*
X654Y2901D01*
X655Y2901D01*
X656Y2901D01*
X657Y2901D01*
X658Y2901D01*
X659Y2901D01*
X660Y2901D01*
X661Y2901D01*
X662Y2901D01*
X663Y2901D01*
X664Y2901D01*
X665Y2901D01*
X666Y2901D01*
X667Y2901D01*
X668Y2901D01*
X669Y2901D01*
X670Y2901D01*
X671Y2901D01*
X672Y2901D01*
X673Y2901D01*
X674Y2901D01*
X675Y2901D01*
X676Y2901D01*
X677Y2901D01*
X678Y2901D01*
X679Y2901D01*
X680Y2901D01*
X681Y2901D01*
X682Y2901D01*
X683Y2901D01*
X684Y2901D01*
X685Y2901D01*
X686Y2901D01*
X687Y2901D01*
X688Y2901D01*
X689Y2901D01*
X690Y2901D01*
X691Y2901D01*
X692Y2901D01*
X693Y2901D01*
X694Y2901D01*
X695Y2901D01*
X696Y2901D01*
X697Y2901D01*
X698Y2901D01*
X699Y2901D01*
X700Y2901D01*
X701Y2901D01*
X702Y2901D01*
X703Y2901D01*
X704Y2901D01*
X705Y2901D01*
X706Y2901D01*
X707Y2901D01*
X708Y2901D01*
X709Y2901D01*
X710Y2901D01*
X711Y2901D01*
X712Y2901D01*
X713Y2901D01*
X714Y2901D01*
X715Y2901D01*
X716Y2901D01*
X717Y2901D01*
X718Y2901D01*
X719Y2901D01*
X720Y2901D01*
X721Y2901D01*
X722Y2901D01*
X723Y2901D01*
X724Y2901D01*
X725Y2901D01*
X726Y2901D01*
X727Y2901D01*
X728Y2901D01*
X729Y2901D01*
X730Y2901D01*
X731Y2901D01*
X732Y2901D01*
X733Y2901D01*
X734Y2901D01*
X735Y2901D01*
X736Y2901D01*
X737Y2901D01*
X738Y2901D01*
X739Y2901D01*
X740Y2901D01*
X741Y2901D01*
X742Y2901D01*
X743Y2901D01*
X744Y2901D01*
X745Y2901D01*
X746Y2901D01*
X747Y2901D01*
X748Y2901D01*
X749Y2901D01*
X750Y2901D01*
X751Y2901D01*
X752Y2901D01*
X753Y2901D01*
X754Y2901D01*
X755Y2901D01*
X756Y2901D01*
X757Y2901D01*
X758Y2901D01*
X759Y2901D01*
X760Y2901D01*
X761Y2901D01*
X762Y2901D01*
X763Y2901D01*
X764Y2901D01*
X765Y2901D01*
X766Y2901D01*
X767Y2901D01*
X768Y2901D01*
X769Y2901D01*
X770Y2901D01*
X771Y2901D01*
X772Y2901D01*
X773Y2901D01*
X774Y2901D01*
X775Y2901D01*
X776Y2901D01*
X777Y2901D01*
X778Y2901D01*
X779Y2901D01*
X780Y2901D01*
X781Y2901D01*
X782Y2901D01*
X783Y2901D01*
X784Y2901D01*
X785Y2901D01*
X786Y2901D01*
X787Y2901D01*
X788Y2901D01*
X789Y2901D01*
X790Y2901D01*
X791Y2901D01*
X792Y2901D01*
X793Y2901D01*
X794Y2901D01*
X795Y2901D01*
X796Y2901D01*
X797Y2901D01*
X798Y2901D01*
X799Y2901D01*
X800Y2901D01*
X801Y2901D01*
X802Y2901D01*
X803Y2901D01*
X804Y2901D01*
X805Y2901D01*
X806Y2901D01*
X807Y2901D01*
X808Y2901D01*
X809Y2901D01*
X810Y2901D01*
X811Y2901D01*
X812Y2901D01*
X813Y2901D01*
X814Y2901D01*
X815Y2901D01*
X816Y2901D01*
X817Y2901D01*
X818Y2901D01*
X819Y2901D01*
X820Y2901D01*
X821Y2901D01*
X822Y2901D01*
X823Y2901D01*
X824Y2901D01*
X825Y2901D01*
X826Y2901D01*
X827Y2901D01*
X828Y2901D01*
X829Y2901D01*
X830Y2901D01*
X831Y2901D01*
X832Y2901D01*
X833Y2901D01*
X834Y2901D01*
X835Y2901D01*
X836Y2901D01*
X837Y2901D01*
X838Y2901D01*
X839Y2901D01*
X840Y2901D01*
X841Y2901D01*
X842Y2901D01*
X843Y2901D01*
X844Y2901D01*
X845Y2901D01*
X846Y2901D01*
X847Y2901D01*
X848Y2901D01*
X849Y2901D01*
X850Y2901D01*
X851Y2901D01*
X852Y2901D01*
X853Y2901D01*
X854Y2901D01*
X855Y2901D01*
X856Y2901D01*
X857Y2901D01*
X858Y2901D01*
X859Y2901D01*
X860Y2901D01*
X861Y2901D01*
X862Y2901D01*
X863Y2901D01*
X864Y2901D01*
X865Y2901D01*
X866Y2901D01*
X867Y2901D01*
X868Y2901D01*
X869Y2901D01*
X870Y2901D01*
X871Y2901D01*
X872Y2901D01*
X873Y2901D01*
X874Y2901D01*
X875Y2901D01*
X876Y2901D01*
X877Y2901D01*
X878Y2901D01*
X879Y2901D01*
X880Y2901D01*
X881Y2901D01*
X882Y2901D01*
X883Y2901D01*
X884Y2901D01*
X885Y2901D01*
X886Y2901D01*
X887Y2901D01*
X888Y2901D01*
X889Y2901D01*
X890Y2901D01*
X891Y2901D01*
X892Y2901D01*
X893Y2901D01*
X894Y2901D01*
X895Y2901D01*
X896Y2901D01*
X897Y2901D01*
X898Y2901D01*
X899Y2901D01*
X900Y2901D01*
X901Y2901D01*
X902Y2901D01*
X903Y2901D01*
X904Y2901D01*
X905Y2901D01*
X906Y2901D01*
X907Y2901D01*
X908Y2901D01*
X909Y2901D01*
X910Y2901D01*
X911Y2901D01*
X912Y2901D01*
X913Y2901D01*
X914Y2901D01*
X915Y2901D01*
X916Y2901D01*
X917Y2901D01*
X918Y2901D01*
X919Y2901D01*
X920Y2901D01*
X921Y2901D01*
X922Y2901D01*
X923Y2901D01*
X924Y2901D01*
X925Y2901D01*
X926Y2901D01*
X927Y2901D01*
X928Y2901D01*
X929Y2901D01*
X930Y2901D01*
X931Y2901D01*
X932Y2901D01*
X933Y2901D01*
X934Y2901D01*
X935Y2901D01*
X936Y2901D01*
X937Y2901D01*
X938Y2901D01*
X939Y2901D01*
X940Y2901D01*
X941Y2901D01*
X942Y2901D01*
X943Y2901D01*
X944Y2901D01*
X945Y2901D01*
X946Y2901D01*
X947Y2901D01*
X948Y2901D01*
X949Y2901D01*
X950Y2901D01*
X951Y2901D01*
X952Y2901D01*
X953Y2901D01*
X954Y2901D01*
X955Y2901D01*
X956Y2901D01*
X957Y2901D01*
X958Y2901D01*
X959Y2901D01*
X960Y2901D01*
X961Y2901D01*
X962Y2901D01*
X963Y2901D01*
X964Y2901D01*
X965Y2901D01*
X966Y2901D01*
X967Y2901D01*
X968Y2901D01*
X969Y2901D01*
X970Y2901D01*
X971Y2901D01*
X972Y2901D01*
X973Y2901D01*
X974Y2901D01*
X975Y2901D01*
X976Y2901D01*
X977Y2901D01*
X978Y2901D01*
X979Y2901D01*
X980Y2901D01*
X981Y2901D01*
X982Y2901D01*
X983Y2901D01*
X984Y2901D01*
X985Y2901D01*
X986Y2901D01*
X987Y2901D01*
X988Y2901D01*
X989Y2901D01*
X990Y2901D01*
X991Y2901D01*
X992Y2901D01*
X993Y2901D01*
X994Y2901D01*
X995Y2901D01*
X996Y2901D01*
X997Y2901D01*
X998Y2901D01*
X999Y2901D01*
X1000Y2901D01*
X1001Y2901D01*
X1002Y2901D01*
X1003Y2901D01*
X1004Y2901D01*
X1005Y2901D01*
X1006Y2901D01*
X1007Y2901D01*
X1008Y2901D01*
X1009Y2901D01*
X1010Y2901D01*
X1011Y2901D01*
X1012Y2901D01*
X1013Y2901D01*
X1014Y2901D01*
X1015Y2901D01*
X1016Y2901D01*
X1017Y2901D01*
X1018Y2901D01*
X1019Y2901D01*
X1020Y2901D01*
X1021Y2901D01*
X1022Y2901D01*
X1023Y2901D01*
X1024Y2901D01*
X1025Y2901D01*
X1026Y2901D01*
X1027Y2901D01*
X1028Y2901D01*
X1029Y2901D01*
X1030Y2901D01*
X1031Y2901D01*
X1032Y2901D01*
X1033Y2901D01*
X1034Y2901D01*
X1035Y2901D01*
X1036Y2901D01*
X1037Y2901D01*
X1038Y2901D01*
X1039Y2901D01*
X1040Y2901D01*
X1041Y2901D01*
X1042Y2901D01*
X1043Y2901D01*
X1044Y2901D01*
X1045Y2901D01*
X1046Y2901D01*
X1047Y2901D01*
X1048Y2901D01*
X1049Y2901D01*
X1050Y2901D01*
X1051Y2901D01*
X1052Y2901D01*
X1053Y2901D01*
X1054Y2901D01*
X1055Y2901D01*
X1056Y2901D01*
X1057Y2901D01*
X1058Y2901D01*
X1059Y2901D01*
X1060Y2901D01*
X1061Y2901D01*
X1062Y2901D01*
X1063Y2901D01*
X1064Y2901D01*
X1065Y2901D01*
X1066Y2901D01*
X1067Y2901D01*
X1068Y2901D01*
X1069Y2901D01*
X1070Y2901D01*
X1071Y2901D01*
X1072Y2901D01*
X1073Y2901D01*
X1074Y2901D01*
X1075Y2901D01*
X1076Y2901D01*
X1077Y2901D01*
X1078Y2901D01*
X1079Y2901D01*
X1080Y2901D01*
X1081Y2901D01*
X1082Y2901D01*
X1083Y2901D01*
X1084Y2901D01*
X1085Y2901D01*
X1086Y2901D01*
X1087Y2901D01*
X1088Y2901D01*
X1089Y2901D01*
X1090Y2901D01*
X1091Y2901D01*
X1092Y2901D01*
X1093Y2901D01*
X1094Y2901D01*
X1095Y2901D01*
X1096Y2901D01*
X1097Y2901D01*
X1098Y2901D01*
X1099Y2901D01*
X1100Y2901D01*
X1101Y2901D01*
X1102Y2901D01*
X1103Y2901D01*
X1104Y2901D01*
X1105Y2901D01*
X1106Y2901D01*
X1107Y2901D01*
X1108Y2901D01*
X1109Y2901D01*
X1110Y2901D01*
X1111Y2901D01*
X1112Y2901D01*
X1113Y2901D01*
X1114Y2901D01*
X1115Y2901D01*
X1116Y2901D01*
X1117Y2901D01*
X1118Y2901D01*
X1119Y2901D01*
X1120Y2901D01*
X1121Y2901D01*
X1122Y2901D01*
X1123Y2901D01*
X1124Y2901D01*
X1125Y2901D01*
X1126Y2901D01*
X1127Y2901D01*
X1128Y2901D01*
X1129Y2901D01*
X1130Y2901D01*
X1131Y2901D01*
X1132Y2901D01*
X1133Y2901D01*
X1134Y2901D01*
X1135Y2901D01*
X1136Y2901D01*
X1137Y2901D01*
X1138Y2901D01*
X1139Y2901D01*
X1140Y2901D01*
X1141Y2901D01*
X1142Y2901D01*
X1143Y2901D01*
X1144Y2901D01*
X1145Y2901D01*
X1146Y2901D01*
X1147Y2901D01*
X1148Y2901D01*
X1149Y2901D01*
X1150Y2901D01*
X1151Y2901D01*
X1152Y2901D01*
X1153Y2901D01*
X1154Y2901D01*
X1155Y2901D01*
X1156Y2901D01*
X1157Y2901D01*
X1158Y2901D01*
X1159Y2901D01*
X1160Y2901D01*
X1161Y2901D01*
X1162Y2901D01*
X1163Y2901D01*
X1164Y2901D01*
X1165Y2901D01*
X1166Y2901D01*
X1167Y2901D01*
X1168Y2901D01*
X1169Y2901D01*
X1170Y2901D01*
X1171Y2901D01*
X1172Y2901D01*
X1173Y2901D01*
X1174Y2901D01*
X1175Y2901D01*
X1176Y2901D01*
X1177Y2901D01*
X1178Y2901D01*
X1179Y2901D01*
X1180Y2901D01*
X1181Y2901D01*
X1182Y2901D01*
X1183Y2901D01*
X1184Y2901D01*
X1185Y2901D01*
X1186Y2901D01*
X1187Y2901D01*
X1188Y2901D01*
X1189Y2901D01*
X1190Y2901D01*
X1191Y2901D01*
X1192Y2901D01*
X1193Y2901D01*
X1194Y2901D01*
X1195Y2901D01*
X1196Y2901D01*
X1197Y2901D01*
X1198Y2901D01*
X1199Y2901D01*
X1200Y2901D01*
X1201Y2901D01*
X1202Y2901D01*
X1203Y2901D01*
X1204Y2901D01*
X1205Y2901D01*
X1206Y2901D01*
X1207Y2901D01*
X1208Y2901D01*
X1209Y2901D01*
X1210Y2901D01*
X1211Y2901D01*
X1212Y2901D01*
X1213Y2901D01*
X1214Y2901D01*
X1215Y2901D01*
X1216Y2901D01*
X1217Y2901D01*
X1218Y2901D01*
X1219Y2901D01*
X1220Y2901D01*
X1221Y2901D01*
X1222Y2901D01*
X1223Y2901D01*
X1224Y2901D01*
X1225Y2901D01*
X1226Y2901D01*
X1227Y2901D01*
X1228Y2901D01*
X1229Y2901D01*
X1230Y2901D01*
X1231Y2901D01*
X1232Y2901D01*
X1233Y2901D01*
X1234Y2901D01*
X1235Y2901D01*
X1236Y2901D01*
X1237Y2901D01*
X1238Y2901D01*
X1239Y2901D01*
X1240Y2901D01*
X1241Y2901D01*
X1242Y2901D01*
X1243Y2901D01*
X1244Y2901D01*
X1245Y2901D01*
X1246Y2901D01*
X1247Y2901D01*
X1248Y2901D01*
X1249Y2901D01*
X1250Y2901D01*
X1251Y2901D01*
X1252Y2901D01*
X1253Y2901D01*
X1254Y2901D01*
X1255Y2901D01*
X1256Y2901D01*
X1257Y2901D01*
X1258Y2901D01*
X1259Y2901D01*
X1260Y2901D01*
X1261Y2901D01*
X1262Y2901D01*
X1263Y2901D01*
X1264Y2901D01*
X1265Y2901D01*
X1266Y2901D01*
X1267Y2901D01*
X1268Y2901D01*
X1269Y2901D01*
X1270Y2901D01*
X1271Y2901D01*
X1272Y2901D01*
X1273Y2901D01*
X1274Y2901D01*
X1275Y2901D01*
X1276Y2901D01*
X1277Y2901D01*
X1278Y2901D01*
X1279Y2901D01*
X1280Y2901D01*
X1281Y2901D01*
X1282Y2901D01*
X1283Y2901D01*
X1284Y2901D01*
X1285Y2901D01*
X1286Y2901D01*
X1287Y2901D01*
X1288Y2901D01*
X1289Y2901D01*
X1290Y2901D01*
X1291Y2901D01*
X1292Y2901D01*
X1293Y2901D01*
X1294Y2901D01*
X1295Y2901D01*
X1296Y2901D01*
X1297Y2901D01*
X1298Y2901D01*
X1299Y2901D01*
X1300Y2901D01*
X1301Y2901D01*
X1302Y2901D01*
X1303Y2901D01*
X1304Y2901D01*
X1305Y2901D01*
X1306Y2901D01*
X1307Y2901D01*
X1308Y2901D01*
X1309Y2901D01*
X1310Y2901D01*
X1311Y2901D01*
X1312Y2901D01*
X1313Y2901D01*
X1314Y2901D01*
X1315Y2901D01*
X1316Y2901D01*
X1317Y2901D01*
X1318Y2901D01*
X1319Y2901D01*
X1320Y2901D01*
X1321Y2901D01*
X1322Y2901D01*
X1323Y2901D01*
X1324Y2901D01*
X1325Y2901D01*
X1326Y2901D01*
X1327Y2901D01*
X1328Y2901D01*
X1329Y2901D01*
X1330Y2901D01*
X1331Y2901D01*
X1332Y2901D01*
X1333Y2901D01*
X1334Y2901D01*
X1335Y2901D01*
X1336Y2901D01*
X1337Y2901D01*
X1338Y2901D01*
X1339Y2901D01*
X1340Y2901D01*
X1341Y2901D01*
X1342Y2901D01*
X1343Y2901D01*
X1344Y2901D01*
X1345Y2901D01*
X1346Y2901D01*
X1347Y2901D01*
X1348Y2901D01*
X1349Y2901D01*
X1350Y2901D01*
X1351Y2901D01*
X1352Y2901D01*
X1353Y2901D01*
X1354Y2901D01*
X1355Y2901D01*
X1356Y2901D01*
X1357Y2901D01*
X1358Y2901D01*
X1359Y2901D01*
X1360Y2901D01*
X1361Y2901D01*
X1362Y2901D01*
X1363Y2901D01*
X1364Y2901D01*
X1365Y2901D01*
X1366Y2901D01*
X1367Y2901D01*
X1368Y2901D01*
X1369Y2901D01*
X1370Y2901D01*
X1371Y2901D01*
X1372Y2901D01*
X1373Y2901D01*
X1374Y2901D01*
X1375Y2901D01*
X1376Y2901D01*
X1377Y2901D01*
X1378Y2901D01*
X1379Y2901D01*
X1380Y2901D01*
X1381Y2901D01*
X1382Y2901D01*
X1383Y2901D01*
X1384Y2901D01*
X1385Y2901D01*
X1386Y2901D01*
X1387Y2901D01*
X1388Y2901D01*
X1389Y2901D01*
X1390Y2901D01*
X1391Y2901D01*
X1392Y2901D01*
X1393Y2901D01*
X1394Y2901D01*
X1395Y2901D01*
X1396Y2901D01*
X1397Y2901D01*
X1398Y2901D01*
X1399Y2901D01*
X1400Y2901D01*
X1401Y2901D01*
X1402Y2901D01*
X1403Y2901D01*
X1404Y2901D01*
X1405Y2901D01*
X1406Y2901D01*
X1407Y2901D01*
X1408Y2901D01*
X1409Y2901D01*
X1410Y2901D01*
X1411Y2901D01*
X1412Y2901D01*
X1413Y2901D01*
X1414Y2901D01*
X1415Y2901D01*
X1416Y2901D01*
X1417Y2901D01*
X1418Y2901D01*
X1419Y2901D01*
X1420Y2901D01*
X1421Y2901D01*
X1422Y2901D01*
X1423Y2901D01*
X1424Y2901D01*
X1425Y2901D01*
X1426Y2901D01*
X1427Y2901D01*
X1428Y2901D01*
X1429Y2901D01*
X1430Y2901D01*
X1431Y2901D01*
X1432Y2901D01*
X1433Y2901D01*
X1434Y2901D01*
X1435Y2901D01*
X1436Y2901D01*
X1437Y2901D01*
X1438Y2901D01*
X1439Y2901D01*
X1440Y2901D01*
X1441Y2901D01*
X1442Y2901D01*
X1443Y2901D01*
X1444Y2901D01*
X1445Y2901D01*
X1446Y2901D01*
X1447Y2901D01*
X1448Y2901D01*
X1449Y2901D01*
X1450Y2901D01*
X1451Y2901D01*
X1452Y2901D01*
X1453Y2901D01*
X1454Y2901D01*
X1455Y2901D01*
X1456Y2901D01*
X1457Y2901D01*
X1458Y2901D01*
X1459Y2901D01*
X1460Y2901D01*
X1461Y2901D01*
X1462Y2901D01*
X1463Y2901D01*
X1464Y2901D01*
X1465Y2901D01*
X1466Y2901D01*
X1467Y2901D01*
X1468Y2901D01*
X1469Y2901D01*
X1470Y2901D01*
X1471Y2901D01*
X1472Y2901D01*
X1473Y2901D01*
X1474Y2901D01*
X1475Y2901D01*
X1476Y2901D01*
X1477Y2901D01*
X1478Y2901D01*
X1479Y2901D01*
X1480Y2901D01*
X1481Y2901D01*
X1482Y2901D01*
X1483Y2901D01*
X1484Y2901D01*
X1485Y2901D01*
X1486Y2901D01*
X1487Y2901D01*
X1488Y2901D01*
X1489Y2901D01*
X1490Y2901D01*
X1491Y2901D01*
X1492Y2901D01*
X1493Y2901D01*
X1494Y2901D01*
X1495Y2901D01*
X1496Y2901D01*
X1497Y2901D01*
X1498Y2901D01*
X1499Y2901D01*
X1500Y2901D01*
X1501Y2901D01*
X1502Y2901D01*
X1503Y2901D01*
X1504Y2901D01*
X1505Y2901D01*
X1506Y2901D01*
X1507Y2901D01*
X1508Y2901D01*
X1509Y2901D01*
X1510Y2901D01*
X1511Y2901D01*
X1512Y2901D01*
X1513Y2901D01*
X1514Y2901D01*
X1515Y2901D01*
X1516Y2901D01*
X1517Y2901D01*
X1518Y2901D01*
X1519Y2901D01*
X1520Y2901D01*
X1521Y2901D01*
X1522Y2901D01*
X1523Y2901D01*
X1524Y2901D01*
X1525Y2901D01*
X1526Y2901D01*
X1527Y2901D01*
X1528Y2901D01*
X1529Y2901D01*
X1530Y2901D01*
X1531Y2901D01*
X1532Y2901D01*
X1533Y2901D01*
X1534Y2901D01*
X1535Y2901D01*
X1536Y2901D01*
X1537Y2901D01*
X1538Y2901D01*
X1539Y2901D01*
X1540Y2901D01*
X1541Y2901D01*
X1542Y2901D01*
X1543Y2901D01*
X1544Y2901D01*
X1545Y2901D01*
X1546Y2901D01*
X1547Y2901D01*
X1548Y2901D01*
X1549Y2901D01*
X1550Y2901D01*
X1551Y2901D01*
X1552Y2901D01*
X1553Y2901D01*
X1554Y2901D01*
X1555Y2901D01*
X1556Y2901D01*
X1557Y2901D01*
X1558Y2901D01*
X1559Y2901D01*
X1560Y2901D01*
X1561Y2901D01*
X1562Y2901D01*
X1563Y2901D01*
X1564Y2901D01*
X1565Y2901D01*
X1566Y2901D01*
X1567Y2901D01*
X1568Y2901D01*
X1569Y2901D01*
X1570Y2901D01*
X1571Y2901D01*
X1572Y2901D01*
X1573Y2901D01*
X1574Y2901D01*
X1575Y2901D01*
X1576Y2901D01*
X1577Y2901D01*
X1578Y2901D01*
X1579Y2901D01*
X1580Y2901D01*
X1581Y2901D01*
X1582Y2901D01*
X1583Y2901D01*
X1584Y2901D01*
X1585Y2901D01*
X1586Y2901D01*
X1587Y2901D01*
X1588Y2901D01*
X1589Y2901D01*
X1590Y2901D01*
X1591Y2901D01*
X1592Y2901D01*
X1593Y2901D01*
X1594Y2901D01*
X1595Y2901D01*
X1596Y2901D01*
X1597Y2901D01*
X1598Y2901D01*
X1599Y2901D01*
X1600Y2901D01*
X1601Y2901D01*
X1602Y2901D01*
X1603Y2901D01*
X1604Y2901D01*
X1605Y2901D01*
X1606Y2901D01*
X1607Y2901D01*
X1608Y2901D01*
X1609Y2901D01*
X1610Y2901D01*
X1611Y2901D01*
X1612Y2901D01*
X1613Y2901D01*
X1614Y2901D01*
X1615Y2901D01*
X1616Y2901D01*
X1617Y2901D01*
X1618Y2901D01*
X1619Y2901D01*
X1620Y2901D01*
X1621Y2901D01*
X1622Y2901D01*
X1623Y2901D01*
X1624Y2901D01*
X1625Y2901D01*
X1626Y2901D01*
X1627Y2901D01*
X1628Y2901D01*
X1629Y2901D01*
X1630Y2901D01*
X1631Y2901D01*
X1632Y2901D01*
X1633Y2901D01*
X1634Y2901D01*
X1635Y2901D01*
X1636Y2901D01*
X1637Y2901D01*
X1638Y2901D01*
X1639Y2901D01*
X1640Y2901D01*
X1641Y2901D01*
X1642Y2901D01*
X1643Y2901D01*
X1644Y2901D01*
X1645Y2901D01*
X1646Y2901D01*
X1647Y2901D01*
X1648Y2901D01*
X1649Y2901D01*
X1650Y2901D01*
X1651Y2901D01*
X1652Y2901D01*
X1653Y2901D01*
X1654Y2901D01*
X1655Y2901D01*
X1656Y2901D01*
X1657Y2901D01*
X1658Y2901D01*
X1659Y2901D01*
X1660Y2901D01*
X1661Y2901D01*
X1662Y2901D01*
X1663Y2901D01*
X1664Y2901D01*
X1665Y2901D01*
X1666Y2901D01*
X1667Y2901D01*
X1668Y2901D01*
X1669Y2901D01*
X1670Y2901D01*
X1671Y2901D01*
X1672Y2901D01*
X1673Y2901D01*
X1674Y2901D01*
X1675Y2901D01*
X1676Y2901D01*
X1677Y2901D01*
X1678Y2901D01*
X1679Y2901D01*
X1680Y2901D01*
X1681Y2901D01*
X1682Y2901D01*
X1683Y2901D01*
X1684Y2901D01*
X1685Y2901D01*
X1686Y2901D01*
X1687Y2901D01*
X1688Y2901D01*
X1689Y2901D01*
X1690Y2901D01*
X1691Y2901D01*
X1692Y2901D01*
X1693Y2901D01*
X1694Y2901D01*
X1695Y2901D01*
X1696Y2901D01*
X1697Y2901D01*
X1698Y2901D01*
X1699Y2901D01*
X1700Y2901D01*
X1701Y2901D01*
X1702Y2901D01*
X1703Y2901D01*
X1704Y2901D01*
X1705Y2901D01*
X1706Y2901D01*
X1707Y2901D01*
X1708Y2901D01*
X1709Y2901D01*
X1710Y2901D01*
X1711Y2901D01*
X1712Y2901D01*
X1713Y2901D01*
X1714Y2901D01*
X1715Y2901D01*
X1716Y2901D01*
X1717Y2901D01*
X1718Y2901D01*
X1719Y2901D01*
X1720Y2901D01*
X1721Y2901D01*
X1722Y2901D01*
X1723Y2901D01*
X1724Y2901D01*
X1725Y2901D01*
X1726Y2901D01*
X1727Y2901D01*
X1728Y2901D01*
X1729Y2901D01*
X1730Y2901D01*
X1731Y2901D01*
X1732Y2901D01*
X1733Y2901D01*
X1734Y2901D01*
X1735Y2901D01*
X1736Y2901D01*
X1737Y2901D01*
X1738Y2901D01*
X1739Y2901D01*
X1740Y2901D01*
X1741Y2901D01*
X1742Y2901D01*
X1743Y2901D01*
X1744Y2901D01*
X1745Y2901D01*
X1746Y2901D01*
X1747Y2901D01*
X1748Y2901D01*
X1749Y2901D01*
X1750Y2901D01*
X1751Y2901D01*
X1752Y2901D01*
X1753Y2901D01*
X1754Y2901D01*
X1755Y2901D01*
X1756Y2901D01*
X1757Y2901D01*
X1758Y2901D01*
X1759Y2901D01*
X1760Y2901D01*
X1761Y2901D01*
X1762Y2901D01*
X1763Y2901D01*
X1764Y2901D01*
X1765Y2901D01*
X1766Y2901D01*
X1767Y2901D01*
X1768Y2901D01*
X1769Y2901D01*
X1770Y2901D01*
X1771Y2901D01*
X1772Y2901D01*
X1773Y2901D01*
X1774Y2901D01*
X1775Y2901D01*
X1776Y2901D01*
X1777Y2901D01*
X1778Y2901D01*
X1779Y2901D01*
X1780Y2901D01*
X1781Y2901D01*
X1782Y2901D01*
X1783Y2901D01*
X1784Y2901D01*
X1785Y2901D01*
X1786Y2901D01*
X1787Y2901D01*
X1788Y2901D01*
X1789Y2901D01*
X1790Y2901D01*
X1791Y2901D01*
X1792Y2901D01*
X1793Y2901D01*
X1794Y2901D01*
X1795Y2901D01*
X1796Y2901D01*
X1797Y2901D01*
X1798Y2901D01*
X1799Y2901D01*
X1800Y2901D01*
X1801Y2901D01*
X1802Y2901D01*
X1803Y2901D01*
X1804Y2901D01*
X1805Y2901D01*
X1806Y2901D01*
X1807Y2901D01*
X1808Y2901D01*
X1809Y2901D01*
X1810Y2901D01*
X1811Y2901D01*
X1812Y2901D01*
X1813Y2901D01*
X1814Y2901D01*
X1815Y2901D01*
X1816Y2901D01*
X1817Y2901D01*
X1818Y2901D01*
X1819Y2901D01*
X1820Y2901D01*
X1821Y2901D01*
X1822Y2901D01*
X1823Y2901D01*
X1824Y2901D01*
X1825Y2901D01*
X1826Y2901D01*
X1827Y2901D01*
X1828Y2901D01*
X1829Y2901D01*
X1830Y2901D01*
X1831Y2901D01*
X1832Y2901D01*
X1833Y2901D01*
X1834Y2901D01*
X1835Y2901D01*
X1836Y2901D01*
X1837Y2901D01*
X1838Y2901D01*
X1839Y2901D01*
X1840Y2901D01*
X1841Y2901D01*
X1842Y2901D01*
X1843Y2901D01*
X1844Y2901D01*
X1845Y2901D01*
X1846Y2901D01*
X1847Y2901D01*
X1848Y2901D01*
X1849Y2901D01*
X1850Y2901D01*
X1851Y2901D01*
X1852Y2901D01*
X1853Y2901D01*
X1854Y2901D01*
X1855Y2901D01*
X1856Y2901D01*
X1857Y2901D01*
X1858Y2901D01*
X1859Y2901D01*
X1860Y2901D01*
X1861Y2901D01*
X1862Y2901D01*
X1863Y2901D01*
X1864Y2901D01*
X1865Y2901D01*
X1866Y2901D01*
X1867Y2901D01*
X1868Y2901D01*
X1869Y2901D01*
X1870Y2901D01*
X1871Y2901D01*
X1872Y2901D01*
X1873Y2901D01*
X1874Y2901D01*
X1875Y2901D01*
X1876Y2901D01*
X1877Y2901D01*
X1878Y2901D01*
X1879Y2901D01*
X1880Y2901D01*
X1881Y2901D01*
X1882Y2901D01*
X1883Y2901D01*
X1884Y2901D01*
X1885Y2901D01*
X1886Y2901D01*
X1887Y2901D01*
X1888Y2901D01*
X1889Y2901D01*
X1890Y2901D01*
X1891Y2901D01*
X1892Y2901D01*
X1893Y2901D01*
X1894Y2901D01*
X1895Y2901D01*
X1896Y2901D01*
X1897Y2901D01*
X1898Y2901D01*
X1899Y2901D01*
X1900Y2901D01*
X1901Y2901D01*
X1902Y2901D01*
X1903Y2901D01*
X1904Y2901D01*
X1905Y2901D01*
X1906Y2901D01*
X1907Y2901D01*
X1908Y2901D01*
X1909Y2901D01*
X1910Y2901D01*
X1911Y2901D01*
X1912Y2901D01*
X1913Y2901D01*
X1914Y2901D01*
X1915Y2901D01*
X1916Y2901D01*
X1917Y2901D01*
X1918Y2901D01*
X1919Y2901D01*
X1920Y2901D01*
X1921Y2901D01*
X1922Y2901D01*
X1923Y2901D01*
X1924Y2901D01*
X1925Y2901D01*
X1926Y2901D01*
X1927Y2901D01*
X1928Y2901D01*
X1929Y2901D01*
X1930Y2901D01*
X1931Y2901D01*
X1932Y2901D01*
X1933Y2901D01*
X1934Y2901D01*
X1935Y2901D01*
X1936Y2901D01*
X1937Y2901D01*
X1938Y2901D01*
X1939Y2901D01*
X1940Y2901D01*
X1941Y2901D01*
X1942Y2901D01*
X1943Y2901D01*
X1944Y2901D01*
X1945Y2901D01*
X1946Y2901D01*
X1947Y2901D01*
X1948Y2901D01*
X1949Y2901D01*
X1950Y2901D01*
X1951Y2901D01*
X1952Y2901D01*
X1953Y2901D01*
X1954Y2901D01*
X1955Y2901D01*
X1956Y2901D01*
X1957Y2901D01*
X1958Y2901D01*
X1959Y2901D01*
X1960Y2901D01*
X1961Y2901D01*
X1962Y2901D01*
X1963Y2901D01*
X1964Y2901D01*
X1965Y2901D01*
X1966Y2901D01*
X1967Y2901D01*
X1968Y2901D01*
X1969Y2901D01*
X1970Y2901D01*
X1971Y2901D01*
X1972Y2901D01*
X1973Y2901D01*
X1974Y2901D01*
X1975Y2901D01*
X1976Y2901D01*
X1977Y2901D01*
X1978Y2901D01*
X1979Y2901D01*
X1980Y2901D01*
X1981Y2901D01*
X1982Y2901D01*
X1983Y2901D01*
X1984Y2901D01*
X1985Y2901D01*
X1986Y2901D01*
X1987Y2901D01*
X1988Y2901D01*
X1989Y2901D01*
X1990Y2901D01*
X1991Y2901D01*
X1992Y2901D01*
X1993Y2901D01*
X1994Y2901D01*
X1995Y2901D01*
X1996Y2901D01*
X1997Y2901D01*
X1998Y2901D01*
X1999Y2901D01*
X2000Y2901D01*
X2001Y2901D01*
X2002Y2901D01*
X2003Y2901D01*
X2004Y2901D01*
X2005Y2901D01*
X2006Y2901D01*
X2007Y2901D01*
X2008Y2901D01*
X2009Y2901D01*
X2010Y2901D01*
X2011Y2901D01*
X2012Y2901D01*
X2013Y2901D01*
X2014Y2901D01*
X2015Y2901D01*
X2016Y2901D01*
X2017Y2901D01*
X2018Y2901D01*
X2019Y2901D01*
X2020Y2901D01*
X2021Y2901D01*
X2022Y2901D01*
X2023Y2901D01*
X2024Y2901D01*
X2025Y2901D01*
X2026Y2901D01*
X2027Y2901D01*
X2028Y2901D01*
X2029Y2901D01*
X2030Y2901D01*
X2031Y2901D01*
X2032Y2901D01*
X2033Y2901D01*
X2034Y2901D01*
X2035Y2901D01*
X2036Y2901D01*
X2037Y2901D01*
X2038Y2901D01*
X2039Y2901D01*
X2040Y2901D01*
X2041Y2901D01*
X2042Y2901D01*
X2043Y2901D01*
X2044Y2901D01*
X2045Y2901D01*
X2046Y2901D01*
X2047Y2901D01*
X2048Y2901D01*
X2049Y2901D01*
X2050Y2901D01*
X2051Y2901D01*
X2052Y2901D01*
X2053Y2901D01*
X2054Y2901D01*
X2055Y2901D01*
X2056Y2901D01*
X2057Y2901D01*
X2058Y2901D01*
X2059Y2901D01*
X2060Y2901D01*
X2061Y2901D01*
X2062Y2901D01*
X2063Y2901D01*
X2064Y2901D01*
X2065Y2901D01*
X2066Y2901D01*
X2067Y2901D01*
X2068Y2901D01*
X2069Y2901D01*
X2070Y2901D01*
X2071Y2901D01*
X2072Y2901D01*
X2073Y2901D01*
X2074Y2901D01*
X2075Y2901D01*
X2076Y2901D01*
X2077Y2901D01*
X2078Y2901D01*
X2079Y2901D01*
X2080Y2901D01*
X2081Y2901D01*
X2082Y2901D01*
X2083Y2901D01*
X2084Y2901D01*
X2085Y2901D01*
X2086Y2901D01*
X2087Y2901D01*
X2088Y2901D01*
X2089Y2901D01*
X2090Y2901D01*
X2091Y2901D01*
X2092Y2901D01*
X2093Y2901D01*
X2094Y2901D01*
X2095Y2901D01*
X2096Y2901D01*
X2097Y2901D01*
X2098Y2901D01*
X2099Y2901D01*
X2100Y2901D01*
X2101Y2901D01*
X2102Y2901D01*
X2103Y2901D01*
X2104Y2901D01*
X2105Y2901D01*
X2106Y2901D01*
X2107Y2901D01*
X2108Y2901D01*
X2109Y2901D01*
X2110Y2901D01*
X2111Y2901D01*
X2112Y2901D01*
X2113Y2901D01*
X2114Y2901D01*
X2115Y2901D01*
X2116Y2901D01*
X2117Y2901D01*
X2118Y2901D01*
X2119Y2901D01*
X2120Y2901D01*
X2121Y2901D01*
X2122Y2901D01*
X2123Y2901D01*
X2124Y2901D01*
X2125Y2901D01*
X2126Y2901D01*
X2127Y2901D01*
X2128Y2901D01*
X2129Y2901D01*
X2130Y2901D01*
X2131Y2901D01*
X2132Y2901D01*
X2133Y2901D01*
X2134Y2901D01*
X2135Y2901D01*
X2136Y2901D01*
X2137Y2901D01*
X2138Y2901D01*
X2139Y2901D01*
X2140Y2901D01*
X2141Y2901D01*
X2142Y2901D01*
X2143Y2901D01*
X2144Y2901D01*
X2145Y2901D01*
X2146Y2901D01*
X2147Y2901D01*
X2148Y2901D01*
X2149Y2901D01*
X2150Y2901D01*
X2151Y2901D01*
X2152Y2901D01*
X2153Y2901D01*
X2154Y2901D01*
X2155Y2901D01*
X2156Y2901D01*
X2157Y2901D01*
X2158Y2901D01*
X2159Y2901D01*
X2160Y2901D01*
X2161Y2901D01*
X2162Y2901D01*
X2163Y2901D01*
X2164Y2901D01*
X2165Y2901D01*
X2166Y2901D01*
X2167Y2901D01*
X2168Y2901D01*
X2169Y2901D01*
X2170Y2901D01*
X2171Y2901D01*
X2172Y2901D01*
X2173Y2901D01*
X2174Y2901D01*
X2175Y2901D01*
X2176Y2901D01*
X2177Y2901D01*
X2178Y2901D01*
X2179Y2901D01*
X2180Y2901D01*
X2181Y2901D01*
X2182Y2901D01*
X2183Y2901D01*
X2184Y2901D01*
X2185Y2901D01*
X2186Y2901D01*
X2187Y2901D01*
X2188Y2901D01*
X2189Y2901D01*
X2190Y2901D01*
X2191Y2901D01*
X2192Y2901D01*
X2193Y2901D01*
X2194Y2901D01*
X2195Y2901D01*
X2196Y2901D01*
X2197Y2901D01*
X2198Y2901D01*
X2199Y2901D01*
X2200Y2901D01*
X2201Y2901D01*
X2202Y2901D01*
X2203Y2901D01*
X2204Y2901D01*
X2205Y2901D01*
X2206Y2901D01*
X2207Y2901D01*
X2208Y2901D01*
X2209Y2901D01*
X2210Y2901D01*
X2211Y2901D01*
X2212Y2901D01*
X2213Y2901D01*
X2214Y2901D01*
X2215Y2901D01*
X2216Y2901D01*
X2217Y2901D01*
X2218Y2901D01*
X2219Y2901D01*
X2220Y2901D01*
X2221Y2901D01*
X2222Y2901D01*
X2223Y2901D01*
X2224Y2901D01*
X2225Y2901D01*
X2226Y2901D01*
X2227Y2901D01*
X2228Y2901D01*
X2229Y2901D01*
X2230Y2901D01*
X2231Y2901D01*
X2232Y2901D01*
X2233Y2901D01*
X2234Y2901D01*
X2235Y2901D01*
X2236Y2901D01*
X2237Y2901D01*
X2238Y2901D01*
X2239Y2901D01*
X2240Y2901D01*
X2241Y2901D01*
X2242Y2901D01*
X2243Y2901D01*
X2244Y2901D01*
X2245Y2901D01*
X2246Y2901D01*
X2247Y2901D01*
X2248Y2901D01*
X2249Y2901D01*
X2250Y2901D01*
X2251Y2901D01*
X2252Y2901D01*
X2253Y2901D01*
X2254Y2901D01*
X2255Y2901D01*
X2256Y2901D01*
X2257Y2901D01*
X2258Y2901D01*
X2259Y2901D01*
X2260Y2901D01*
X2261Y2901D01*
X2262Y2901D01*
X2263Y2901D01*
X2264Y2901D01*
X2265Y2901D01*
X2266Y2901D01*
X2267Y2901D01*
X2268Y2901D01*
X2269Y2901D01*
X2270Y2901D01*
X2271Y2901D01*
X2272Y2901D01*
X2273Y2901D01*
X2274Y2901D01*
X2275Y2901D01*
X2276Y2901D01*
X2277Y2901D01*
X2278Y2901D01*
X2279Y2901D01*
X2280Y2901D01*
X2281Y2901D01*
X2282Y2901D01*
X2283Y2901D01*
X2284Y2901D01*
X2285Y2901D01*
X2286Y2901D01*
X2287Y2901D01*
X2288Y2901D01*
X2289Y2901D01*
X2290Y2901D01*
X2291Y2901D01*
X2292Y2901D01*
X2293Y2901D01*
X2294Y2901D01*
X2295Y2901D01*
X2296Y2901D01*
X2297Y2901D01*
X2298Y2901D01*
X2299Y2901D01*
X2300Y2901D01*
X2301Y2901D01*
X2302Y2901D01*
X2303Y2901D01*
X2304Y2901D01*
X2305Y2901D01*
X2306Y2901D01*
X2307Y2901D01*
X2308Y2901D01*
X2309Y2901D01*
X2310Y2901D01*
X2311Y2901D01*
X2312Y2901D01*
X2313Y2901D01*
X2314Y2901D01*
X2315Y2901D01*
X2316Y2901D01*
X2317Y2901D01*
X2318Y2901D01*
X2319Y2901D01*
X2320Y2901D01*
X2321Y2901D01*
X2322Y2901D01*
X2323Y2901D01*
X2324Y2901D01*
X2325Y2901D01*
X2326Y2901D01*
X2327Y2901D01*
X2328Y2901D01*
X2329Y2901D01*
X2330Y2901D01*
X2331Y2901D01*
X2332Y2901D01*
X2333Y2901D01*
X2334Y2901D01*
X2335Y2901D01*
X2336Y2901D01*
X2337Y2901D01*
X2338Y2901D01*
X2339Y2901D01*
X2340Y2901D01*
X2341Y2901D01*
X2342Y2901D01*
X2343Y2901D01*
X2344Y2901D01*
X2345Y2901D01*
X2346Y2901D01*
X2347Y2901D01*
X2348Y2901D01*
X2349Y2901D01*
X2350Y2901D01*
X2351Y2901D01*
X2352Y2901D01*
X2353Y2901D01*
X2354Y2901D01*
X2355Y2901D01*
X2356Y2901D01*
X2357Y2901D01*
X2358Y2901D01*
X2359Y2901D01*
X2360Y2901D01*
X2361Y2901D01*
X2362Y2901D01*
X2363Y2901D01*
X2364Y2901D01*
X2365Y2901D01*
X2366Y2901D01*
X2367Y2901D01*
X2368Y2901D01*
X2369Y2901D01*
X2370Y2901D01*
X2371Y2901D01*
X2372Y2901D01*
X2373Y2901D01*
X2374Y2901D01*
X2375Y2901D01*
X2376Y2901D01*
X2377Y2901D01*
X2378Y2901D01*
X2379Y2901D01*
X2380Y2901D01*
X2381Y2901D01*
X2382Y2901D01*
X2383Y2901D01*
X2384Y2901D01*
X2385Y2901D01*
X2386Y2901D01*
X2387Y2901D01*
X2388Y2901D01*
X2389Y2901D01*
X2390Y2901D01*
X2391Y2901D01*
X2392Y2901D01*
X2393Y2901D01*
X2394Y2901D01*
X2395Y2901D01*
X2396Y2901D01*
X2397Y2901D01*
X2398Y2901D01*
X2399Y2901D01*
X2400Y2901D01*
X2401Y2901D01*
X2402Y2901D01*
X2403Y2901D01*
X2404Y2901D01*
X2405Y2901D01*
X2406Y2901D01*
X2407Y2901D01*
X2408Y2901D01*
X2409Y2901D01*
X2410Y2901D01*
X2411Y2901D01*
X2412Y2901D01*
X2413Y2901D01*
X2414Y2901D01*
X2415Y2901D01*
X2416Y2901D01*
X2417Y2901D01*
X2418Y2901D01*
X2419Y2901D01*
X2420Y2901D01*
X2421Y2901D01*
X2422Y2901D01*
X2423Y2901D01*
X2424Y2901D01*
X2425Y2901D01*
X2426Y2901D01*
X2427Y2901D01*
X2428Y2901D01*
X2429Y2901D01*
X2430Y2901D01*
X2431Y2901D01*
X2432Y2901D01*
X2433Y2901D01*
X2434Y2901D01*
X2435Y2901D01*
X2436Y2901D01*
X2437Y2901D01*
X2438Y2901D01*
X2439Y2901D01*
X2440Y2901D01*
X2441Y2901D01*
X2442Y2901D01*
X2443Y2901D01*
X2444Y2901D01*
X2445Y2901D01*
X2446Y2901D01*
X2447Y2901D01*
X2448Y2901D01*
X2449Y2901D01*
X2450Y2901D01*
X2451Y2901D01*
X2452Y2901D01*
X2453Y2901D01*
X2454Y2901D01*
X2455Y2901D01*
X2456Y2901D01*
X2457Y2901D01*
X2458Y2901D01*
X2459Y2901D01*
X2460Y2901D01*
X2461Y2901D01*
X2462Y2901D01*
X2463Y2901D01*
X2464Y2901D01*
X2465Y2901D01*
X2466Y2901D01*
X2467Y2901D01*
X2468Y2901D01*
X2469Y2901D01*
X2470Y2901D01*
X2471Y2901D01*
X2472Y2901D01*
X2473Y2901D01*
X2474Y2901D01*
X2475Y2901D01*
X2476Y2901D01*
X2477Y2901D01*
X2478Y2901D01*
X2479Y2901D01*
X2480Y2901D01*
X2481Y2901D01*
X2482Y2901D01*
X2483Y2901D01*
X2484Y2901D01*
X2485Y2901D01*
X2486Y2901D01*
X2487Y2901D01*
X2488Y2901D01*
X2489Y2901D01*
X2490Y2901D01*
X2491Y2901D01*
X2492Y2901D01*
X2493Y2901D01*
X2494Y2901D01*
X2495Y2901D01*
X2496Y2901D01*
X2497Y2901D01*
X2498Y2901D01*
X2499Y2901D01*
X2500Y2901D01*
X2501Y2901D01*
X2502Y2901D01*
X2503Y2901D01*
X2504Y2901D01*
X2505Y2901D01*
X2506Y2901D01*
X2507Y2901D01*
X2508Y2901D01*
X2509Y2901D01*
X2510Y2901D01*
X2511Y2901D01*
X2512Y2901D01*
X2513Y2901D01*
X2514Y2901D01*
X2515Y2901D01*
X2516Y2901D01*
X2517Y2901D01*
X2518Y2901D01*
X2519Y2901D01*
X2520Y2901D01*
X2521Y2901D01*
X2522Y2901D01*
X2523Y2901D01*
X2524Y2901D01*
X2525Y2901D01*
X2526Y2901D01*
X2527Y2901D01*
X2528Y2901D01*
X2529Y2901D01*
X2530Y2901D01*
X2531Y2901D01*
X2532Y2901D01*
X2533Y2901D01*
X2534Y2901D01*
X2535Y2901D01*
X2536Y2901D01*
X2537Y2901D01*
X2538Y2901D01*
X2539Y2901D01*
X2540Y2901D01*
X2541Y2901D01*
X2542Y2901D01*
X2543Y2901D01*
X2544Y2901D01*
X2545Y2901D01*
X2546Y2901D01*
X2547Y2901D01*
X2548Y2901D01*
X2549Y2901D01*
X2550Y2901D01*
X2551Y2901D01*
X2552Y2901D01*
X2553Y2901D01*
X2554Y2901D01*
X2555Y2901D01*
X2556Y2901D01*
X2557Y2901D01*
X2558Y2901D01*
X2559Y2901D01*
X2560Y2901D01*
X2561Y2901D01*
X2562Y2901D01*
X2563Y2901D01*
X2564Y2901D01*
X2565Y2901D01*
X2566Y2901D01*
X2567Y2901D01*
X2568Y2901D01*
X2569Y2901D01*
X2570Y2901D01*
X2571Y2901D01*
X2572Y2901D01*
X2573Y2901D01*
X2574Y2901D01*
X2575Y2901D01*
X2576Y2901D01*
X2577Y2901D01*
X2578Y2901D01*
X2579Y2901D01*
X2580Y2901D01*
X2581Y2901D01*
X2582Y2901D01*
X2583Y2901D01*
X2584Y2901D01*
X2585Y2901D01*
X2586Y2901D01*
X2587Y2901D01*
X2588Y2901D01*
X2589Y2901D01*
X2590Y2901D01*
X2591Y2901D01*
X2592Y2901D01*
X2593Y2901D01*
X2594Y2901D01*
X2595Y2901D01*
X2596Y2901D01*
X2597Y2901D01*
X2598Y2901D01*
X2599Y2901D01*
X2600Y2901D01*
X2601Y2901D01*
X2602Y2901D01*
X2603Y2901D01*
X2604Y2901D01*
X2605Y2901D01*
X2606Y2901D01*
X2607Y2901D01*
X2608Y2901D01*
X2609Y2901D01*
X2610Y2901D01*
X2611Y2901D01*
X2612Y2901D01*
X2613Y2901D01*
X2614Y2901D01*
X2615Y2901D01*
X2616Y2901D01*
X2617Y2901D01*
X2618Y2901D01*
X2619Y2901D01*
X2620Y2901D01*
X2621Y2901D01*
X2622Y2901D01*
X2623Y2901D01*
X2624Y2901D01*
X2625Y2901D01*
X2626Y2901D01*
X2627Y2901D01*
X2628Y2901D01*
X2629Y2901D01*
X2630Y2901D01*
X2631Y2901D01*
X2632Y2901D01*
X2633Y2901D01*
X2634Y2901D01*
X2635Y2901D01*
X2636Y2901D01*
X2637Y2901D01*
X2638Y2901D01*
X2639Y2901D01*
X2640Y2901D01*
X2641Y2901D01*
X2642Y2901D01*
X2643Y2901D01*
X2644Y2901D01*
X2645Y2901D01*
X2646Y2901D01*
X2647Y2901D01*
X2648Y2901D01*
X2649Y2901D01*
X2650Y2901D01*
X2651Y2901D01*
X2652Y2901D01*
X2653Y2901D01*
X2654Y2901D01*
X2655Y2901D01*
X2656Y2901D01*
X2657Y2901D01*
X2658Y2901D01*
X2659Y2901D01*
X2660Y2901D01*
X2661Y2901D01*
X2662Y2901D01*
X2663Y2901D01*
X2664Y2901D01*
X2665Y2901D01*
X2666Y2901D01*
X2667Y2901D01*
X2668Y2901D01*
X2669Y2901D01*
X2670Y2901D01*
X2671Y2901D01*
X2672Y2901D01*
X2673Y2901D01*
X2674Y2901D01*
X2675Y2901D01*
X2676Y2901D01*
X2677Y2901D01*
X2678Y2901D01*
X2679Y2901D01*
X2680Y2901D01*
X2681Y2901D01*
X2682Y2901D01*
X2683Y2901D01*
X2684Y2901D01*
X2685Y2901D01*
X2686Y2901D01*
X2687Y2901D01*
X2688Y2901D01*
X2689Y2901D01*
X2690Y2901D01*
X2691Y2901D01*
X2692Y2901D01*
X2693Y2901D01*
X2694Y2901D01*
X2695Y2901D01*
X2696Y2901D01*
X2697Y2901D01*
X2698Y2901D01*
X2699Y2901D01*
X2700Y2901D01*
X2701Y2901D01*
X2702Y2901D01*
X2703Y2901D01*
X2704Y2901D01*
X2705Y2901D01*
X2706Y2901D01*
X2707Y2901D01*
X2708Y2901D01*
X2709Y2901D01*
X2710Y2901D01*
X2711Y2901D01*
X2712Y2901D01*
X2713Y2901D01*
X2714Y2901D01*
X2715Y2901D01*
X2716Y2901D01*
X2717Y2901D01*
X2718Y2901D01*
X2719Y2901D01*
X2720Y2901D01*
X2721Y2901D01*
X2722Y2901D01*
X2723Y2901D01*
X2724Y2901D01*
X2725Y2901D01*
X2726Y2901D01*
X2727Y2901D01*
X2728Y2901D01*
X2729Y2901D01*
X2730Y2901D01*
X2731Y2901D01*
X2732Y2901D01*
X2733Y2901D01*
X2734Y2901D01*
X2735Y2901D01*
X2736Y2901D01*
X2737Y2901D01*
X2738Y2901D01*
X2739Y2901D01*
X2740Y2901D01*
X2741Y2901D01*
X2742Y2901D01*
X2743Y2901D01*
X2744Y2901D01*
X2745Y2901D01*
X2746Y2901D01*
X2747Y2901D01*
X2748Y2901D01*
X2749Y2901D01*
X2750Y2901D01*
X2751Y2901D01*
X2752Y2901D01*
X2753Y2901D01*
X2754Y2901D01*
X2755Y2901D01*
X2756Y2901D01*
X2757Y2901D01*
X2758Y2901D01*
X2759Y2901D01*
X2760Y2901D01*
X2761Y2901D01*
X2762Y2901D01*
X2763Y2901D01*
X2764Y2901D01*
X2765Y2901D01*
X2766Y2901D01*
X2767Y2901D01*
X2768Y2901D01*
X2769Y2901D01*
X2770Y2901D01*
X2771Y2901D01*
X2772Y2901D01*
X2773Y2901D01*
X2774Y2901D01*
X2775Y2901D01*
X2776Y2901D01*
X2777Y2901D01*
X2778Y2901D01*
X2779Y2901D01*
X2780Y2901D01*
X2781Y2901D01*
X2782Y2901D01*
X2783Y2901D01*
X2784Y2901D01*
X2785Y2901D01*
X2786Y2901D01*
X2787Y2901D01*
X2788Y2901D01*
X2789Y2901D01*
X2790Y2901D01*
X2791Y2901D01*
X2792Y2901D01*
X2793Y2901D01*
X2794Y2901D01*
X2795Y2901D01*
X2796Y2901D01*
X2797Y2901D01*
X2798Y2901D01*
X2799Y2901D01*
X2800Y2901D01*
X2801Y2901D01*
X2802Y2901D01*
X2803Y2901D01*
X2804Y2901D01*
X2805Y2901D01*
X2806Y2901D01*
X2807Y2901D01*
X2808Y2901D01*
X2809Y2901D01*
X2810Y2901D01*
X2811Y2901D01*
X2812Y2901D01*
X2813Y2901D01*
X2814Y2901D01*
X2815Y2901D01*
X2816Y2901D01*
X2817Y2901D01*
X2818Y2901D01*
X2819Y2901D01*
X2820Y2901D01*
X2821Y2901D01*
X2822Y2901D01*
X2823Y2901D01*
X2824Y2901D01*
X2825Y2901D01*
X2826Y2901D01*
X2827Y2901D01*
X2828Y2901D01*
X2829Y2901D01*
X2830Y2901D01*
X2831Y2901D01*
X2832Y2901D01*
X2833Y2901D01*
X2834Y2901D01*
X2835Y2901D01*
X2836Y2901D01*
X2837Y2901D01*
X2838Y2901D01*
X2839Y2901D01*
X2840Y2901D01*
X2841Y2901D01*
X2842Y2901D01*
X2843Y2901D01*
X2844Y2901D01*
X2845Y2901D01*
X2846Y2901D01*
X2847Y2901D01*
X2848Y2901D01*
X2849Y2901D01*
X2850Y2901D01*
X2851Y2901D01*
X2852Y2901D01*
X2853Y2901D01*
X2854Y2901D01*
X2855Y2901D01*
X2856Y2901D01*
X2857Y2901D01*
X2858Y2901D01*
X2859Y2901D01*
X2860Y2901D01*
X2861Y2901D01*
X2862Y2901D01*
X2863Y2901D01*
X2864Y2901D01*
X2865Y2901D01*
X2866Y2901D01*
X2867Y2901D01*
X2868Y2901D01*
X2869Y2901D01*
X2870Y2901D01*
X2871Y2901D01*
X2872Y2901D01*
X2873Y2901D01*
X2874Y2901D01*
X2875Y2901D01*
X2876Y2901D01*
X2877Y2901D01*
X2878Y2901D01*
X2879Y2901D01*
X2880Y2901D01*
X2881Y2901D01*
X2882Y2901D01*
X2883Y2901D01*
X2884Y2901D01*
X2885Y2901D01*
X2886Y2901D01*
X2887Y2901D01*
X2888Y2901D01*
X2889Y2901D01*
X2890Y2901D01*
X2891Y2901D01*
X2892Y2901D01*
X2893Y2901D01*
X2894Y2901D01*
X2895Y2901D01*
X2896Y2901D01*
X2897Y2901D01*
X2898Y2901D01*
X2899Y2901D01*
X2900Y2901D01*
X2901Y2901D01*
X2902Y2901D01*
X2903Y2901D01*
X2904Y2901D01*
X2905Y2901D01*
X2906Y2901D01*
X2907Y2901D01*
X2908Y2901D01*
X2909Y2901D01*
X2910Y2901D01*
X2911Y2901D01*
X2912Y2901D01*
X2913Y2901D01*
X2914Y2901D01*
X2915Y2901D01*
X2916Y2901D01*
X2917Y2901D01*
X2918Y2901D01*
X2919Y2901D01*
X2920Y2901D01*
X2921Y2901D01*
X2922Y2901D01*
X2923Y2901D01*
X2924Y2901D01*
X2925Y2901D01*
X2926Y2901D01*
X2927Y2901D01*
X2928Y2901D01*
X2929Y2901D01*
X2930Y2901D01*
X2931Y2901D01*
X2932Y2901D01*
X2933Y2901D01*
X2934Y2901D01*
X2935Y2901D01*
X2936Y2901D01*
X2937Y2901D01*
X2938Y2901D01*
X2939Y2901D01*
X2940Y2901D01*
X2941Y2901D01*
X2942Y2901D01*
X2943Y2901D01*
X2944Y2901D01*
X2945Y2901D01*
X2946Y2901D01*
X2947Y2901D01*
X2948Y2901D01*
X2949Y2901D01*
X2950Y2901D01*
X2951Y2901D01*
X2952Y2901D01*
X2953Y2901D01*
X2954Y2901D01*
X2955Y2901D01*
X2956Y2901D01*
X2957Y2901D01*
X2958Y2901D01*
X2959Y2901D01*
X2960Y2901D01*
X2961Y2901D01*
X2962Y2901D01*
X2963Y2901D01*
X2964Y2901D01*
X2965Y2901D01*
X2966Y2901D01*
X2967Y2901D01*
X2968Y2901D01*
X2969Y2901D01*
X2970Y2901D01*
X2971Y2901D01*
X2972Y2901D01*
X2973Y2901D01*
X2974Y2901D01*
X2975Y2901D01*
X2976Y2901D01*
X2977Y2901D01*
X2978Y2901D01*
X2979Y2901D01*
X2980Y2901D01*
X2981Y2901D01*
X2982Y2901D01*
X2983Y2901D01*
X2984Y2901D01*
X2985Y2901D01*
X2986Y2901D01*
X2987Y2901D01*
X2988Y2901D01*
X2989Y2901D01*
X2990Y2901D01*
X2991Y2901D01*
X2992Y2901D01*
X2993Y2901D01*
X2994Y2901D01*
X2995Y2901D01*
X2996Y2901D01*
X2997Y2901D01*
X2998Y2901D01*
X2999Y2901D01*
X3000Y2901D01*
X3001Y2901D01*
X3002Y2901D01*
X3003Y2901D01*
X3004Y2901D01*
X3005Y2901D01*
X3006Y2901D01*
X3007Y2901D01*
X3008Y2901D01*
X3009Y2901D01*
X3010Y2901D01*
X3011Y2901D01*
X3012Y2901D01*
X3013Y2901D01*
X3014Y2901D01*
X3015Y2901D01*
X3016Y2901D01*
X3017Y2901D01*
X3018Y2901D01*
X3019Y2901D01*
X3020Y2901D01*
X3021Y2901D01*
X3022Y2901D01*
X3023Y2901D01*
X3024Y2901D01*
X3025Y2901D01*
X3026Y2901D01*
X3027Y2901D01*
X3028Y2901D01*
X3029Y2901D01*
X3030Y2901D01*
X3031Y2901D01*
X3032Y2901D01*
X3033Y2901D01*
X3034Y2901D01*
X3035Y2901D01*
X3036Y2901D01*
X3037Y2901D01*
X3038Y2901D01*
X3039Y2901D01*
X3040Y2901D01*
X3041Y2901D01*
X3042Y2901D01*
X3043Y2901D01*
X3044Y2901D01*
X3045Y2901D01*
X3046Y2901D01*
X3047Y2901D01*
X3048Y2901D01*
X3049Y2901D01*
X3050Y2901D01*
X3051Y2901D01*
X3052Y2901D01*
X3053Y2901D01*
X3054Y2901D01*
X3055Y2901D01*
X3056Y2901D01*
X3057Y2901D01*
X3058Y2901D01*
X3059Y2901D01*
X3060Y2901D01*
X3061Y2901D01*
X3062Y2901D01*
X3063Y2901D01*
X3064Y2901D01*
X3065Y2901D01*
X3066Y2901D01*
X3067Y2901D01*
X3068Y2901D01*
X3069Y2901D01*
X3070Y2901D01*
X3071Y2901D01*
X3072Y2901D01*
X3073Y2901D01*
X3074Y2901D01*
X3075Y2901D01*
X3076Y2901D01*
X3077Y2901D01*
X3078Y2901D01*
X3079Y2901D01*
X3080Y2901D01*
X3081Y2901D01*
X3082Y2901D01*
X3083Y2901D01*
X3084Y2901D01*
X3085Y2901D01*
X3086Y2901D01*
X3087Y2901D01*
X3088Y2901D01*
X3089Y2901D01*
X3090Y2901D01*
X3091Y2901D01*
X3092Y2901D01*
X3093Y2901D01*
X3094Y2901D01*
X3095Y2901D01*
X3096Y2901D01*
X3097Y2901D01*
X3098Y2901D01*
X3099Y2901D01*
X3100Y2901D01*
X3101Y2901D01*
X3102Y2901D01*
X3103Y2901D01*
X3104Y2901D01*
X3105Y2901D01*
X3106Y2901D01*
X3107Y2901D01*
X3108Y2901D01*
X3109Y2901D01*
X3110Y2901D01*
X3111Y2901D01*
X3112Y2901D01*
X3113Y2901D01*
X3114Y2901D01*
X3115Y2901D01*
X3116Y2901D01*
X3117Y2901D01*
X3118Y2901D01*
X3119Y2901D01*
X3120Y2901D01*
X3121Y2901D01*
X3122Y2901D01*
X3123Y2901D01*
X3124Y2901D01*
X3125Y2901D01*
X3126Y2901D01*
X3127Y2901D01*
X3128Y2901D01*
X3129Y2901D01*
X3130Y2901D01*
X3131Y2901D01*
X3132Y2901D01*
X3133Y2901D01*
X3134Y2901D01*
X3135Y2901D01*
X3136Y2901D01*
X3137Y2901D01*
X3138Y2901D01*
X3139Y2901D01*
X3140Y2901D01*
X3141Y2901D01*
X3142Y2901D01*
X3143Y2901D01*
X3144Y2901D01*
X3145Y2901D01*
X3146Y2901D01*
X3147Y2901D01*
X3148Y2901D01*
X3149Y2901D01*
X3150Y2901D01*
X3151Y2901D01*
X3152Y2901D01*
X3153Y2901D01*
X3154Y2901D01*
X3155Y2901D01*
X3156Y2901D01*
X3157Y2901D01*
X3158Y2901D01*
X3159Y2901D01*
X3160Y2901D01*
X3161Y2901D01*
X3162Y2901D01*
X3163Y2901D01*
X3164Y2901D01*
X3165Y2901D01*
X3166Y2901D01*
X3167Y2901D01*
X3168Y2901D01*
X3169Y2901D01*
X3170Y2901D01*
X3171Y2901D01*
X3172Y2901D01*
X3173Y2901D01*
X3174Y2901D01*
X3175Y2901D01*
X3176Y2901D01*
X3177Y2901D01*
X3178Y2901D01*
X3179Y2901D01*
X3180Y2901D01*
X3181Y2901D01*
X3182Y2901D01*
X3183Y2901D01*
X3184Y2901D01*
X3185Y2901D01*
X3186Y2901D01*
X3187Y2901D01*
X3188Y2901D01*
X3189Y2901D01*
X3190Y2901D01*
X3191Y2901D01*
X3192Y2901D01*
X3193Y2901D01*
X3194Y2901D01*
X3195Y2901D01*
X3196Y2901D01*
X3197Y2901D01*
X3198Y2901D01*
X3199Y2901D01*
X3200Y2901D01*
X3201Y2901D01*
X3202Y2901D01*
X3203Y2901D01*
X3204Y2901D01*
X3205Y2901D01*
X3206Y2901D01*
X3207Y2901D01*
X3208Y2901D01*
X3209Y2901D01*
X3210Y2901D01*
X3211Y2901D01*
X3212Y2901D01*
X3213Y2901D01*
X3214Y2901D01*
X3215Y2901D01*
X3216Y2901D01*
X3217Y2901D01*
X3218Y2901D01*
X3219Y2901D01*
X3220Y2901D01*
X3221Y2901D01*
X3222Y2901D01*
X3223Y2901D01*
X3224Y2901D01*
X3225Y2901D01*
X3226Y2901D01*
X3227Y2901D01*
X3228Y2901D01*
X3229Y2901D01*
X3230Y2901D01*
X3231Y2901D01*
X3232Y2901D01*
X3233Y2901D01*
X3234Y2901D01*
X3235Y2901D01*
X3236Y2901D01*
X3237Y2901D01*
X3238Y2901D01*
X3239Y2901D01*
X3240Y2901D01*
X3241Y2901D01*
X3242Y2901D01*
X3243Y2901D01*
X3244Y2901D01*
X3245Y2901D01*
X3246Y2901D01*
X3247Y2901D01*
X3248Y2901D01*
X3249Y2901D01*
X3250Y2901D01*
X3251Y2901D01*
X3252Y2901D01*
X3253Y2901D01*
X3254Y2901D01*
X3255Y2901D01*
X3256Y2901D01*
X3257Y2901D01*
X3258Y2901D01*
X3259Y2901D01*
X3260Y2901D01*
X3261Y2901D01*
X3262Y2901D01*
X3263Y2901D01*
X3264Y2901D01*
X3265Y2901D01*
X3266Y2901D01*
X3267Y2901D01*
X3268Y2901D01*
X3269Y2901D01*
X3270Y2901D01*
X3271Y2901D01*
X3272Y2901D01*
X3273Y2901D01*
X3274Y2901D01*
X3275Y2901D01*
X3276Y2901D01*
X3277Y2901D01*
X3278Y2901D01*
X3279Y2901D01*
X3280Y2901D01*
X3281Y2901D01*
X3282Y2901D01*
X3283Y2901D01*
X3284Y2901D01*
X3285Y2901D01*
X3286Y2901D01*
X3287Y2901D01*
X3288Y2901D01*
X3289Y2901D01*
X3290Y2901D01*
X3291Y2901D01*
X3292Y2901D01*
X3293Y2901D01*
X3294Y2901D01*
X3295Y2901D01*
X3296Y2901D01*
X3297Y2901D01*
X3298Y2901D01*
X3299Y2901D01*
X3300Y2901D01*
X3301Y2901D01*
X3302Y2901D01*
X3303Y2901D01*
X3304Y2901D01*
X3305Y2901D01*
X3306Y2901D01*
X3307Y2901D01*
X3308Y2901D01*
X3309Y2901D01*
X3310Y2901D01*
X3311Y2901D01*
X3312Y2901D01*
X3313Y2901D01*
X3314Y2901D01*
X3315Y2901D01*
X3316Y2901D01*
X3317Y2901D01*
X3318Y2901D01*
X3319Y2901D01*
X3320Y2901D01*
X3321Y2901D01*
X3322Y2901D01*
X3323Y2901D01*
X3324Y2901D01*
X3325Y2901D01*
X3326Y2901D01*
X3327Y2901D01*
X3328Y2901D01*
X3329Y2901D01*
X3330Y2901D01*
X3331Y2901D01*
X3332Y2901D01*
X3333Y2901D01*
X3334Y2901D01*
X3335Y2901D01*
X3336Y2901D01*
X3337Y2901D01*
X3338Y2901D01*
X3339Y2901D01*
X3340Y2901D01*
X3341Y2901D01*
X3342Y2901D01*
X3343Y2901D01*
X3344Y2901D01*
X3345Y2901D01*
X3346Y2901D01*
X3347Y2901D01*
X3348Y2901D01*
X3349Y2901D01*
X3350Y2901D01*
X3351Y2901D01*
X3352Y2901D01*
X3353Y2901D01*
X3354Y2901D01*
X3355Y2901D01*
X3356Y2901D01*
X3357Y2901D01*
X3358Y2901D01*
X3359Y2901D01*
X3360Y2901D01*
X3361Y2901D01*
X3362Y2901D01*
X3363Y2901D01*
X3364Y2901D01*
X3365Y2901D01*
X3366Y2901D01*
X3367Y2901D01*
X3368Y2901D01*
X3369Y2901D01*
X3370Y2901D01*
X3371Y2901D01*
X3372Y2901D01*
X3373Y2901D01*
X3374Y2901D01*
X3375Y2901D01*
X3376Y2901D01*
X3377Y2901D01*
X3378Y2901D01*
X3379Y2901D01*
X3380Y2901D01*
X3381Y2901D01*
X3382Y2901D01*
X3383Y2901D01*
X3384Y2901D01*
X3385Y2901D01*
X3386Y2901D01*
X3387Y2901D01*
X3388Y2901D01*
X3389Y2901D01*
X3390Y2901D01*
X3391Y2901D01*
X3392Y2901D01*
X3393Y2901D01*
X3394Y2901D01*
X3395Y2901D01*
X3396Y2901D01*
X3397Y2901D01*
X3398Y2901D01*
X3399Y2901D01*
X3400Y2901D01*
X3401Y2901D01*
X3402Y2901D01*
X3403Y2901D01*
X3404Y2901D01*
X3405Y2901D01*
X3406Y2901D01*
X3407Y2901D01*
X3408Y2901D01*
X3409Y2901D01*
X3410Y2901D01*
X3411Y2901D01*
X3412Y2901D01*
X3413Y2901D01*
X3414Y2901D01*
X3415Y2901D01*
X3416Y2901D01*
X3417Y2901D01*
X3418Y2901D01*
X3419Y2901D01*
X3420Y2901D01*
X3421Y2901D01*
X3422Y2901D01*
X3423Y2901D01*
X3424Y2901D01*
X3425Y2901D01*
X3426Y2901D01*
X3427Y2901D01*
X3428Y2901D01*
X3429Y2901D01*
X3430Y2901D01*
X3431Y2901D01*
X3432Y2901D01*
X3433Y2901D01*
X3434Y2901D01*
X3435Y2901D01*
X3436Y2901D01*
X3437Y2901D01*
X3438Y2901D01*
X3439Y2901D01*
X3440Y2901D01*
X3441Y2901D01*
X3442Y2901D01*
X3443Y2901D01*
X3444Y2901D01*
X3445Y2901D01*
X3446Y2901D01*
X3447Y2901D01*
X3448Y2901D01*
X3449Y2901D01*
X3450Y2901D01*
X3451Y2901D01*
X3452Y2901D01*
X3453Y2901D01*
X3454Y2901D01*
X3455Y2901D01*
X3456Y2901D01*
X3457Y2901D01*
X3458Y2901D01*
X3459Y2901D01*
X3460Y2901D01*
X3461Y2901D01*
X3462Y2901D01*
X3463Y2901D01*
X3464Y2901D01*
X3465Y2901D01*
X3466Y2901D01*
X3467Y2901D01*
X3468Y2901D01*
X3469Y2901D01*
X3470Y2901D01*
X3471Y2901D01*
X3472Y2901D01*
X3473Y2901D01*
X3474Y2901D01*
X3475Y2901D01*
X3476Y2901D01*
X3477Y2901D01*
X3478Y2901D01*
X3479Y2901D01*
X3480Y2901D01*
X3481Y2901D01*
X3482Y2901D01*
X3483Y2901D01*
X3484Y2901D01*
X3485Y2901D01*
X3486Y2901D01*
X3487Y2901D01*
X3488Y2901D01*
X3489Y2901D01*
X3490Y2901D01*
X3491Y2901D01*
X3492Y2901D01*
X3493Y2901D01*
X3494Y2901D01*
X3495Y2901D01*
X3496Y2901D01*
X3497Y2901D01*
X3498Y2901D01*
X3499Y2901D01*
X3500Y2901D01*
X3501Y2901D01*
X3502Y2901D01*
X3503Y2901D01*
X3504Y2901D01*
X3505Y2901D01*
X3506Y2901D01*
X3507Y2901D01*
X3508Y2901D01*
X3509Y2901D01*
X3510Y2901D01*
X3511Y2901D01*
X3512Y2901D01*
X3513Y2901D01*
X3514Y2901D01*
X3515Y2901D01*
X3516Y2901D01*
X3517Y2901D01*
X3518Y2901D01*
X3519Y2901D01*
X3520Y2901D01*
X3521Y2901D01*
X3522Y2901D01*
X3523Y2901D01*
X3524Y2901D01*
X3525Y2901D01*
X3526Y2901D01*
X3527Y2901D01*
X3528Y2901D01*
X3529Y2901D01*
X3530Y2901D01*
X3531Y2901D01*
X3532Y2901D01*
X3533Y2901D01*
X3534Y2901D01*
X3535Y2901D01*
X3536Y2901D01*
X3537Y2901D01*
X3538Y2901D01*
X3539Y2901D01*
X3540Y2901D01*
X3541Y2901D01*
X3542Y2901D01*
X3543Y2901D01*
X3544Y2901D01*
X3545Y2901D01*
X3546Y2901D01*
X3547Y2901D01*
X3548Y2901D01*
X3549Y2901D01*
X3550Y2901D01*
X3551Y2901D01*
X3552Y2901D01*
X3553Y2901D01*
X3554Y2901D01*
X3555Y2901D01*
X3556Y2901D01*
X3557Y2901D01*
X3558Y2901D01*
X3559Y2901D01*
X3560Y2901D01*
X3561Y2901D01*
X3562Y2901D01*
X3563Y2901D01*
X3564Y2901D01*
X3565Y2901D01*
X3566Y2901D01*
X3567Y2901D01*
X3568Y2901D01*
X3569Y2901D01*
X3570Y2901D01*
X3571Y2901D01*
X3572Y2901D01*
X3573Y2901D01*
X3574Y2901D01*
X3575Y2901D01*
X3576Y2901D01*
X3577Y2901D01*
X3578Y2901D01*
X3579Y2901D01*
X3580Y2901D01*
X3581Y2901D01*
X3582Y2901D01*
X3583Y2901D01*
X3584Y2901D01*
X3585Y2901D01*
X3586Y2901D01*
X3587Y2901D01*
X3588Y2901D01*
X3589Y2901D01*
X3590Y2901D01*
X3591Y2901D01*
X3592Y2901D01*
X3593Y2901D01*
X3594Y2901D01*
X3595Y2901D01*
X3596Y2901D01*
X3597Y2901D01*
X3598Y2901D01*
X3599Y2901D01*
X3600Y2901D01*
X3601Y2901D01*
X3602Y2901D01*
X3603Y2901D01*
X3604Y2901D01*
X3605Y2901D01*
X3606Y2901D01*
X3607Y2901D01*
X3608Y2901D01*
X3609Y2901D01*
X3610Y2901D01*
X3611Y2901D01*
X3612Y2901D01*
X3613Y2901D01*
X3614Y2901D01*
X3615Y2901D01*
X3616Y2901D01*
X3617Y2901D01*
X3618Y2901D01*
X3619Y2901D01*
X3620Y2901D01*
X3621Y2901D01*
X3622Y2901D01*
X3623Y2901D01*
X3624Y2901D01*
X3625Y2901D01*
X3626Y2901D01*
X3627Y2901D01*
X3628Y2901D01*
X3629Y2901D01*
X3630Y2901D01*
X3631Y2901D01*
X3632Y2901D01*
X3633Y2901D01*
X3634Y2901D01*
X3635Y2901D01*
X3636Y2901D01*
X3637Y2901D01*
X3638Y2901D01*
X3639Y2901D01*
X3640Y2901D01*
X3641Y2901D01*
X3642Y2901D01*
X3643Y2901D01*
X3644Y2901D01*
X3645Y2901D01*
X3646Y2901D01*
X3647Y2901D01*
X3648Y2901D01*
X3649Y2901D01*
X3650Y2901D01*
X3651Y2901D01*
X3652Y2901D01*
X3653Y2901D01*
X3654Y2901D01*
X3655Y2901D01*
X3656Y2901D01*
X3657Y2901D01*
X3658Y2901D01*
X3659Y2901D01*
X3660Y2901D01*
X3661Y2901D01*
X3662Y2901D01*
X3663Y2901D01*
X3664Y2901D01*
X3665Y2901D01*
X3666Y2901D01*
X3667Y2901D01*
X3668Y2901D01*
X3669Y2901D01*
X3670Y2901D01*
X3671Y2901D01*
X3672Y2901D01*
X3673Y2901D01*
X3674Y2901D01*
X3675Y2901D01*
X3676Y2901D01*
X3677Y2901D01*
X3678Y2901D01*
X3679Y2901D01*
X3680Y2901D01*
X3681Y2901D01*
X3682Y2901D01*
X3683Y2901D01*
X3684Y2901D01*
X3685Y2901D01*
X3686Y2901D01*
X3687Y2901D01*
X3688Y2901D01*
X3689Y2901D01*
X3690Y2901D01*
X3691Y2901D01*
X3692Y2901D01*
X3693Y2901D01*
X3694Y2901D01*
X3695Y2901D01*
X3696Y2901D01*
X3697Y2901D01*
X3698Y2901D01*
X3699Y2901D01*
X3700Y2901D01*
X3701Y2901D01*
X3702Y2901D01*
X3703Y2901D01*
X3704Y2901D01*
X3705Y2901D01*
X3706Y2901D01*
X3707Y2901D01*
X3708Y2901D01*
X3709Y2901D01*
X3710Y2901D01*
X3711Y2901D01*
X3712Y2901D01*
X3713Y2901D01*
X3714Y2901D01*
X3715Y2901D01*
X3716Y2901D01*
X3717Y2901D01*
X3718Y2901D01*
X3719Y2901D01*
X3720Y2901D01*
X3721Y2901D01*
X3722Y2901D01*
X3723Y2901D01*
X3724Y2901D01*
X3725Y2901D01*
X3726Y2901D01*
X3727Y2901D01*
X3728Y2901D01*
X3729Y2901D01*
X3730Y2901D01*
X3731Y2901D01*
X3732Y2901D01*
X3733Y2901D01*
X3734Y2901D01*
X3735Y2901D01*
X3736Y2901D01*
X3737Y2901D01*
X3738Y2901D01*
X3739Y2901D01*
X3740Y2901D01*
X3741Y2901D01*
X3742Y2901D01*
X3743Y2901D01*
X3744Y2901D01*
X3745Y2901D01*
X3746Y2901D01*
X3747Y2901D01*
X3748Y2901D01*
X3749Y2901D01*
X3750Y2901D01*
X3751Y2901D01*
X3752Y2901D01*
X3753Y2901D01*
X3754Y2901D01*
X3755Y2901D01*
X3756Y2901D01*
X3757Y2901D01*
X3758Y2901D01*
X3759Y2901D01*
X3760Y2901D01*
X3761Y2901D01*
X3762Y2901D01*
X3763Y2901D01*
X3764Y2901D01*
X3765Y2901D01*
X3766Y2901D01*
X3767Y2901D01*
X3768Y2901D01*
X3769Y2901D01*
X3770Y2901D01*
X3771Y2901D01*
X3772Y2901D01*
X3773Y2901D01*
X3774Y2901D01*
X3775Y2901D01*
X3776Y2901D01*
X3777Y2901D01*
X3778Y2901D01*
X3779Y2901D01*
X3780Y2901D01*
X3781Y2901D01*
X3782Y2901D01*
X3783Y2901D01*
X3784Y2901D01*
X3785Y2901D01*
X3786Y2901D01*
X3787Y2901D01*
X3788Y2901D01*
X3789Y2901D01*
X3790Y2901D01*
X3791Y2901D01*
X3792Y2901D01*
X3793Y2901D01*
X3794Y2901D01*
X3795Y2901D01*
X3796Y2901D01*
X3797Y2901D01*
X3798Y2901D01*
X3799Y2901D01*
X3800Y2901D01*
X3801Y2901D01*
X3802Y2901D01*
X3803Y2901D01*
X3804Y2901D01*
X3805Y2901D01*
X3806Y2901D01*
X3807Y2901D01*
X3808Y2901D01*
X3809Y2901D01*
X3810Y2901D01*
X3811Y2901D01*
X3812Y2901D01*
X3813Y2901D01*
X3814Y2901D01*
X3815Y2901D01*
X3816Y2901D01*
X3817Y2901D01*
X3818Y2901D01*
X3819Y2901D01*
X3820Y2901D01*
X3821Y2901D01*
X3822Y2901D01*
X3823Y2901D01*
X3824Y2901D01*
X3825Y2901D01*
X3826Y2901D01*
X3827Y2901D01*
X3828Y2901D01*
X3829Y2901D01*
X3830Y2901D01*
X3831Y2901D01*
X3832Y2901D01*
X3833Y2901D01*
X3834Y2901D01*
X3835Y2901D01*
X3836Y2901D01*
X3837Y2901D01*
X3838Y2901D01*
X3839Y2901D01*
X3840Y2901D01*
X3841Y2901D01*
X3842Y2901D01*
X3843Y2901D01*
X3844Y2901D01*
X3845Y2901D01*
X3846Y2901D01*
X3847Y2901D01*
X3848Y2901D01*
X3849Y2901D01*
X3850Y2901D01*
X3851Y2901D01*
X3852Y2901D01*
X3853Y2901D01*
X3854Y2901D01*
X3855Y2901D01*
X3856Y2901D01*
X3857Y2901D01*
X3858Y2901D01*
X3859Y2901D01*
X3860Y2901D01*
X3861Y2901D01*
X3862Y2901D01*
X3863Y2901D01*
X3864Y2901D01*
X3865Y2901D01*
X3866Y2901D01*
X3867Y2901D01*
X3868Y2901D01*
X3869Y2901D01*
X3870Y2901D01*
X3871Y2901D01*
X3872Y2901D01*
X3873Y2901D01*
X3874Y2901D01*
X3875Y2901D01*
X3876Y2901D01*
X3877Y2901D01*
X3878Y2901D01*
X3879Y2901D01*
X3880Y2901D01*
X3881Y2901D01*
X3882Y2901D01*
X3883Y2901D01*
X3884Y2901D01*
X3885Y2901D01*
X3886Y2901D01*
X3887Y2901D01*
X3888Y2901D01*
X3889Y2901D01*
X3890Y2901D01*
X3891Y2901D01*
X3892Y2901D01*
X3893Y2901D01*
X3894Y2901D01*
X3895Y2901D01*
X3896Y2901D01*
X3897Y2901D01*
X3898Y2901D01*
X3899Y2901D01*
X3900Y2901D01*
X3901Y2901D01*
X3902Y2901D01*
X3903Y2901D01*
X3904Y2901D01*
X3905Y2901D01*
X3906Y2901D01*
X3907Y2901D01*
X3908Y2901D01*
X3909Y2901D01*
X3910Y2901D01*
X3911Y2901D01*
X3912Y2901D01*
X3913Y2901D01*
X3914Y2901D01*
X3915Y2901D01*
X3916Y2901D01*
X3917Y2901D01*
X3918Y2901D01*
X3919Y2901D01*
X3920Y2901D01*
X3921Y2901D01*
X3922Y2901D01*
X3923Y2901D01*
X3924Y2901D01*
X3925Y2901D01*
X3926Y2901D01*
X3927Y2901D01*
X3928Y2901D01*
X3929Y2901D01*
X3930Y2901D01*
X3931Y2901D01*
X3932Y2901D01*
X3933Y2901D01*
X3934Y2901D01*
X3935Y2901D01*
X3936Y2901D01*
X3937Y2901D01*
X3938Y2901D01*
X3939Y2901D01*
X3940Y2901D01*
X3941Y2901D01*
X3942Y2901D01*
X3943Y2901D01*
X3944Y2901D01*
X3945Y2901D01*
X3946Y2901D01*
X3947Y2901D01*
X3948Y2901D01*
X3949Y2901D01*
X3950Y2901D01*
X3951Y2901D01*
X3952Y2901D01*
X3953Y2901D01*
X3954Y2901D01*
X3955Y2901D01*
X3956Y2901D01*
X3957Y2901D01*
X3958Y2901D01*
X3959Y2901D01*
X3960Y2901D01*
X3961Y2901D01*
X3962Y2901D01*
X3963Y2901D01*
X3964Y2901D01*
X3965Y2901D01*
X3966Y2901D01*
X3967Y2901D01*
X3968Y2901D01*
X3969Y2901D01*
X3970Y2901D01*
X3971Y2901D01*
X3972Y2901D01*
X3973Y2901D01*
X3974Y2901D01*
X3975Y2901D01*
X3976Y2901D01*
X3977Y2901D01*
X3978Y2901D01*
X3979Y2901D01*
X3980Y2901D01*
X3981Y2901D01*
X3982Y2901D01*
X3983Y2901D01*
X3984Y2901D01*
X3985Y2901D01*
X3986Y2901D01*
X3987Y2901D01*
X3988Y2901D01*
X3989Y2901D01*
X3990Y2901D01*
X3991Y2901D01*
X3992Y2901D01*
X3993Y2901D01*
X3994Y2901D01*
X3995Y2901D01*
X3996Y2901D01*
X3997Y2901D01*
X3998Y2901D01*
X3999Y2901D01*
X4000Y2901D01*
X4001Y2901D01*
X4002Y2901D01*
X4003Y2901D01*
X4004Y2901D01*
X4005Y2901D01*
X4006Y2901D01*
X4007Y2901D01*
X4008Y2901D01*
X4009Y2901D01*
X4010Y2901D01*
X4011Y2901D01*
X4012Y2901D01*
X4013Y2901D01*
X4014Y2901D01*
X4015Y2901D01*
X4016Y2901D01*
X4017Y2901D01*
X4018Y2901D01*
X4019Y2901D01*
X4020Y2901D01*
X4021Y2901D01*
X4022Y2901D01*
X4023Y2901D01*
X4024Y2901D01*
X4025Y2901D01*
X4026Y2901D01*
X4027Y2901D01*
X4028Y2901D01*
X4029Y2901D01*
X4030Y2901D01*
X4031Y2901D01*
X4032Y2901D01*
X4033Y2901D01*
X4034Y2901D01*
X4035Y2901D01*
X4036Y2901D01*
X4037Y2901D01*
X4038Y2901D01*
X4039Y2901D01*
X4040Y2901D01*
X4041Y2901D01*
X4042Y2901D01*
X4043Y2901D01*
X4044Y2901D01*
X4045Y2901D01*
X4046Y2901D01*
X4047Y2901D01*
X4048Y2901D01*
X4049Y2901D01*
X4050Y2901D01*
X4051Y2901D01*
X4052Y2901D01*
X4053Y2901D01*
X4054Y2901D01*
X4055Y2901D01*
X4056Y2901D01*
X4057Y2901D01*
X4058Y2901D01*
X4059Y2901D01*
X4060Y2901D01*
X4061Y2901D01*
X4062Y2901D01*
X4063Y2901D01*
X4064Y2901D01*
X4065Y2901D01*
X4066Y2901D01*
X4067Y2901D01*
X4068Y2901D01*
X4069Y2901D01*
X4070Y2901D01*
X4071Y2901D01*
X4072Y2901D01*
X4073Y2901D01*
X4074Y2901D01*
X4075Y2901D01*
X4076Y2901D01*
X4077Y2901D01*
X4078Y2901D01*
X4079Y2901D01*
X4080Y2901D01*
X4081Y2901D01*
X4082Y2901D01*
X4083Y2901D01*
X4084Y2901D01*
X4085Y2901D01*
X4086Y2901D01*
X4087Y2901D01*
X4088Y2901D01*
X4089Y2901D01*
X4090Y2901D01*
X4091Y2901D01*
X4092Y2901D01*
X4093Y2901D01*
X4094Y2901D01*
X4095Y2901D01*
X4096Y2901D01*
X4097Y2901D01*
X4098Y2901D01*
X4099Y2901D01*
X4100Y2901D01*
X4101Y2901D01*
X4102Y2901D01*
X4103Y2901D01*
X4104Y2901D01*
X4105Y2901D01*
X4106Y2901D01*
X4107Y2901D01*
X4108Y2901D01*
X4109Y2901D01*
X4110Y2901D01*
X4111Y2901D01*
X4112Y2901D01*
X4113Y2901D01*
X4114Y2901D01*
X4115Y2901D01*
X4116Y2901D01*
X4117Y2901D01*
X4118Y2901D01*
X4119Y2901D01*
X4120Y2901D01*
X4121Y2901D01*
X4122Y2901D01*
X4123Y2901D01*
X4124Y2901D01*
X4125Y2901D01*
X4126Y2901D01*
X4127Y2901D01*
X4128Y2901D01*
X4129Y2901D01*
X4130Y2901D01*
X4131Y2901D01*
X4132Y2901D01*
X4133Y2901D01*
X4134Y2901D01*
X4135Y2901D01*
X4136Y2901D01*
X4137Y2901D01*
X4138Y2901D01*
X4139Y2901D01*
X4140Y2901D01*
X4141Y2901D01*
X4142Y2901D01*
X4143Y2901D01*
X4144Y2901D01*
X4145Y2901D01*
X4146Y2901D01*
X4147Y2901D01*
X4148Y2901D01*
X4149Y2901D01*
X4150Y2901D01*
X4151Y2901D01*
X4152Y2901D01*
X4153Y2901D01*
X4154Y2901D01*
X4155Y2901D01*
X4156Y2901D01*
X4157Y2901D01*
X4158Y2901D01*
X4159Y2901D01*
X4160Y2901D01*
X4161Y2901D01*
X4162Y2901D01*
X4163Y2901D01*
X4164Y2901D01*
X4165Y2901D01*
X4166Y2901D01*
X4167Y2901D01*
X4168Y2901D01*
X4169Y2901D01*
X4170Y2901D01*
X4171Y2901D01*
X4172Y2901D01*
X4173Y2901D01*
X4174Y2901D01*
X4175Y2901D01*
X4176Y2901D01*
X4177Y2901D01*
X4178Y2901D01*
X4179Y2901D01*
X4180Y2901D01*
X4181Y2901D01*
X4182Y2901D01*
X4183Y2901D01*
X4184Y2901D01*
X4185Y2901D01*
X4186Y2901D01*
X4187Y2901D01*
X4188Y2901D01*
X4189Y2901D01*
X4190Y2901D01*
X4191Y2901D01*
X4192Y2901D01*
X4193Y2901D01*
X4194Y2901D01*
X4195Y2901D01*
X4196Y2901D01*
X4197Y2901D01*
X4198Y2901D01*
X4199Y2901D01*
X4200Y2901D01*
X4201Y2901D01*
X4202Y2901D01*
X4203Y2901D01*
X4204Y2901D01*
X4205Y2901D01*
X4206Y2901D01*
X4207Y2901D01*
X4208Y2901D01*
X4209Y2901D01*
X4210Y2901D01*
X4211Y2901D01*
X4212Y2901D01*
X4213Y2901D01*
X4214Y2901D01*
X4215Y2901D01*
X4216Y2901D01*
X4217Y2901D01*
X4218Y2901D01*
X4219Y2901D01*
X4220Y2901D01*
X4221Y2901D01*
X4222Y2901D01*
X4223Y2901D01*
X4224Y2901D01*
X4225Y2901D01*
X4226Y2901D01*
X4227Y2901D01*
X4228Y2901D01*
X4229Y2901D01*
X4230Y2901D01*
X4231Y2901D01*
X4232Y2901D01*
X4233Y2901D01*
X4234Y2901D01*
X4235Y2901D01*
X4236Y2901D01*
X4237Y2901D01*
X4238Y2901D01*
X4239Y2901D01*
X4240Y2901D01*
X4241Y2901D01*
X4242Y2901D01*
X4243Y2901D01*
X4244Y2901D01*
X4245Y2901D01*
X4246Y2901D01*
X4247Y2901D01*
X4248Y2901D01*
X4249Y2901D01*
X4250Y2901D01*
X4251Y2901D01*
X4252Y2901D01*
X4253Y2901D01*
X4254Y2901D01*
X4255Y2901D01*
X4256Y2901D01*
X4257Y2901D01*
X4258Y2901D01*
X4259Y2901D01*
X4260Y2901D01*
X4261Y2901D01*
X4262Y2901D01*
X4263Y2901D01*
X4264Y2901D01*
X4265Y2901D01*
X4266Y2901D01*
X4267Y2901D01*
X4268Y2901D01*
X4269Y2901D01*
X4270Y2901D01*
X4271Y2901D01*
X4272Y2901D01*
X4273Y2901D01*
X4274Y2901D01*
X4275Y2901D01*
X4276Y2901D01*
X4277Y2901D01*
X4278Y2901D01*
X4279Y2901D01*
X4280Y2901D01*
X4281Y2901D01*
X4282Y2901D01*
X4283Y2901D01*
X4284Y2901D01*
X4285Y2901D01*
X4286Y2901D01*
X4287Y2901D01*
X4288Y2901D01*
X4289Y2901D01*
X4290Y2901D01*
X4291Y2901D01*
X4292Y2901D01*
X4293Y2901D01*
X4294Y2901D01*
X4295Y2901D01*
X4296Y2901D01*
X4297Y2901D01*
X4298Y2901D01*
X4299Y2901D01*
X4300Y2901D01*
X4301Y2901D01*
X4302Y2901D01*
X4303Y2901D01*
X4304Y2901D01*
X4305Y2901D01*
X4306Y2901D01*
X4307Y2901D01*
X4308Y2901D01*
X4309Y2901D01*
X4310Y2901D01*
X4311Y2901D01*
X4312Y2901D01*
X4313Y2901D01*
X4314Y2901D01*
X4315Y2901D01*
X4316Y2901D01*
X4317Y2901D01*
X4318Y2901D01*
X4319Y2901D01*
X4320Y2901D01*
X4321Y2901D01*
X4322Y2901D01*
X4323Y2901D01*
X4324Y2901D01*
X4325Y2901D01*
X4326Y2901D01*
X4327Y2901D01*
X4328Y2901D01*
X4329Y2901D01*
X4330Y2901D01*
X4331Y2901D01*
X4332Y2901D01*
X4333Y2901D01*
X4334Y2901D01*
X4335Y2901D01*
X4336Y2901D01*
X4337Y2901D01*
X4338Y2901D01*
X4339Y2901D01*
X4340Y2901D01*
X4341Y2901D01*
X4342Y2901D01*
X4343Y2901D01*
X4344Y2901D01*
X4345Y2901D01*
X4346Y2901D01*
X4347Y2901D01*
X4348Y2901D01*
X4349Y2901D01*
X4350Y2901D01*
X4351Y2901D01*
X4352Y2901D01*
X4353Y2901D01*
X4354Y2901D01*
X4355Y2901D01*
X4356Y2901D01*
X4357Y2901D01*
X4358Y2901D01*
X4359Y2901D01*
X4360Y2901D01*
X4361Y2901D01*
X4362Y2901D01*
X4363Y2901D01*
X4364Y2901D01*
X4365Y2901D01*
X4366Y2901D01*
X4367Y2901D01*
X4368Y2901D01*
X4369Y2901D01*
X4370Y2901D01*
X4371Y2901D01*
X4372Y2901D01*
X4373Y2901D01*
X4374Y2901D01*
X4375Y2901D01*
X4376Y2901D01*
X4377Y2901D01*
X4378Y2901D01*
X4379Y2901D01*
X4380Y2901D01*
X4381Y2901D01*
X4382Y2901D01*
X4383Y2901D01*
X4384Y2901D01*
X4385Y2901D01*
X4386Y2901D01*
X4387Y2901D01*
X4388Y2901D01*
X4389Y2901D01*
X4390Y2901D01*
X4391Y2901D01*
X4392Y2901D01*
X4393Y2901D01*
X4394Y2901D01*
X4395Y2901D01*
X4396Y2901D01*
X4397Y2901D01*
X4398Y2901D01*
X4399Y2901D01*
X4400Y2901D01*
X4401Y2901D01*
X4402Y2901D01*
X4403Y2901D01*
X4404Y2901D01*
X4405Y2901D01*
X4406Y2901D01*
X4407Y2901D01*
X4408Y2901D01*
X4409Y2901D01*
X4410Y2901D01*
X4411Y2901D01*
X4412Y2901D01*
X4413Y2901D01*
X4414Y2901D01*
X4415Y2901D01*
X4416Y2901D01*
X4417Y2901D01*
X4418Y2901D01*
X4419Y2901D01*
X4420Y2901D01*
X4421Y2901D01*
X4422Y2901D01*
X4423Y2901D01*
X4424Y2901D01*
X4425Y2901D01*
X4426Y2901D01*
X4427Y2901D01*
X4428Y2901D01*
X4429Y2901D01*
X4430Y2901D01*
X4431Y2901D01*
X4432Y2901D01*
X4433Y2901D01*
X4434Y2901D01*
X4435Y2901D01*
X4436Y2901D01*
X4437Y2901D01*
X4438Y2901D01*
X4439Y2901D01*
X4440Y2901D01*
X4441Y2901D01*
X4442Y2901D01*
X4443Y2901D01*
X4444Y2901D01*
X4445Y2901D01*
X4446Y2901D01*
X4447Y2901D01*
X4448Y2901D01*
X4449Y2901D01*
X4450Y2901D01*
X4451Y2901D01*
X4452Y2901D01*
X4453Y2901D01*
X4454Y2901D01*
X4455Y2901D01*
X4456Y2901D01*
X4457Y2901D01*
X4458Y2901D01*
X4459Y2901D01*
X4460Y2901D01*
X4461Y2901D01*
X4462Y2901D01*
X4463Y2901D01*
X4464Y2901D01*
X4465Y2901D01*
X4466Y2901D01*
X4467Y2901D01*
X4468Y2901D01*
X4469Y2901D01*
X4470Y2901D01*
X4471Y2901D01*
X4472Y2901D01*
X4473Y2901D01*
X4474Y2901D01*
X4475Y2901D01*
X4476Y2901D01*
X4477Y2901D01*
X4478Y2901D01*
X4479Y2901D01*
X4480Y2901D01*
X4481Y2901D01*
X4482Y2901D01*
X4483Y2901D01*
X4484Y2901D01*
X4485Y2901D01*
X4486Y2901D01*
X4487Y2901D01*
X4488Y2901D01*
X4489Y2901D01*
X4490Y2901D01*
X4491Y2901D01*
X4492Y2901D01*
X4493Y2901D01*
X4494Y2901D01*
X4495Y2901D01*
X4496Y2901D01*
X4497Y2901D01*
X4498Y2901D01*
X4499Y2901D01*
X4500Y2901D01*
X4501Y2901D01*
X4502Y2901D01*
X4503Y2901D01*
X4504Y2901D01*
X4505Y2901D01*
X4506Y2901D01*
X4507Y2901D01*
X4508Y2901D01*
X4509Y2901D01*
X4510Y2901D01*
X4511Y2901D01*
X4512Y2901D01*
X4513Y2901D01*
X4514Y2901D01*
X4515Y2901D01*
X4516Y2901D01*
X4517Y2901D01*
X4518Y2901D01*
X4519Y2901D01*
X4520Y2901D01*
X4521Y2901D01*
X4522Y2901D01*
X4523Y2901D01*
X4524Y2901D01*
X4525Y2901D01*
X4526Y2901D01*
X4527Y2901D01*
X4528Y2901D01*
X4529Y2901D01*
X4530Y2901D01*
X4531Y2901D01*
X4532Y2901D01*
X4533Y2901D01*
X4534Y2901D01*
X4535Y2901D01*
X4536Y2901D01*
X4537Y2901D01*
X4538Y2901D01*
X4539Y2901D01*
X4540Y2901D01*
X4541Y2901D01*
X4542Y2901D01*
X4543Y2901D01*
X4544Y2901D01*
X4545Y2901D01*
X4546Y2901D01*
X4547Y2901D01*
X4548Y2901D01*
X4549Y2901D01*
X4550Y2901D01*
X4551Y2901D01*
X4552Y2901D01*
X4553Y2901D01*
X4554Y2901D01*
X4555Y2901D01*
X4556Y2901D01*
X4557Y2901D01*
X4558Y2901D01*
X4559Y2901D01*
X4560Y2901D01*
X4561Y2901D01*
X4562Y2901D01*
X4563Y2901D01*
X4564Y2901D01*
X4565Y2901D01*
X4566Y2901D01*
X4567Y2901D01*
X4568Y2901D01*
X4569Y2901D01*
X4570Y2901D01*
X4571Y2901D01*
X4572Y2901D01*
X4573Y2901D01*
X4574Y2901D01*
X4575Y2901D01*
X4576Y2901D01*
X4577Y2901D01*
X4578Y2901D01*
X4579Y2901D01*
X4580Y2901D01*
X4581Y2901D01*
X4582Y2901D01*
X4583Y2901D01*
X4584Y2901D01*
X4585Y2901D01*
X4586Y2901D01*
X4587Y2901D01*
X4588Y2901D01*
X4589Y2901D01*
X4590Y2901D01*
X4591Y2901D01*
X4592Y2901D01*
X4593Y2901D01*
X4594Y2901D01*
X4595Y2901D01*
X4596Y2901D01*
X4597Y2901D01*
X4598Y2901D01*
X4599Y2901D01*
X4600Y2901D01*
X4601Y2901D01*
X4602Y2901D01*
X4603Y2901D01*
X4604Y2901D01*
X4605Y2901D01*
X4606Y2901D01*
X4607Y2901D01*
X4608Y2901D01*
X4609Y2901D01*
X4610Y2901D01*
X4611Y2901D01*
X4612Y2901D01*
X4613Y2901D01*
X4614Y2901D01*
X4615Y2901D01*
X4616Y2901D01*
X4617Y2901D01*
X4618Y2901D01*
X4619Y2901D01*
X4620Y2901D01*
X4621Y2901D01*
X4622Y2901D01*
X4623Y2901D01*
X4624Y2901D01*
X4625Y2901D01*
X4626Y2901D01*
X4627Y2901D01*
X4628Y2901D01*
X4629Y2901D01*
X4630Y2901D01*
X4631Y2901D01*
X4632Y2901D01*
X4633Y2901D01*
X4634Y2901D01*
X4635Y2901D01*
X4636Y2901D01*
X4637Y2901D01*
X4638Y2901D01*
X4639Y2901D01*
X4640Y2901D01*
X4641Y2901D01*
X4642Y2901D01*
X4643Y2901D01*
X4644Y2901D01*
X4645Y2901D01*
X4646Y2901D01*
X4647Y2901D01*
X4648Y2901D01*
X4649Y2901D01*
X4650Y2901D01*
X4651Y2901D01*
X4652Y2901D01*
X4653Y2901D01*
X4654Y2901D01*
X4655Y2901D01*
X4656Y2901D01*
X4657Y2901D01*
X4658Y2901D01*
X4659Y2901D01*
X4660Y2901D01*
X4661Y2901D01*
X4662Y2901D01*
X4663Y2901D01*
X4664Y2901D01*
X4665Y2901D01*
X4666Y2901D01*
X4667Y2901D01*
X4668Y2901D01*
X4669Y2901D01*
X4670Y2901D01*
X4671Y2901D01*
X4672Y2901D01*
X4673Y2901D01*
X4674Y2901D01*
X4675Y2901D01*
X4676Y2901D01*
X4677Y2901D01*
X4678Y2901D01*
X4679Y2901D01*
X4680Y2901D01*
X4681Y2901D01*
X4682Y2901D01*
X4683Y2901D01*
X4684Y2901D01*
X4685Y2901D01*
X4686Y2901D01*
X4687Y2901D01*
X4688Y2901D01*
X4689Y2901D01*
X4690Y2901D01*
X4691Y2901D01*
X4692Y2901D01*
X4693Y2901D01*
X4694Y2901D01*
X4695Y2901D01*
X4696Y2901D01*
X4697Y2901D01*
X4698Y2901D01*
X4699Y2901D01*
X4700Y2901D01*
X4701Y2901D01*
X4702Y2901D01*
X4703Y2901D01*
X4704Y2901D01*
X4705Y2901D01*
X4706Y2901D01*
X4707Y2901D01*
X4708Y2901D01*
X4709Y2901D01*
X4710Y2901D01*
X4711Y2901D01*
X4712Y2901D01*
X4713Y2901D01*
X4714Y2901D01*
X4715Y2901D01*
X4716Y2901D01*
X4717Y2901D01*
X4718Y2901D01*
X4719Y2901D01*
X4720Y2901D01*
X4721Y2901D01*
X4722Y2901D01*
X4723Y2901D01*
X4724Y2901D01*
X4725Y2901D01*
X4726Y2901D01*
X4727Y2901D01*
X4728Y2901D01*
X4729Y2901D01*
X4730Y2901D01*
X4731Y2901D01*
X4732Y2901D01*
X4733Y2901D01*
X4734Y2901D01*
X4735Y2901D01*
X4736Y2901D01*
X4737Y2901D01*
X4738Y2901D01*
X4739Y2901D01*
X4740Y2901D01*
X4741Y2901D01*
X4742Y2901D01*
X4743Y2901D01*
X4744Y2901D01*
X4745Y2901D01*
X4746Y2901D01*
X4747Y2901D01*
X4748Y2901D01*
X4749Y2901D01*
X4750Y2901D01*
X4751Y2901D01*
X4752Y2901D01*
X4753Y2901D01*
X4754Y2901D01*
X4755Y2901D01*
X4756Y2901D01*
X4757Y2901D01*
X4758Y2901D01*
X4759Y2901D01*
X4760Y2901D01*
X4761Y2901D01*
X4762Y2901D01*
X4763Y2901D01*
X4764Y2901D01*
X4765Y2901D01*
X4766Y2901D01*
X4767Y2901D01*
X4768Y2901D01*
X4769Y2901D01*
X4770Y2901D01*
X4771Y2901D01*
X4772Y2901D01*
X4773Y2901D01*
X4774Y2901D01*
X4775Y2901D01*
X4776Y2901D01*
X4777Y2901D01*
X4778Y2901D01*
X4779Y2901D01*
X4780Y2901D01*
X4781Y2901D01*
X4782Y2901D01*
X4783Y2901D01*
X4784Y2901D01*
X4785Y2901D01*
X4786Y2901D01*
X4787Y2901D01*
X4788Y2901D01*
X4789Y2901D01*
X4790Y2901D01*
X4791Y2901D01*
X4792Y2901D01*
X4793Y2901D01*
X4794Y2901D01*
X4795Y2901D01*
X4796Y2901D01*
X4797Y2901D01*
X4798Y2901D01*
X4799Y2901D01*
X4800Y2901D01*
X4801Y2901D01*
X4802Y2901D01*
X4803Y2901D01*
X4804Y2901D01*
X4805Y2901D01*
X4806Y2901D01*
X4807Y2901D01*
X4808Y2901D01*
X4809Y2901D01*
X4810Y2901D01*
X4811Y2901D01*
X4812Y2901D01*
X4813Y2901D01*
X4814Y2901D01*
X4815Y2901D01*
X4816Y2901D01*
X4817Y2901D01*
X4818Y2901D01*
X4819Y2901D01*
X4820Y2901D01*
X4821Y2901D01*
X4822Y2901D01*
X4823Y2901D01*
X4824Y2901D01*
X4825Y2901D01*
X4826Y2901D01*
X4827Y2901D01*
X4828Y2901D01*
X4829Y2901D01*
X4830Y2901D01*
X4831Y2901D01*
X4832Y2901D01*
X4833Y2901D01*
X4834Y2901D01*
X4835Y2901D01*
X4836Y2901D01*
X4837Y2901D01*
X4838Y2901D01*
X4839Y2901D01*
X4840Y2901D01*
X4841Y2901D01*
X4842Y2901D01*
X4843Y2901D01*
X4844Y2901D01*
X4845Y2901D01*
X4846Y2901D01*
X4847Y2901D01*
X4848Y2901D01*
X4849Y2901D01*
X4850Y2901D01*
X4851Y2901D01*
X4852Y2901D01*
X4853Y2901D01*
X4854Y2901D01*
X4855Y2901D01*
X4856Y2901D01*
X4857Y2901D01*
X4858Y2901D01*
X4859Y2901D01*
X4860Y2901D01*
X4861Y2901D01*
X4862Y2901D01*
X4863Y2901D01*
X4864Y2901D01*
X4865Y2901D01*
X4866Y2901D01*
X4867Y2901D01*
X4868Y2901D01*
X4869Y2901D01*
X4870Y2901D01*
X4871Y2901D01*
X4872Y2901D01*
X4873Y2901D01*
X4874Y2901D01*
X4875Y2901D01*
X4876Y2901D01*
X4877Y2901D01*
X4878Y2901D01*
X4879Y2901D01*
X4880Y2901D01*
X4881Y2901D01*
X4882Y2901D01*
X4883Y2901D01*
X4884Y2901D01*
X4885Y2901D01*
X4886Y2901D01*
X4887Y2901D01*
X4888Y2901D01*
X4889Y2901D01*
X4890Y2901D01*
X4891Y2901D01*
X4892Y2901D01*
X4893Y2901D01*
X4894Y2901D01*
X4895Y2901D01*
X4896Y2901D01*
X4897Y2901D01*
X4898Y2901D01*
X4899Y2901D01*
X4900Y2901D01*
X4901Y2901D01*
X4902Y2901D01*
X4903Y2901D01*
X4904Y2901D01*
X4905Y2901D01*
X4906Y2901D01*
X4907Y2901D01*
X4908Y2901D01*
X4909Y2901D01*
X4910Y2901D01*
X4911Y2901D01*
X4912Y2901D01*
X4913Y2901D01*
X4914Y2901D01*
X4915Y2901D01*
X4916Y2901D01*
X4917Y2901D01*
X4918Y2901D01*
X4919Y2901D01*
X4920Y2901D01*
X4921Y2901D01*
X4922Y2901D01*
X4923Y2901D01*
X4924Y2901D01*
X4925Y2901D01*
X4926Y2901D01*
X4927Y2901D01*
X4928Y2901D01*
X4929Y2901D01*
X4930Y2901D01*
X4931Y2901D01*
X4932Y2901D01*
X4933Y2901D01*
X4934Y2901D01*
X4935Y2901D01*
X4936Y2901D01*
X4937Y2901D01*
X4938Y2901D01*
X4939Y2901D01*
X4940Y2901D01*
X4941Y2901D01*
X4942Y2901D01*
X4943Y2901D01*
X4944Y2901D01*
X4945Y2901D01*
X4946Y2901D01*
X4947Y2901D01*
X4948Y2901D01*
X4949Y2901D01*
X4950Y2901D01*
X4951Y2901D01*
X4952Y2901D01*
X4953Y2901D01*
X4954Y2901D01*
X4955Y2901D01*
X4956Y2901D01*
X4957Y2901D01*
X4958Y2901D01*
X4959Y2901D01*
X4960Y2901D01*
X4961Y2901D01*
X4962Y2901D01*
X4963Y2901D01*
X4964Y2901D01*
X4965Y2901D01*
X4966Y2901D01*
X4967Y2901D01*
X4968Y2901D01*
X4969Y2901D01*
X4970Y2901D01*
X4971Y2901D01*
X4972Y2901D01*
X4973Y2901D01*
X4974Y2901D01*
X4975Y2901D01*
X4976Y2901D01*
X4977Y2901D01*
X4978Y2901D01*
X4979Y2901D01*
X4980Y2901D01*
X4981Y2901D01*
X4982Y2901D01*
X4983Y2901D01*
X4984Y2901D01*
X4985Y2901D01*
X4986Y2901D01*
X4987Y2901D01*
X4988Y2901D01*
X4989Y2901D01*
X4990Y2901D01*
X4991Y2901D01*
X4992Y2901D01*
X4993Y2901D01*
X4994Y2901D01*
X4995Y2901D01*
X4996Y2901D01*
X4997Y2901D01*
X4998Y2901D01*
X4999Y2901D01*
X5000Y2901D01*
X5001Y2901D01*
X5002Y2901D01*
X5003Y2901D01*
X5004Y2901D01*
X5005Y2901D01*
X5006Y2901D01*
X5007Y2901D01*
X5008Y2901D01*
X5009Y2901D01*
X5010Y2901D01*
X5011Y2901D01*
X5012Y2901D01*
X5013Y2901D01*
X5014Y2901D01*
X5015Y2901D01*
X5016Y2901D01*
X5017Y2901D01*
X5018Y2901D01*
X5019Y2901D01*
X5020Y2901D01*
X5021Y2901D01*
X5022Y2901D01*
X5023Y2901D01*
X5024Y2901D01*
X5025Y2901D01*
X5026Y2901D01*
X5027Y2901D01*
X5028Y2901D01*
X5029Y2901D01*
X5030Y2901D01*
X5031Y2901D01*
X5032Y2901D01*
X5033Y2901D01*
X5034Y2901D01*
X5035Y2901D01*
X5036Y2901D01*
X5037Y2901D01*
X5038Y2901D01*
X5039Y2901D01*
X5040Y2901D01*
X5041Y2901D01*
X5042Y2901D01*
X5043Y2901D01*
X5044Y2901D01*
X5045Y2901D01*
X5046Y2901D01*
X5047Y2901D01*
X5048Y2901D01*
X5049Y2901D01*
X5050Y2901D01*
X5051Y2901D01*
X5052Y2901D01*
X5053Y2901D01*
X5054Y2901D01*
X5055Y2901D01*
X5056Y2901D01*
X5057Y2901D01*
X5058Y2901D01*
X5059Y2901D01*
X5060Y2901D01*
X5061Y2901D01*
X5062Y2901D01*
X5063Y2901D01*
X5064Y2901D01*
X5065Y2901D01*
X5066Y2901D01*
X5067Y2901D01*
X5068Y2901D01*
X5069Y2901D01*
X5070Y2901D01*
X5071Y2901D01*
X5072Y2901D01*
X5073Y2901D01*
X5074Y2901D01*
X5075Y2901D01*
X5076Y2901D01*
X5077Y2901D01*
X5078Y2901D01*
X5079Y2901D01*
X5080Y2901D01*
X5081Y2901D01*
X5082Y2901D01*
X5083Y2901D01*
X5084Y2901D01*
X5085Y2901D01*
X5086Y2901D01*
X5087Y2901D01*
X5088Y2901D01*
X5089Y2901D01*
X5090Y2901D01*
X5091Y2901D01*
X5092Y2901D01*
X5093Y2901D01*
X5094Y2901D01*
X5095Y2901D01*
X5096Y2901D01*
X5097Y2901D01*
X5098Y2901D01*
X5099Y2901D01*
X5100Y2901D01*
X5101Y2901D01*
X5102Y2901D01*
X5103Y2901D01*
X5104Y2901D01*
X5105Y2901D01*
X5106Y2901D01*
X5107Y2901D01*
X5108Y2901D01*
X5109Y2901D01*
X5110Y2901D01*
X5111Y2901D01*
X5112Y2901D01*
X5113Y2901D01*
X5114Y2901D01*
X5115Y2901D01*
X5116Y2901D01*
X5117Y2901D01*
X5118Y2901D01*
X5119Y2901D01*
X5120Y2901D01*
X5121Y2901D01*
X5122Y2901D01*
X5123Y2901D01*
X5124Y2901D01*
X5125Y2901D01*
X5126Y2901D01*
X5127Y2901D01*
X5128Y2901D01*
X5129Y2901D01*
X5130Y2901D01*
X5131Y2901D01*
X5132Y2901D01*
X5133Y2901D01*
X5134Y2901D01*
X5135Y2901D01*
X5136Y2901D01*
X5137Y2901D01*
X5138Y2901D01*
X5139Y2901D01*
X5140Y2901D01*
X5141Y2901D01*
X5142Y2901D01*
X5143Y2901D01*
X5144Y2901D01*
X5145Y2901D01*
X5146Y2901D01*
X5147Y2901D01*
X5148Y2901D01*
X5149Y2901D01*
X5150Y2901D01*
X5151Y2901D01*
X5152Y2901D01*
X5153Y2901D01*
X5154Y2901D01*
X5155Y2901D01*
X5156Y2901D01*
X5157Y2901D01*
X5158Y2901D01*
X5159Y2901D01*
X5160Y2901D01*
X5161Y2901D01*
X5162Y2901D01*
X5163Y2901D01*
X5164Y2901D01*
X5165Y2901D01*
X5166Y2901D01*
X5167Y2901D01*
X5168Y2901D01*
X5169Y2901D01*
X5170Y2901D01*
X5171Y2901D01*
X5172Y2901D01*
X5173Y2901D01*
X5174Y2901D01*
X5175Y2901D01*
X5176Y2901D01*
X5177Y2901D01*
X5178Y2901D01*
X5179Y2901D01*
X5180Y2901D01*
X5181Y2901D01*
X5182Y2901D01*
X5183Y2901D01*
X5184Y2901D01*
X5185Y2901D01*
X5186Y2901D01*
X5187Y2901D01*
X5188Y2901D01*
X5189Y2901D01*
X5190Y2901D01*
X5191Y2901D01*
X5192Y2901D01*
X5193Y2901D01*
X5194Y2901D01*
X5195Y2901D01*
X5196Y2901D01*
X5197Y2901D01*
X5198Y2901D01*
X5199Y2901D01*
X5200Y2901D01*
X5201Y2901D01*
X5202Y2901D01*
X5203Y2901D01*
X5204Y2901D01*
X5205Y2901D01*
X5206Y2901D01*
X5207Y2901D01*
X5208Y2901D01*
X5209Y2901D01*
X5210Y2901D01*
X5211Y2901D01*
X5212Y2901D01*
X5213Y2901D01*
X5214Y2901D01*
X5215Y2901D01*
X5216Y2901D01*
X5217Y2901D01*
X5218Y2901D01*
X5219Y2901D01*
X5220Y2901D01*
X5221Y2901D01*
X5222Y2901D01*
X5223Y2901D01*
X5224Y2901D01*
X5225Y2901D01*
X5226Y2901D01*
X5227Y2901D01*
X5228Y2901D01*
X5229Y2901D01*
X5230Y2901D01*
X5231Y2901D01*
X5232Y2901D01*
X5233Y2901D01*
X5234Y2901D01*
X5235Y2901D01*
X5236Y2901D01*
X5237Y2901D01*
X5238Y2901D01*
X5239Y2901D01*
X5240Y2901D01*
X5241Y2901D01*
X5242Y2901D01*
X5243Y2901D01*
X5244Y2901D01*
X5245Y2901D01*
X5246Y2901D01*
X5247Y2901D01*
X5248Y2901D01*
X5249Y2901D01*
X5250Y2901D01*
X5251Y2901D01*
X5252Y2901D01*
X5253Y2901D01*
X5254Y2901D01*
X5255Y2901D01*
X5256Y2901D01*
X5257Y2901D01*
X5258Y2901D01*
X5259Y2901D01*
X5260Y2901D01*
X5261Y2901D01*
X5262Y2901D01*
X5263Y2901D01*
X5264Y2901D01*
X5265Y2901D01*
X5266Y2901D01*
X5267Y2901D01*
X5268Y2901D01*
X5269Y2901D01*
X5270Y2901D01*
X5271Y2901D01*
X5272Y2901D01*
X5273Y2901D01*
X5274Y2901D01*
X5275Y2901D01*
X5276Y2901D01*
X5277Y2901D01*
X5278Y2901D01*
X5279Y2901D01*
X5280Y2901D01*
X5281Y2901D01*
X5282Y2901D01*
X5283Y2901D01*
X5284Y2901D01*
X5285Y2901D01*
X5286Y2901D01*
X5287Y2901D01*
X5288Y2901D01*
X5289Y2901D01*
X5290Y2901D01*
X5291Y2901D01*
X5292Y2901D01*
X5293Y2901D01*
X5294Y2901D01*
X5295Y2901D01*
X5296Y2901D01*
X5297Y2901D01*
X5298Y2901D01*
X5299Y2901D01*
X5300Y2901D01*
X5301Y2901D01*
X5302Y2901D01*
X5303Y2901D01*
X5304Y2901D01*
X5305Y2901D01*
X5306Y2901D01*
X5307Y2901D01*
X5308Y2901D01*
X5309Y2901D01*
X5310Y2901D01*
X5311Y2901D01*
X5312Y2901D01*
X5313Y2901D01*
X5314Y2901D01*
X5315Y2901D01*
X5316Y2901D01*
X5317Y2901D01*
X5318Y2901D01*
X5319Y2901D01*
X5320Y2901D01*
X5321Y2901D01*
X5322Y2901D01*
X5323Y2901D01*
X5324Y2901D01*
X5325Y2901D01*
X5326Y2901D01*
X5327Y2901D01*
X5328Y2901D01*
X5329Y2901D01*
X5330Y2901D01*
X5331Y2901D01*
X5332Y2901D01*
X5333Y2901D01*
X5334Y2901D01*
X5335Y2901D01*
X5336Y2901D01*
X5337Y2901D01*
X5338Y2901D01*
X5339Y2901D01*
X5340Y2901D01*
X5341Y2901D01*
X5342Y2901D01*
X5343Y2901D01*
X5344Y2901D01*
X5345Y2901D01*
X5346Y2901D01*
X5347Y2901D01*
X5348Y2901D01*
X5349Y2901D01*
X5350Y2901D01*
X5351Y2901D01*
X5352Y2901D01*
X5353Y2901D01*
X5354Y2901D01*
X5355Y2901D01*
X5356Y2901D01*
X5357Y2901D01*
X5358Y2901D01*
X5359Y2901D01*
X5360Y2901D01*
X5361Y2901D01*
X5362Y2901D01*
X5363Y2901D01*
X5364Y2901D01*
X5365Y2901D01*
X5366Y2901D01*
X5367Y2901D01*
X5368Y2901D01*
X5369Y2901D01*
X5370Y2901D01*
X5371Y2901D01*
X5372Y2901D01*
X5373Y2901D01*
X5374Y2901D01*
X5375Y2901D01*
X5376Y2901D01*
X5377Y2901D01*
X5378Y2901D01*
X5379Y2901D01*
X5380Y2901D01*
X5381Y2901D01*
X5382Y2901D01*
X5383Y2901D01*
X5384Y2901D01*
X5385Y2901D01*
X5386Y2901D01*
X5387Y2901D01*
X5388Y2901D01*
X5389Y2901D01*
X5390Y2901D01*
X5391Y2901D01*
X5392Y2901D01*
X5393Y2901D01*
X5394Y2901D01*
X5395Y2901D01*
X5396Y2901D01*
X5397Y2901D01*
X5398Y2901D01*
X5399Y2901D01*
X5400Y2901D01*
X5401Y2901D01*
X5402Y2901D01*
X5403Y2901D01*
X5404Y2901D01*
X5405Y2901D01*
X5406Y2901D01*
X5407Y2901D01*
X5408Y2901D01*
X5409Y2901D01*
X5410Y2901D01*
X5411Y2901D01*
X5412Y2901D01*
X5413Y2901D01*
X5414Y2901D01*
X5415Y2901D01*
X5416Y2901D01*
X5417Y2901D01*
X5418Y2901D01*
X5419Y2901D01*
X5420Y2901D01*
X5421Y2901D01*
X5422Y2901D01*
X5423Y2901D01*
X5424Y2901D01*
X5425Y2901D01*
X5426Y2901D01*
X5427Y2901D01*
X5428Y2901D01*
X5429Y2901D01*
X5430Y2901D01*
X5431Y2901D01*
X5432Y2901D01*
X5433Y2901D01*
X5434Y2901D01*
X5435Y2901D01*
X5436Y2901D01*
X5437Y2901D01*
X5438Y2901D01*
X5439Y2901D01*
X5440Y2901D01*
X5441Y2901D01*
X5442Y2901D01*
X5443Y2901D01*
X5444Y2901D01*
X5445Y2901D01*
X5446Y2901D01*
X5447Y2901D01*
X5448Y2901D01*
X5449Y2901D01*
X5450Y2901D01*
X5451Y2901D01*
X5452Y2901D01*
X5453Y2901D01*
X5454Y2901D01*
X5455Y2901D01*
X5456Y2901D01*
X5457Y2901D01*
X5458Y2901D01*
X5459Y2901D01*
X5460Y2901D01*
X5461Y2901D01*
X5462Y2901D01*
X5463Y2901D01*
X5464Y2901D01*
X5465Y2901D01*
X5466Y2901D01*
X5467Y2901D01*
X5468Y2901D01*
X5469Y2901D01*
X5470Y2901D01*
X5471Y2901D01*
X5472Y2901D01*
X5473Y2901D01*
X5474Y2901D01*
X5475Y2901D01*
X5476Y2901D01*
X5477Y2901D01*
X5478Y2901D01*
X5479Y2901D01*
X5480Y2901D01*
X5481Y2901D01*
X5482Y2901D01*
X5483Y2901D01*
X5484Y2901D01*
X5485Y2901D01*
X5486Y2901D01*
X5487Y2901D01*
X5488Y2901D01*
X5489Y2901D01*
X5490Y2901D01*
X5491Y2901D01*
X5492Y2901D01*
X5493Y2901D01*
X5494Y2901D01*
X5495Y2901D01*
X5496Y2901D01*
X5497Y2901D01*
X5498Y2901D01*
X5499Y2901D01*
X5500Y2901D01*
X5501Y2901D01*
X5502Y2901D01*
X5503Y2901D01*
X5504Y2901D01*
X5505Y2901D01*
X5506Y2901D01*
X5507Y2901D01*
X5508Y2901D01*
X5509Y2901D01*
X5510Y2901D01*
X5511Y2901D01*
X5512Y2901D01*
X5513Y2901D01*
X5514Y2901D01*
X5515Y2901D01*
X5516Y2901D01*
X5517Y2901D01*
X5518Y2901D01*
X5519Y2901D01*
X5520Y2901D01*
X5521Y2901D01*
X5522Y2901D01*
X5523Y2901D01*
X5524Y2901D01*
X5525Y2901D01*
X5526Y2901D01*
X5527Y2901D01*
X5528Y2901D01*
X5529Y2901D01*
X5530Y2901D01*
X5531Y2901D01*
X5532Y2901D01*
X5533Y2901D01*
X5534Y2901D01*
X5535Y2901D01*
X5536Y2901D01*
X5537Y2901D01*
X5538Y2901D01*
X5539Y2901D01*
X5540Y2901D01*
X5541Y2901D01*
X5542Y2901D01*
X5543Y2901D01*
X5544Y2901D01*
X5545Y2901D01*
X5546Y2901D01*
X5547Y2901D01*
X5548Y2901D01*
X5549Y2901D01*
X5550Y2901D01*
X5551Y2901D01*
X5552Y2901D01*
X5553Y2901D01*
X5554Y2901D01*
X5555Y2901D01*
X5556Y2901D01*
X5557Y2901D01*
X5558Y2901D01*
X5559Y2901D01*
X5560Y2901D01*
X5561Y2901D01*
X5562Y2901D01*
X5563Y2901D01*
X5564Y2901D01*
X5565Y2901D01*
X5566Y2901D01*
X5567Y2901D01*
X5568Y2901D01*
X5569Y2901D01*
X5570Y2901D01*
X5571Y2901D01*
X5572Y2901D01*
X5573Y2901D01*
X5574Y2901D01*
X5575Y2901D01*
X5576Y2901D01*
X5577Y2901D01*
X5578Y2901D01*
X5579Y2901D01*
X5580Y2901D01*
X5581Y2901D01*
X5582Y2901D01*
X5583Y2901D01*
X5584Y2901D01*
X5585Y2901D01*
X5586Y2901D01*
X5587Y2901D01*
X5588Y2901D01*
X5589Y2901D01*
X5590Y2901D01*
X5591Y2901D01*
X5592Y2901D01*
X5593Y2901D01*
X5594Y2901D01*
X5595Y2901D01*
X5596Y2901D01*
X5597Y2901D01*
X5598Y2901D01*
X5599Y2901D01*
X5600Y2901D01*
X5601Y2901D01*
X5602Y2901D01*
X5603Y2901D01*
X5604Y2901D01*
X5605Y2901D01*
X5606Y2901D01*
X5607Y2901D01*
X5608Y2901D01*
X5609Y2901D01*
X5610Y2901D01*
X5611Y2901D01*
X5612Y2901D01*
X5613Y2901D01*
X5614Y2901D01*
X5615Y2901D01*
X5616Y2901D01*
X5617Y2901D01*
X5618Y2901D01*
X5619Y2901D01*
X5620Y2901D01*
X5621Y2901D01*
X5622Y2901D01*
X5623Y2901D01*
X5624Y2901D01*
X5625Y2901D01*
X5626Y2901D01*
X5627Y2901D01*
X5628Y2901D01*
X5629Y2901D01*
X5630Y2901D01*
X5631Y2901D01*
X5632Y2901D01*
X5633Y2901D01*
X5634Y2901D01*
X5635Y2901D01*
X5636Y2901D01*
X5637Y2901D01*
X5638Y2901D01*
X5639Y2901D01*
X5640Y2901D01*
X5641Y2901D01*
X5642Y2901D01*
X5643Y2901D01*
X5644Y2901D01*
X5645Y2901D01*
X5646Y2901D01*
X5647Y2901D01*
X5648Y2901D01*
X5649Y2901D01*
X5650Y2901D01*
X5651Y2901D01*
X5652Y2901D01*
X5653Y2901D01*
X5654Y2901D01*
X5655Y2901D01*
X5656Y2901D01*
X5657Y2901D01*
X5658Y2901D01*
X5659Y2901D01*
X5660Y2901D01*
X5661Y2901D01*
X5662Y2901D01*
X5663Y2901D01*
X5664Y2901D01*
X5665Y2901D01*
X5666Y2901D01*
X5667Y2901D01*
X5668Y2901D01*
X5669Y2901D01*
X5670Y2901D01*
X5671Y2901D01*
X5672Y2901D01*
X5673Y2901D01*
X5674Y2901D01*
X5675Y2901D01*
X5676Y2901D01*
X5677Y2901D01*
X5678Y2901D01*
X5679Y2901D01*
X5680Y2901D01*
X5681Y2901D01*
X5682Y2901D01*
X5683Y2901D01*
X5684Y2901D01*
X5685Y2901D01*
X5686Y2901D01*
X5687Y2901D01*
X5688Y2901D01*
X5689Y2901D01*
X5690Y2901D01*
X5691Y2901D01*
X5692Y2901D01*
X5693Y2901D01*
X5694Y2901D01*
X5695Y2901D01*
X5696Y2901D01*
X5697Y2901D01*
X5698Y2901D01*
X5699Y2901D01*
X5700Y2901D01*
X5701Y2901D01*
X5702Y2901D01*
X5703Y2901D01*
X5704Y2901D01*
X5705Y2901D01*
X5706Y2901D01*
X5707Y2901D01*
X5708Y2901D01*
X5709Y2901D01*
X5710Y2901D01*
X5711Y2901D01*
X5712Y2901D01*
X5713Y2901D01*
X5714Y2901D01*
X5715Y2901D01*
X5716Y2901D01*
X5717Y2901D01*
X5718Y2901D01*
X5719Y2901D01*
X5720Y2901D01*
X5721Y2901D01*
X5722Y2901D01*
X5723Y2901D01*
X5724Y2901D01*
X5725Y2901D01*
X5726Y2901D01*
X5727Y2901D01*
X5728Y2901D01*
X5729Y2901D01*
X5730Y2901D01*
X5731Y2901D01*
X5732Y2901D01*
X5733Y2901D01*
X5734Y2901D01*
X5735Y2901D01*
X5736Y2901D01*
X5737Y2901D01*
X5738Y2901D01*
X5739Y2901D01*
X5740Y2901D01*
X5741Y2901D01*
X5742Y2901D01*
X5743Y2901D01*
X5744Y2901D01*
X5745Y2901D01*
X5746Y2901D01*
X5747Y2901D01*
X5748Y2901D01*
X5749Y2901D01*
X5750Y2901D01*
X5751Y2901D01*
X5752Y2901D01*
X5753Y2901D01*
X5754Y2901D01*
X5755Y2901D01*
X5756Y2901D01*
X5757Y2901D01*
X5758Y2901D01*
X5759Y2901D01*
X5760Y2901D01*
X5761Y2901D01*
X5762Y2901D01*
X5763Y2901D01*
X5764Y2901D01*
X5765Y2901D01*
X5766Y2901D01*
X5767Y2901D01*
X5768Y2901D01*
X5769Y2901D01*
X5770Y2901D01*
X5771Y2901D01*
X5772Y2901D01*
X5773Y2901D01*
X5774Y2901D01*
X5775Y2901D01*
X5776Y2901D01*
X5777Y2901D01*
X5778Y2901D01*
X5779Y2901D01*
X5780Y2901D01*
X5781Y2901D01*
X5782Y2901D01*
X5783Y2901D01*
X5784Y2901D01*
X5785Y2901D01*
X5786Y2901D01*
X5787Y2901D01*
X5788Y2901D01*
X5789Y2901D01*
X5790Y2901D01*
X5791Y2901D01*
X5792Y2901D01*
X5793Y2901D01*
X5794Y2901D01*
X5795Y2901D01*
X5796Y2901D01*
X5797Y2901D01*
X5798Y2901D01*
X5799Y2901D01*
X5800Y2901D01*
X5801Y2901D01*
X5802Y2901D01*
X5803Y2901D01*
X5804Y2901D01*
X5805Y2901D01*
X5806Y2901D01*
X5807Y2901D01*
X5808Y2901D01*
X5809Y2901D01*
X5810Y2901D01*
X5811Y2901D01*
X5812Y2901D01*
X5813Y2901D01*
X5814Y2901D01*
X5815Y2901D01*
X5816Y2901D01*
X5817Y2901D01*
X5818Y2901D01*
X5819Y2901D01*
X5820Y2901D01*
X5821Y2901D01*
X5822Y2901D01*
X5823Y2901D01*
X5824Y2901D01*
X5825Y2901D01*
X5826Y2901D01*
X5827Y2901D01*
X5828Y2901D01*
X5829Y2901D01*
X5830Y2901D01*
X5831Y2901D01*
X5832Y2901D01*
X5833Y2901D01*
X5834Y2901D01*
X5835Y2901D01*
X5836Y2901D01*
X5837Y2901D01*
X5838Y2901D01*
X5839Y2901D01*
X5840Y2901D01*
X5841Y2901D01*
X5842Y2901D01*
X5843Y2901D01*
X5844Y2901D01*
X5845Y2901D01*
X5846Y2901D01*
X5847Y2901D01*
X5848Y2901D01*
X5849Y2901D01*
X5850Y2901D01*
X5851Y2901D01*
X5852Y2901D01*
X5853Y2901D01*
X5854Y2901D01*
X5855Y2901D01*
X5856Y2901D01*
X5857Y2901D01*
X5858Y2901D01*
X5859Y2901D01*
X5860Y2901D01*
X5861Y2901D01*
X5862Y2901D01*
X5863Y2901D01*
X5864Y2901D01*
X5865Y2901D01*
X5866Y2901D01*
X5867Y2901D01*
X5868Y2901D01*
X5869Y2901D01*
X5870Y2901D01*
X5871Y2901D01*
X5872Y2901D01*
X5873Y2901D01*
X5874Y2901D01*
X5875Y2901D01*
X5876Y2901D01*
X5877Y2901D01*
X5878Y2901D01*
X5879Y2901D01*
X5880Y2901D01*
X5881Y2901D01*
X5882Y2901D01*
X5883Y2901D01*
X5884Y2901D01*
X5885Y2901D01*
X5886Y2901D01*
X5887Y2901D01*
X5888Y2901D01*
X5889Y2901D01*
X5890Y2901D01*
X5891Y2901D01*
X5892Y2901D01*
X5893Y2901D01*
X5894Y2901D01*
X5895Y2901D01*
X5896Y2901D01*
X5897Y2901D01*
X5898Y2901D01*
X5899Y2901D01*
X5900Y2901D01*
X5901Y2901D01*
X5902Y2901D01*
X5903Y2901D01*
X5904Y2901D01*
X5905Y2901D01*
X5906Y2901D01*
X5907Y2901D01*
X5908Y2901D01*
X5909Y2901D01*
X5910Y2901D01*
X5911Y2901D01*
X5912Y2901D01*
X5913Y2901D01*
X5914Y2901D01*
X5915Y2901D01*
X5916Y2901D01*
X5917Y2901D01*
X5918Y2901D01*
X5919Y2900D01*
X5920Y2900D01*
X5921Y2900D01*
X5922Y2900D01*
X5923Y2900D01*
X5924Y2900D01*
X5925Y2900D01*
X5926Y2900D01*
X5927Y2900D01*
X5928Y2900D01*
X5929Y2900D01*
X5930Y2900D01*
X5931Y2900D01*
X5932Y2900D01*
X5933Y2899D01*
X5934Y2899D01*
X5935Y2899D01*
X5936Y2899D01*
X5937Y2899D01*
X5938Y2899D01*
X5939Y2899D01*
X5940Y2899D01*
X5941Y2899D01*
X5942Y2898D01*
X5943Y2898D01*
X5944Y2898D01*
X5945Y2898D01*
X5946Y2898D01*
X5947Y2898D01*
X5948Y2898D01*
X5949Y2898D01*
X5950Y2897D01*
X5951Y2897D01*
X5952Y2897D01*
X5953Y2897D01*
X5954Y2897D01*
X5955Y2897D01*
X5956Y2897D01*
X5957Y2896D01*
X5958Y2896D01*
X5959Y2896D01*
X5960Y2896D01*
X5961Y2896D01*
X5962Y2896D01*
X5963Y2895D01*
X5964Y2895D01*
X5965Y2895D01*
X5966Y2895D01*
X5967Y2895D01*
X5968Y2895D01*
X5969Y2894D01*
X5970Y2894D01*
X5971Y2894D01*
X5972Y2894D01*
X5973Y2894D01*
X5974Y2893D01*
X5975Y2893D01*
X5976Y2893D01*
X5977Y2893D01*
X5978Y2892D01*
X5979Y2892D01*
X5980Y2892D01*
X5981Y2892D01*
X5982Y2892D01*
X5983Y2891D01*
X5984Y2891D01*
X5985Y2891D01*
X5986Y2891D01*
X5987Y2890D01*
X5988Y2890D01*
X5989Y2890D01*
X5990Y2890D01*
X5991Y2889D01*
X5992Y2889D01*
X5993Y2889D01*
X5994Y2889D01*
X5995Y2888D01*
X5996Y2888D01*
X5997Y2888D01*
X5998Y2887D01*
X5999Y2887D01*
X6000Y2887D01*
X6001Y2887D01*
X6002Y2886D01*
X6003Y2886D01*
X6004Y2886D01*
X6005Y2885D01*
X6006Y2885D01*
X6007Y2885D01*
X6008Y2885D01*
X6009Y2884D01*
X6010Y2884D01*
X6011Y2884D01*
X6012Y2883D01*
X6013Y2883D01*
X6014Y2883D01*
X6015Y2882D01*
X6016Y2882D01*
X6017Y2882D01*
X6018Y2881D01*
X6019Y2881D01*
X6020Y2880D01*
X6021Y2880D01*
X6022Y2880D01*
X6023Y2879D01*
X6024Y2879D01*
X6025Y2879D01*
X6026Y2878D01*
X6027Y2878D01*
X6028Y2878D01*
X6029Y2877D01*
X6030Y2877D01*
X6031Y2877D01*
X6032Y2876D01*
X6033Y2876D01*
X6034Y2875D01*
X6035Y2875D01*
X6036Y2875D01*
X6037Y2874D01*
X6038Y2874D01*
X6039Y2873D01*
X6040Y2873D01*
X6041Y2872D01*
X6042Y2872D01*
X6043Y2872D01*
X6044Y2871D01*
X6045Y2871D01*
X6046Y2870D01*
X6047Y2870D01*
X6048Y2870D01*
X6049Y2869D01*
X6050Y2869D01*
X6051Y2868D01*
X6052Y2868D01*
X6053Y2867D01*
X6054Y2867D01*
X6055Y2866D01*
X6056Y2866D01*
X6057Y2865D01*
X6058Y2865D01*
X6059Y2864D01*
X6060Y2864D01*
X6061Y2863D01*
X6062Y2863D01*
X6063Y2863D01*
X6064Y2862D01*
X6065Y2862D01*
X6066Y2861D01*
X6067Y2860D01*
X6068Y2860D01*
X6069Y2859D01*
X6070Y2859D01*
X6071Y2858D01*
X6072Y2858D01*
X6073Y2857D01*
X6074Y2857D01*
X6075Y2856D01*
X6076Y2856D01*
X6077Y2855D01*
X6078Y2855D01*
X6079Y2854D01*
X6080Y2854D01*
X6081Y2853D01*
X6082Y2852D01*
X6083Y2852D01*
X6084Y2851D01*
X6085Y2851D01*
X6086Y2850D01*
X6087Y2849D01*
X6088Y2849D01*
X6089Y2848D01*
X6090Y2848D01*
X6091Y2847D01*
X6092Y2846D01*
X6093Y2846D01*
X6094Y2845D01*
X6095Y2845D01*
X6096Y2844D01*
X6097Y2843D01*
X6098Y2843D01*
X6099Y2842D01*
X6100Y2841D01*
X6101Y2841D01*
X6102Y2840D01*
X6103Y2839D01*
X6104Y2839D01*
X6105Y2838D01*
X6106Y2837D01*
X6107Y2837D01*
X6108Y2836D01*
X6109Y2835D01*
X6110Y2835D01*
X6111Y2834D01*
X6112Y2833D01*
X6113Y2833D01*
X6114Y2832D01*
X6115Y2831D01*
X6116Y2831D01*
X6117Y2830D01*
X6118Y2829D01*
X6119Y2828D01*
X6120Y2828D01*
X6121Y2827D01*
X6122Y2826D01*
X6123Y2825D01*
X6124Y2825D01*
X6125Y2824D01*
X6126Y2823D01*
X6127Y2822D01*
X6128Y2822D01*
X6129Y2821D01*
X6130Y2820D01*
X6131Y2819D01*
X6132Y2818D01*
X6133Y2818D01*
X6134Y2817D01*
X6135Y2816D01*
X6136Y2815D01*
X6137Y2814D01*
X6138Y2813D01*
X6139Y2813D01*
X6140Y2812D01*
X6141Y2811D01*
X6142Y2810D01*
X6143Y2809D01*
X6144Y2808D01*
X6145Y2807D01*
X6146Y2807D01*
X6147Y2806D01*
X6148Y2805D01*
X6149Y2804D01*
X6150Y2803D01*
X6151Y2802D01*
X6152Y2801D01*
X6153Y2800D01*
X6154Y2799D01*
X6155Y2798D01*
X6156Y2797D01*
X6157Y2796D01*
X6158Y2795D01*
X6159Y2794D01*
X6160Y2793D01*
X6161Y2793D01*
X6162Y2792D01*
X6163Y2791D01*
X6164Y2790D01*
X6165Y2789D01*
X6166Y2788D01*
X6167Y2787D01*
X6168Y2786D01*
X6169Y2785D01*
X6169Y2784D01*
X6170Y2783D01*
X6171Y2782D01*
X6172Y2781D01*
X6173Y2780D01*
X6174Y2779D01*
X6175Y2778D01*
X6176Y2777D01*
X6177Y2776D01*
X6178Y2775D01*
X6179Y2774D01*
X6180Y2773D01*
X6180Y2772D01*
X6181Y2771D01*
X6182Y2770D01*
X6183Y2769D01*
X6184Y2768D01*
X6185Y2767D01*
X6185Y2766D01*
X6186Y2765D01*
X6187Y2764D01*
X6188Y2763D01*
X6189Y2762D01*
X6190Y2761D01*
X6190Y2760D01*
X6191Y2759D01*
X6192Y2758D01*
X6193Y2757D01*
X6194Y2756D01*
X6194Y2755D01*
X6195Y2754D01*
X6196Y2753D01*
X6197Y2752D01*
X6197Y2751D01*
X6198Y2750D01*
X6199Y2749D01*
X6200Y2748D01*
X6200Y2747D01*
X6201Y2746D01*
X6202Y2745D01*
X6203Y2744D01*
X6203Y2743D01*
X6204Y2742D01*
X6205Y2741D01*
X6206Y2740D01*
X6206Y2739D01*
X6207Y2738D01*
X6208Y2737D01*
X6208Y2736D01*
X6209Y2735D01*
X6210Y2734D01*
X6210Y2733D01*
X6211Y2732D01*
X6212Y2731D01*
X6212Y2730D01*
X6213Y2729D01*
X6214Y2728D01*
X6214Y2727D01*
X6215Y2726D01*
X6216Y2725D01*
X6216Y2724D01*
X6217Y2723D01*
X6217Y2722D01*
X6218Y2721D01*
X6219Y2720D01*
X6219Y2719D01*
X6220Y2718D01*
X6221Y2717D01*
X6221Y2716D01*
X6222Y2715D01*
X6222Y2714D01*
X6223Y2713D01*
X6224Y2712D01*
X6224Y2711D01*
X6225Y2710D01*
X6225Y2709D01*
X6226Y2708D01*
X6226Y2707D01*
X6227Y2706D01*
X6228Y2705D01*
X6228Y2704D01*
X6229Y2703D01*
X6229Y2702D01*
X6230Y2701D01*
X6230Y2700D01*
X6231Y2699D01*
X6231Y2698D01*
X6232Y2697D01*
X6233Y2696D01*
X6233Y2695D01*
X6234Y2694D01*
X6234Y2693D01*
X6235Y2692D01*
X6235Y2691D01*
X6236Y2690D01*
X6236Y2689D01*
X6237Y2688D01*
X6237Y2687D01*
X6238Y2686D01*
X6238Y2685D01*
X6239Y2684D01*
X6239Y2683D01*
X6240Y2682D01*
X6240Y2680D01*
X6241Y2679D01*
X6241Y2678D01*
X6242Y2677D01*
X6242Y2676D01*
X6243Y2675D01*
X6243Y2674D01*
X6244Y2673D01*
X6244Y2672D01*
X6245Y2671D01*
X6245Y2669D01*
X6246Y2668D01*
X6246Y2667D01*
X6247Y2666D01*
X6247Y2665D01*
X6248Y2664D01*
X6248Y2662D01*
X6249Y2661D01*
X6249Y2660D01*
X6250Y2659D01*
X6250Y2657D01*
X6251Y2656D01*
X6251Y2655D01*
X6252Y2654D01*
X6252Y2652D01*
X6253Y2651D01*
X6253Y2649D01*
X6254Y2648D01*
X6254Y2647D01*
X6255Y2646D01*
X6255Y2644D01*
X6256Y2643D01*
X6256Y2641D01*
X6257Y2640D01*
X6257Y2638D01*
X6258Y2637D01*
X6258Y2635D01*
X6259Y2634D01*
X6259Y2632D01*
X6260Y2631D01*
X6260Y2629D01*
X6261Y2628D01*
X6261Y2626D01*
X6262Y2625D01*
X6262Y2623D01*
X6263Y2622D01*
X6263Y2619D01*
X6264Y2618D01*
X6264Y2616D01*
X6265Y2615D01*
X6265Y2612D01*
X6266Y2611D01*
X6266Y2608D01*
X6267Y2607D01*
X6267Y2604D01*
X6268Y2603D01*
X6268Y2600D01*
X6269Y2599D01*
X6269Y2595D01*
X6270Y2594D01*
X6270Y2591D01*
X6271Y2590D01*
X6271Y2586D01*
X6272Y2585D01*
X6272Y2580D01*
X6273Y2579D01*
X6273Y2574D01*
X6274Y2573D01*
X6274Y2568D01*
X6275Y2567D01*
X6275Y2561D01*
X6276Y2560D01*
X6276Y2553D01*
X6277Y2552D01*
X6277Y2542D01*
X6278Y2541D01*
X6278Y2528D01*
X6279Y2527D01*
X6279Y376D01*
X6278Y375D01*
X6278Y362D01*
X6277Y361D01*
X6277Y351D01*
X6276Y350D01*
X6276Y343D01*
X6275Y342D01*
X6275Y336D01*
X6274Y335D01*
X6274Y330D01*
X6273Y329D01*
X6273Y324D01*
X6272Y323D01*
X6272Y318D01*
X6271Y317D01*
X6271Y313D01*
X6270Y312D01*
X6270Y309D01*
X6269Y308D01*
X6269Y304D01*
X6268Y303D01*
X6268Y300D01*
X6267Y299D01*
X6267Y296D01*
X6266Y295D01*
X6266Y292D01*
X6265Y291D01*
X6265Y288D01*
X6264Y287D01*
X6264Y285D01*
X6263Y284D01*
X6263Y281D01*
X6262Y280D01*
X6262Y278D01*
X6261Y277D01*
X6261Y275D01*
X6260Y274D01*
X6260Y272D01*
X6259Y271D01*
X6259Y269D01*
X6258Y268D01*
X6258Y266D01*
X6257Y265D01*
X6257Y263D01*
X6256Y262D01*
X6256Y260D01*
X6255Y259D01*
X6255Y257D01*
X6254Y256D01*
X6254Y255D01*
X6253Y254D01*
X6253Y252D01*
X6252Y251D01*
X6252Y249D01*
X6251Y248D01*
X6251Y247D01*
X6250Y246D01*
X6250Y244D01*
X6249Y243D01*
X6249Y242D01*
X6248Y241D01*
X6248Y239D01*
X6247Y238D01*
X6247Y237D01*
X6246Y236D01*
X6246Y235D01*
X6245Y234D01*
X6245Y232D01*
X6244Y231D01*
X6244Y230D01*
X6243Y229D01*
X6243Y228D01*
X6242Y227D01*
X6242Y226D01*
X6241Y225D01*
X6241Y224D01*
X6240Y223D01*
X6240Y221D01*
X6239Y220D01*
X6239Y219D01*
X6238Y218D01*
X6238Y217D01*
X6237Y216D01*
X6237Y215D01*
X6236Y214D01*
X6236Y213D01*
X6235Y212D01*
X6235Y211D01*
X6234Y210D01*
X6234Y209D01*
X6233Y208D01*
X6233Y207D01*
X6232Y206D01*
X6231Y205D01*
X6231Y204D01*
X6230Y203D01*
X6230Y202D01*
X6229Y201D01*
X6229Y200D01*
X6228Y199D01*
X6228Y198D01*
X6227Y197D01*
X6226Y196D01*
X6226Y195D01*
X6225Y194D01*
X6225Y193D01*
X6224Y192D01*
X6224Y191D01*
X6223Y190D01*
X6222Y189D01*
X6222Y188D01*
X6221Y187D01*
X6221Y186D01*
X6220Y185D01*
X6219Y184D01*
X6219Y183D01*
X6218Y182D01*
X6217Y181D01*
X6217Y180D01*
X6216Y179D01*
X6216Y178D01*
X6215Y177D01*
X6214Y176D01*
X6214Y175D01*
X6213Y174D01*
X6212Y173D01*
X6212Y172D01*
X6211Y171D01*
X6210Y170D01*
X6210Y169D01*
X6209Y168D01*
X6208Y167D01*
X6208Y166D01*
X6207Y165D01*
X6206Y164D01*
X6206Y163D01*
X6205Y162D01*
X6204Y161D01*
X6203Y160D01*
X6203Y159D01*
X6202Y158D01*
X6201Y157D01*
X6200Y156D01*
X6200Y155D01*
X6199Y154D01*
X6198Y153D01*
X6197Y152D01*
X6197Y151D01*
X6196Y150D01*
X6195Y149D01*
X6194Y148D01*
X6194Y147D01*
X6193Y146D01*
X6192Y145D01*
X6191Y144D01*
X6190Y143D01*
X6190Y142D01*
X6189Y141D01*
X6188Y140D01*
X6187Y139D01*
X6186Y138D01*
X6185Y137D01*
X6185Y136D01*
X6184Y135D01*
X6183Y134D01*
X6182Y133D01*
X6181Y132D01*
X6180Y131D01*
X6180Y130D01*
X6179Y129D01*
X6178Y128D01*
X6177Y127D01*
X6176Y126D01*
X6175Y125D01*
X6174Y124D01*
X6173Y123D01*
X6172Y122D01*
X6171Y121D01*
X6170Y120D01*
X6169Y119D01*
X6169Y118D01*
X6168Y117D01*
X6167Y116D01*
X6166Y115D01*
X6165Y114D01*
X6164Y113D01*
X6163Y112D01*
X6162Y111D01*
X6161Y110D01*
X6160Y110D01*
X6159Y109D01*
X6158Y108D01*
X6157Y107D01*
X6156Y106D01*
X6155Y105D01*
X6154Y104D01*
X6153Y103D01*
X6152Y102D01*
X6151Y101D01*
X6150Y100D01*
X6149Y99D01*
X6148Y98D01*
X6147Y97D01*
X6146Y96D01*
X6145Y96D01*
X6144Y95D01*
X6143Y94D01*
X6142Y93D01*
X6141Y92D01*
X6140Y91D01*
X6139Y90D01*
X6138Y90D01*
X6137Y89D01*
X6136Y88D01*
X6135Y87D01*
X6134Y86D01*
X6133Y85D01*
X6132Y85D01*
X6131Y84D01*
X6130Y83D01*
X6129Y82D01*
X6128Y81D01*
X6127Y81D01*
X6126Y80D01*
X6125Y79D01*
X6124Y78D01*
X6123Y78D01*
X6122Y77D01*
X6121Y76D01*
X6120Y75D01*
X6119Y75D01*
X6118Y74D01*
X6117Y73D01*
X6116Y72D01*
X6115Y72D01*
X6114Y71D01*
X6113Y70D01*
X6112Y70D01*
X6111Y69D01*
X6110Y68D01*
X6109Y68D01*
X6108Y67D01*
X6107Y66D01*
X6106Y66D01*
X6105Y65D01*
X6104Y64D01*
X6103Y64D01*
X6102Y63D01*
X6101Y62D01*
X6100Y62D01*
X6099Y61D01*
X6098Y60D01*
X6097Y60D01*
X6096Y59D01*
X6095Y58D01*
X6094Y58D01*
X6093Y57D01*
X6092Y57D01*
X6091Y56D01*
X6090Y55D01*
X6089Y55D01*
X6088Y54D01*
X6087Y54D01*
X6086Y53D01*
X6085Y52D01*
X6084Y52D01*
X6083Y51D01*
X6082Y51D01*
X6081Y50D01*
X6080Y49D01*
X6079Y49D01*
X6078Y48D01*
X6077Y48D01*
X6076Y47D01*
X6075Y47D01*
X6074Y46D01*
X6073Y46D01*
X6072Y45D01*
X6071Y45D01*
X6070Y44D01*
X6069Y44D01*
X6068Y43D01*
X6067Y43D01*
X6066Y42D01*
X6065Y41D01*
X6064Y41D01*
X6063Y40D01*
X6062Y40D01*
X6061Y40D01*
X6060Y39D01*
X6059Y39D01*
X6058Y38D01*
X6057Y38D01*
X6056Y37D01*
X6055Y37D01*
X6054Y36D01*
X6053Y36D01*
X6052Y35D01*
X6051Y35D01*
X6050Y34D01*
X6049Y34D01*
X6048Y33D01*
X6047Y33D01*
X6046Y33D01*
X6045Y32D01*
X6044Y32D01*
X6043Y31D01*
X6042Y31D01*
X6041Y31D01*
X6040Y30D01*
X6039Y30D01*
X6038Y29D01*
X6037Y29D01*
X6036Y28D01*
X6035Y28D01*
X6034Y28D01*
X6033Y27D01*
X6032Y27D01*
X6031Y26D01*
X6030Y26D01*
X6029Y26D01*
X6028Y25D01*
X6027Y25D01*
X6026Y25D01*
X6025Y24D01*
X6024Y24D01*
X6023Y24D01*
X6022Y23D01*
X6021Y23D01*
X6020Y23D01*
X6019Y22D01*
X6018Y22D01*
X6017Y21D01*
X6016Y21D01*
X6015Y21D01*
X6014Y20D01*
X6013Y20D01*
X6012Y20D01*
X6011Y19D01*
X6010Y19D01*
X6009Y19D01*
X6008Y18D01*
X6007Y18D01*
X6006Y18D01*
X6005Y18D01*
X6004Y17D01*
X6003Y17D01*
X6002Y17D01*
X6001Y16D01*
X6000Y16D01*
X5999Y16D01*
X5998Y16D01*
X5997Y15D01*
X5996Y15D01*
X5995Y15D01*
X5994Y14D01*
X5993Y14D01*
X5992Y14D01*
X5991Y14D01*
X5990Y13D01*
X5989Y13D01*
X5988Y13D01*
X5987Y13D01*
X5986Y12D01*
X5985Y12D01*
X5984Y12D01*
X5983Y12D01*
X5982Y11D01*
X5981Y11D01*
X5980Y11D01*
X5979Y11D01*
X5978Y11D01*
X5977Y10D01*
X5976Y10D01*
X5975Y10D01*
X5974Y10D01*
X5973Y9D01*
X5972Y9D01*
X5971Y9D01*
X5970Y9D01*
X5969Y9D01*
X5968Y8D01*
X5967Y8D01*
X5966Y8D01*
X5965Y8D01*
X5964Y8D01*
X5963Y8D01*
X5962Y7D01*
X5961Y7D01*
X5960Y7D01*
X5959Y7D01*
X5958Y7D01*
X5957Y7D01*
X5956Y6D01*
X5955Y6D01*
X5954Y6D01*
X5953Y6D01*
X5952Y6D01*
X5951Y6D01*
X5950Y6D01*
X5949Y5D01*
X5948Y5D01*
X5947Y5D01*
X5946Y5D01*
X5945Y5D01*
X5944Y5D01*
X5943Y5D01*
X5942Y5D01*
X5941Y4D01*
X5940Y4D01*
X5939Y4D01*
X5938Y4D01*
X5937Y4D01*
X5936Y4D01*
X5935Y4D01*
X5934Y4D01*
X5933Y4D01*
X5932Y3D01*
X5931Y3D01*
X5930Y3D01*
X5929Y3D01*
X5928Y3D01*
X5927Y3D01*
X5926Y3D01*
X5925Y3D01*
X5924Y3D01*
X5923Y3D01*
X5922Y3D01*
X5921Y3D01*
X5920Y3D01*
X5919Y3D01*
X5918Y2D01*
X5917Y2D01*
X5916Y2D01*
X5915Y2D01*
X5914Y2D01*
X5913Y2D01*
X5912Y2D01*
X5911Y2D01*
X5910Y2D01*
X5909Y2D01*
X5908Y2D01*
X5907Y2D01*
X5906Y2D01*
X5905Y2D01*
X5904Y2D01*
X5903Y2D01*
X5902Y2D01*
X5901Y2D01*
X5900Y2D01*
X5899Y2D01*
X5898Y2D01*
X5897Y2D01*
X5896Y2D01*
X5895Y2D01*
X5894Y2D01*
X5893Y2D01*
X5892Y2D01*
X5891Y2D01*
X5890Y2D01*
X5889Y2D01*
X5888Y2D01*
X5887Y2D01*
X5886Y2D01*
X5885Y2D01*
X5884Y2D01*
X5883Y2D01*
X5882Y2D01*
X5881Y2D01*
X5880Y2D01*
X5879Y2D01*
X5878Y2D01*
X5877Y2D01*
X5876Y2D01*
X5875Y2D01*
X5874Y2D01*
X5873Y2D01*
X5872Y2D01*
X5871Y2D01*
X5870Y2D01*
X5869Y2D01*
X5868Y2D01*
X5867Y2D01*
X5866Y2D01*
X5865Y2D01*
X5864Y2D01*
X5863Y2D01*
X5862Y2D01*
X5861Y2D01*
X5860Y2D01*
X5859Y2D01*
X5858Y2D01*
X5857Y2D01*
X5856Y2D01*
X5855Y2D01*
X5854Y2D01*
X5853Y2D01*
X5852Y2D01*
X5851Y2D01*
X5850Y2D01*
X5849Y2D01*
X5848Y2D01*
X5847Y2D01*
X5846Y2D01*
X5845Y2D01*
X5844Y2D01*
X5843Y2D01*
X5842Y2D01*
X5841Y2D01*
X5840Y2D01*
X5839Y2D01*
X5838Y2D01*
X5837Y2D01*
X5836Y2D01*
X5835Y2D01*
X5834Y2D01*
X5833Y2D01*
X5832Y2D01*
X5831Y2D01*
X5830Y2D01*
X5829Y2D01*
X5828Y2D01*
X5827Y2D01*
X5826Y2D01*
X5825Y2D01*
X5824Y2D01*
X5823Y2D01*
X5822Y2D01*
X5821Y2D01*
X5820Y2D01*
X5819Y2D01*
X5818Y2D01*
X5817Y2D01*
X5816Y2D01*
X5815Y2D01*
X5814Y2D01*
X5813Y2D01*
X5812Y2D01*
X5811Y2D01*
X5810Y2D01*
X5809Y2D01*
X5808Y2D01*
X5807Y2D01*
X5806Y2D01*
X5805Y2D01*
X5804Y2D01*
X5803Y2D01*
X5802Y2D01*
X5801Y2D01*
X5800Y2D01*
X5799Y2D01*
X5798Y2D01*
X5797Y2D01*
X5796Y2D01*
X5795Y2D01*
X5794Y2D01*
X5793Y2D01*
X5792Y2D01*
X5791Y2D01*
X5790Y2D01*
X5789Y2D01*
X5788Y2D01*
X5787Y2D01*
X5786Y2D01*
X5785Y2D01*
X5784Y2D01*
X5783Y2D01*
X5782Y2D01*
X5781Y2D01*
X5780Y2D01*
X5779Y2D01*
X5778Y2D01*
X5777Y2D01*
X5776Y2D01*
X5775Y2D01*
X5774Y2D01*
X5773Y2D01*
X5772Y2D01*
X5771Y2D01*
X5770Y2D01*
X5769Y2D01*
X5768Y2D01*
X5767Y2D01*
X5766Y2D01*
X5765Y2D01*
X5764Y2D01*
X5763Y2D01*
X5762Y2D01*
X5761Y2D01*
X5760Y2D01*
X5759Y2D01*
X5758Y2D01*
X5757Y2D01*
X5756Y2D01*
X5755Y2D01*
X5754Y2D01*
X5753Y2D01*
X5752Y2D01*
X5751Y2D01*
X5750Y2D01*
X5749Y2D01*
X5748Y2D01*
X5747Y2D01*
X5746Y2D01*
X5745Y2D01*
X5744Y2D01*
X5743Y2D01*
X5742Y2D01*
X5741Y2D01*
X5740Y2D01*
X5739Y2D01*
X5738Y2D01*
X5737Y2D01*
X5736Y2D01*
X5735Y2D01*
X5734Y2D01*
X5733Y2D01*
X5732Y2D01*
X5731Y2D01*
X5730Y2D01*
X5729Y2D01*
X5728Y2D01*
X5727Y2D01*
X5726Y2D01*
X5725Y2D01*
X5724Y2D01*
X5723Y2D01*
X5722Y2D01*
X5721Y2D01*
X5720Y2D01*
X5719Y2D01*
X5718Y2D01*
X5717Y2D01*
X5716Y2D01*
X5715Y2D01*
X5714Y2D01*
X5713Y2D01*
X5712Y2D01*
X5711Y2D01*
X5710Y2D01*
X5709Y2D01*
X5708Y2D01*
X5707Y2D01*
X5706Y2D01*
X5705Y2D01*
X5704Y2D01*
X5703Y2D01*
X5702Y2D01*
X5701Y2D01*
X5700Y2D01*
X5699Y2D01*
X5698Y2D01*
X5697Y2D01*
X5696Y2D01*
X5695Y2D01*
X5694Y2D01*
X5693Y2D01*
X5692Y2D01*
X5691Y2D01*
X5690Y2D01*
X5689Y2D01*
X5688Y2D01*
X5687Y2D01*
X5686Y2D01*
X5685Y2D01*
X5684Y2D01*
X5683Y2D01*
X5682Y2D01*
X5681Y2D01*
X5680Y2D01*
X5679Y2D01*
X5678Y2D01*
X5677Y2D01*
X5676Y2D01*
X5675Y2D01*
X5674Y2D01*
X5673Y2D01*
X5672Y2D01*
X5671Y2D01*
X5670Y2D01*
X5669Y2D01*
X5668Y2D01*
X5667Y2D01*
X5666Y2D01*
X5665Y2D01*
X5664Y2D01*
X5663Y2D01*
X5662Y2D01*
X5661Y2D01*
X5660Y2D01*
X5659Y2D01*
X5658Y2D01*
X5657Y2D01*
X5656Y2D01*
X5655Y2D01*
X5654Y2D01*
X5653Y2D01*
X5652Y2D01*
X5651Y2D01*
X5650Y2D01*
X5649Y2D01*
X5648Y2D01*
X5647Y2D01*
X5646Y2D01*
X5645Y2D01*
X5644Y2D01*
X5643Y2D01*
X5642Y2D01*
X5641Y2D01*
X5640Y2D01*
X5639Y2D01*
X5638Y2D01*
X5637Y2D01*
X5636Y2D01*
X5635Y2D01*
X5634Y2D01*
X5633Y2D01*
X5632Y2D01*
X5631Y2D01*
X5630Y2D01*
X5629Y2D01*
X5628Y2D01*
X5627Y2D01*
X5626Y2D01*
X5625Y2D01*
X5624Y2D01*
X5623Y2D01*
X5622Y2D01*
X5621Y2D01*
X5620Y2D01*
X5619Y2D01*
X5618Y2D01*
X5617Y2D01*
X5616Y2D01*
X5615Y2D01*
X5614Y2D01*
X5613Y2D01*
X5612Y2D01*
X5611Y2D01*
X5610Y2D01*
X5609Y2D01*
X5608Y2D01*
X5607Y2D01*
X5606Y2D01*
X5605Y2D01*
X5604Y2D01*
X5603Y2D01*
X5602Y2D01*
X5601Y2D01*
X5600Y2D01*
X5599Y2D01*
X5598Y2D01*
X5597Y2D01*
X5596Y2D01*
X5595Y2D01*
X5594Y2D01*
X5593Y2D01*
X5592Y2D01*
X5591Y2D01*
X5590Y2D01*
X5589Y2D01*
X5588Y2D01*
X5587Y2D01*
X5586Y2D01*
X5585Y2D01*
X5584Y2D01*
X5583Y2D01*
X5582Y2D01*
X5581Y2D01*
X5580Y2D01*
X5579Y2D01*
X5578Y2D01*
X5577Y2D01*
X5576Y2D01*
X5575Y2D01*
X5574Y2D01*
X5573Y2D01*
X5572Y2D01*
X5571Y2D01*
X5570Y2D01*
X5569Y2D01*
X5568Y2D01*
X5567Y2D01*
X5566Y2D01*
X5565Y2D01*
X5564Y2D01*
X5563Y2D01*
X5562Y2D01*
X5561Y2D01*
X5560Y2D01*
X5559Y2D01*
X5558Y2D01*
X5557Y2D01*
X5556Y2D01*
X5555Y2D01*
X5554Y2D01*
X5553Y2D01*
X5552Y2D01*
X5551Y2D01*
X5550Y2D01*
X5549Y2D01*
X5548Y2D01*
X5547Y2D01*
X5546Y2D01*
X5545Y2D01*
X5544Y2D01*
X5543Y2D01*
X5542Y2D01*
X5541Y2D01*
X5540Y2D01*
X5539Y2D01*
X5538Y2D01*
X5537Y2D01*
X5536Y2D01*
X5535Y2D01*
X5534Y2D01*
X5533Y2D01*
X5532Y2D01*
X5531Y2D01*
X5530Y2D01*
X5529Y2D01*
X5528Y2D01*
X5527Y2D01*
X5526Y2D01*
X5525Y2D01*
X5524Y2D01*
X5523Y2D01*
X5522Y2D01*
X5521Y2D01*
X5520Y2D01*
X5519Y2D01*
X5518Y2D01*
X5517Y2D01*
X5516Y2D01*
X5515Y2D01*
X5514Y2D01*
X5513Y2D01*
X5512Y2D01*
X5511Y2D01*
X5510Y2D01*
X5509Y2D01*
X5508Y2D01*
X5507Y2D01*
X5506Y2D01*
X5505Y2D01*
X5504Y2D01*
X5503Y2D01*
X5502Y2D01*
X5501Y2D01*
X5500Y2D01*
X5499Y2D01*
X5498Y2D01*
X5497Y2D01*
X5496Y2D01*
X5495Y2D01*
X5494Y2D01*
X5493Y2D01*
X5492Y2D01*
X5491Y2D01*
X5490Y2D01*
X5489Y2D01*
X5488Y2D01*
X5487Y2D01*
X5486Y2D01*
X5485Y2D01*
X5484Y2D01*
X5483Y2D01*
X5482Y2D01*
X5481Y2D01*
X5480Y2D01*
X5479Y2D01*
X5478Y2D01*
X5477Y2D01*
X5476Y2D01*
X5475Y2D01*
X5474Y2D01*
X5473Y2D01*
X5472Y2D01*
X5471Y2D01*
X5470Y2D01*
X5469Y2D01*
X5468Y2D01*
X5467Y2D01*
X5466Y2D01*
X5465Y2D01*
X5464Y2D01*
X5463Y2D01*
X5462Y2D01*
X5461Y2D01*
X5460Y2D01*
X5459Y2D01*
X5458Y2D01*
X5457Y2D01*
X5456Y2D01*
X5455Y2D01*
X5454Y2D01*
X5453Y2D01*
X5452Y2D01*
X5451Y2D01*
X5450Y2D01*
X5449Y2D01*
X5448Y2D01*
X5447Y2D01*
X5446Y2D01*
X5445Y2D01*
X5444Y2D01*
X5443Y2D01*
X5442Y2D01*
X5441Y2D01*
X5440Y2D01*
X5439Y2D01*
X5438Y2D01*
X5437Y2D01*
X5436Y2D01*
X5435Y2D01*
X5434Y2D01*
X5433Y2D01*
X5432Y2D01*
X5431Y2D01*
X5430Y2D01*
X5429Y2D01*
X5428Y2D01*
X5427Y2D01*
X5426Y2D01*
X5425Y2D01*
X5424Y2D01*
X5423Y2D01*
X5422Y2D01*
X5421Y2D01*
X5420Y2D01*
X5419Y2D01*
X5418Y2D01*
X5417Y2D01*
X5416Y2D01*
X5415Y2D01*
X5414Y2D01*
X5413Y2D01*
X5412Y2D01*
X5411Y2D01*
X5410Y2D01*
X5409Y2D01*
X5408Y2D01*
X5407Y2D01*
X5406Y2D01*
X5405Y2D01*
X5404Y2D01*
X5403Y2D01*
X5402Y2D01*
X5401Y2D01*
X5400Y2D01*
X5399Y2D01*
X5398Y2D01*
X5397Y2D01*
X5396Y2D01*
X5395Y2D01*
X5394Y2D01*
X5393Y2D01*
X5392Y2D01*
X5391Y2D01*
X5390Y2D01*
X5389Y2D01*
X5388Y2D01*
X5387Y2D01*
X5386Y2D01*
X5385Y2D01*
X5384Y2D01*
X5383Y2D01*
X5382Y2D01*
X5381Y2D01*
X5380Y2D01*
X5379Y2D01*
X5378Y2D01*
X5377Y2D01*
X5376Y2D01*
X5375Y2D01*
X5374Y2D01*
X5373Y2D01*
X5372Y2D01*
X5371Y2D01*
X5370Y2D01*
X5369Y2D01*
X5368Y2D01*
X5367Y2D01*
X5366Y2D01*
X5365Y2D01*
X5364Y2D01*
X5363Y2D01*
X5362Y2D01*
X5361Y2D01*
X5360Y2D01*
X5359Y2D01*
X5358Y2D01*
X5357Y2D01*
X5356Y2D01*
X5355Y2D01*
X5354Y2D01*
X5353Y2D01*
X5352Y2D01*
X5351Y2D01*
X5350Y2D01*
X5349Y2D01*
X5348Y2D01*
X5347Y2D01*
X5346Y2D01*
X5345Y2D01*
X5344Y2D01*
X5343Y2D01*
X5342Y2D01*
X5341Y2D01*
X5340Y2D01*
X5339Y2D01*
X5338Y2D01*
X5337Y2D01*
X5336Y2D01*
X5335Y2D01*
X5334Y2D01*
X5333Y2D01*
X5332Y2D01*
X5331Y2D01*
X5330Y2D01*
X5329Y2D01*
X5328Y2D01*
X5327Y2D01*
X5326Y2D01*
X5325Y2D01*
X5324Y2D01*
X5323Y2D01*
X5322Y2D01*
X5321Y2D01*
X5320Y2D01*
X5319Y2D01*
X5318Y2D01*
X5317Y2D01*
X5316Y2D01*
X5315Y2D01*
X5314Y2D01*
X5313Y2D01*
X5312Y2D01*
X5311Y2D01*
X5310Y2D01*
X5309Y2D01*
X5308Y2D01*
X5307Y2D01*
X5306Y2D01*
X5305Y2D01*
X5304Y2D01*
X5303Y2D01*
X5302Y2D01*
X5301Y2D01*
X5300Y2D01*
X5299Y2D01*
X5298Y2D01*
X5297Y2D01*
X5296Y2D01*
X5295Y2D01*
X5294Y2D01*
X5293Y2D01*
X5292Y2D01*
X5291Y2D01*
X5290Y2D01*
X5289Y2D01*
X5288Y2D01*
X5287Y2D01*
X5286Y2D01*
X5285Y2D01*
X5284Y2D01*
X5283Y2D01*
X5282Y2D01*
X5281Y2D01*
X5280Y2D01*
X5279Y2D01*
X5278Y2D01*
X5277Y2D01*
X5276Y2D01*
X5275Y2D01*
X5274Y2D01*
X5273Y2D01*
X5272Y2D01*
X5271Y2D01*
X5270Y2D01*
X5269Y2D01*
X5268Y2D01*
X5267Y2D01*
X5266Y2D01*
X5265Y2D01*
X5264Y2D01*
X5263Y2D01*
X5262Y2D01*
X5261Y2D01*
X5260Y2D01*
X5259Y2D01*
X5258Y2D01*
X5257Y2D01*
X5256Y2D01*
X5255Y2D01*
X5254Y2D01*
X5253Y2D01*
X5252Y2D01*
X5251Y2D01*
X5250Y2D01*
X5249Y2D01*
X5248Y2D01*
X5247Y2D01*
X5246Y2D01*
X5245Y2D01*
X5244Y2D01*
X5243Y2D01*
X5242Y2D01*
X5241Y2D01*
X5240Y2D01*
X5239Y2D01*
X5238Y2D01*
X5237Y2D01*
X5236Y2D01*
X5235Y2D01*
X5234Y2D01*
X5233Y2D01*
X5232Y2D01*
X5231Y2D01*
X5230Y2D01*
X5229Y2D01*
X5228Y2D01*
X5227Y2D01*
X5226Y2D01*
X5225Y2D01*
X5224Y2D01*
X5223Y2D01*
X5222Y2D01*
X5221Y2D01*
X5220Y2D01*
X5219Y2D01*
X5218Y2D01*
X5217Y2D01*
X5216Y2D01*
X5215Y2D01*
X5214Y2D01*
X5213Y2D01*
X5212Y2D01*
X5211Y2D01*
X5210Y2D01*
X5209Y2D01*
X5208Y2D01*
X5207Y2D01*
X5206Y2D01*
X5205Y2D01*
X5204Y2D01*
X5203Y2D01*
X5202Y2D01*
X5201Y2D01*
X5200Y2D01*
X5199Y2D01*
X5198Y2D01*
X5197Y2D01*
X5196Y2D01*
X5195Y2D01*
X5194Y2D01*
X5193Y2D01*
X5192Y2D01*
X5191Y2D01*
X5190Y2D01*
X5189Y2D01*
X5188Y2D01*
X5187Y2D01*
X5186Y2D01*
X5185Y2D01*
X5184Y2D01*
X5183Y2D01*
X5182Y2D01*
X5181Y2D01*
X5180Y2D01*
X5179Y2D01*
X5178Y2D01*
X5177Y2D01*
X5176Y2D01*
X5175Y2D01*
X5174Y2D01*
X5173Y2D01*
X5172Y2D01*
X5171Y2D01*
X5170Y2D01*
X5169Y2D01*
X5168Y2D01*
X5167Y2D01*
X5166Y2D01*
X5165Y2D01*
X5164Y2D01*
X5163Y2D01*
X5162Y2D01*
X5161Y2D01*
X5160Y2D01*
X5159Y2D01*
X5158Y2D01*
X5157Y2D01*
X5156Y2D01*
X5155Y2D01*
X5154Y2D01*
X5153Y2D01*
X5152Y2D01*
X5151Y2D01*
X5150Y2D01*
X5149Y2D01*
X5148Y2D01*
X5147Y2D01*
X5146Y2D01*
X5145Y2D01*
X5144Y2D01*
X5143Y2D01*
X5142Y2D01*
X5141Y2D01*
X5140Y2D01*
X5139Y2D01*
X5138Y2D01*
X5137Y2D01*
X5136Y2D01*
X5135Y2D01*
X5134Y2D01*
X5133Y2D01*
X5132Y2D01*
X5131Y2D01*
X5130Y2D01*
X5129Y2D01*
X5128Y2D01*
X5127Y2D01*
X5126Y2D01*
X5125Y2D01*
X5124Y2D01*
X5123Y2D01*
X5122Y2D01*
X5121Y2D01*
X5120Y2D01*
X5119Y2D01*
X5118Y2D01*
X5117Y2D01*
X5116Y2D01*
X5115Y2D01*
X5114Y2D01*
X5113Y2D01*
X5112Y2D01*
X5111Y2D01*
X5110Y2D01*
X5109Y2D01*
X5108Y2D01*
X5107Y2D01*
X5106Y2D01*
X5105Y2D01*
X5104Y2D01*
X5103Y2D01*
X5102Y2D01*
X5101Y2D01*
X5100Y2D01*
X5099Y2D01*
X5098Y2D01*
X5097Y2D01*
X5096Y2D01*
X5095Y2D01*
X5094Y2D01*
X5093Y2D01*
X5092Y2D01*
X5091Y2D01*
X5090Y2D01*
X5089Y2D01*
X5088Y2D01*
X5087Y2D01*
X5086Y2D01*
X5085Y2D01*
X5084Y2D01*
X5083Y2D01*
X5082Y2D01*
X5081Y2D01*
X5080Y2D01*
X5079Y2D01*
X5078Y2D01*
X5077Y2D01*
X5076Y2D01*
X5075Y2D01*
X5074Y2D01*
X5073Y2D01*
X5072Y2D01*
X5071Y2D01*
X5070Y2D01*
X5069Y2D01*
X5068Y2D01*
X5067Y2D01*
X5066Y2D01*
X5065Y2D01*
X5064Y2D01*
X5063Y2D01*
X5062Y2D01*
X5061Y2D01*
X5060Y2D01*
X5059Y2D01*
X5058Y2D01*
X5057Y2D01*
X5056Y2D01*
X5055Y2D01*
X5054Y2D01*
X5053Y2D01*
X5052Y2D01*
X5051Y2D01*
X5050Y2D01*
X5049Y2D01*
X5048Y2D01*
X5047Y2D01*
X5046Y2D01*
X5045Y2D01*
X5044Y2D01*
X5043Y2D01*
X5042Y2D01*
X5041Y2D01*
X5040Y2D01*
X5039Y2D01*
X5038Y2D01*
X5037Y2D01*
X5036Y2D01*
X5035Y2D01*
X5034Y2D01*
X5033Y2D01*
X5032Y2D01*
X5031Y2D01*
X5030Y2D01*
X5029Y2D01*
X5028Y2D01*
X5027Y2D01*
X5026Y2D01*
X5025Y2D01*
X5024Y2D01*
X5023Y2D01*
X5022Y2D01*
X5021Y2D01*
X5020Y2D01*
X5019Y2D01*
X5018Y2D01*
X5017Y2D01*
X5016Y2D01*
X5015Y2D01*
X5014Y2D01*
X5013Y2D01*
X5012Y2D01*
X5011Y2D01*
X5010Y2D01*
X5009Y2D01*
X5008Y2D01*
X5007Y2D01*
X5006Y2D01*
X5005Y2D01*
X5004Y2D01*
X5003Y2D01*
X5002Y2D01*
X5001Y2D01*
X5000Y2D01*
X4999Y2D01*
X4998Y2D01*
X4997Y2D01*
X4996Y2D01*
X4995Y2D01*
X4994Y2D01*
X4993Y2D01*
X4992Y2D01*
X4991Y2D01*
X4990Y2D01*
X4989Y2D01*
X4988Y2D01*
X4987Y2D01*
X4986Y2D01*
X4985Y2D01*
X4984Y2D01*
X4983Y2D01*
X4982Y2D01*
X4981Y2D01*
X4980Y2D01*
X4979Y2D01*
X4978Y2D01*
X4977Y2D01*
X4976Y2D01*
X4975Y2D01*
X4974Y2D01*
X4973Y2D01*
X4972Y2D01*
X4971Y2D01*
X4970Y2D01*
X4969Y2D01*
X4968Y2D01*
X4967Y2D01*
X4966Y2D01*
X4965Y2D01*
X4964Y2D01*
X4963Y2D01*
X4962Y2D01*
X4961Y2D01*
X4960Y2D01*
X4959Y2D01*
X4958Y2D01*
X4957Y2D01*
X4956Y2D01*
X4955Y2D01*
X4954Y2D01*
X4953Y2D01*
X4952Y2D01*
X4951Y2D01*
X4950Y2D01*
X4949Y2D01*
X4948Y2D01*
X4947Y2D01*
X4946Y2D01*
X4945Y2D01*
X4944Y2D01*
X4943Y2D01*
X4942Y2D01*
X4941Y2D01*
X4940Y2D01*
X4939Y2D01*
X4938Y2D01*
X4937Y2D01*
X4936Y2D01*
X4935Y2D01*
X4934Y2D01*
X4933Y2D01*
X4932Y2D01*
X4931Y2D01*
X4930Y2D01*
X4929Y2D01*
X4928Y2D01*
X4927Y2D01*
X4926Y2D01*
X4925Y2D01*
X4924Y2D01*
X4923Y2D01*
X4922Y2D01*
X4921Y2D01*
X4920Y2D01*
X4919Y2D01*
X4918Y2D01*
X4917Y2D01*
X4916Y2D01*
X4915Y2D01*
X4914Y2D01*
X4913Y2D01*
X4912Y2D01*
X4911Y2D01*
X4910Y2D01*
X4909Y2D01*
X4908Y2D01*
X4907Y2D01*
X4906Y2D01*
X4905Y2D01*
X4904Y2D01*
X4903Y2D01*
X4902Y2D01*
X4901Y2D01*
X4900Y2D01*
X4899Y2D01*
X4898Y2D01*
X4897Y2D01*
X4896Y2D01*
X4895Y2D01*
X4894Y2D01*
X4893Y2D01*
X4892Y2D01*
X4891Y2D01*
X4890Y2D01*
X4889Y2D01*
X4888Y2D01*
X4887Y2D01*
X4886Y2D01*
X4885Y2D01*
X4884Y2D01*
X4883Y2D01*
X4882Y2D01*
X4881Y2D01*
X4880Y2D01*
X4879Y2D01*
X4878Y2D01*
X4877Y2D01*
X4876Y2D01*
X4875Y2D01*
X4874Y2D01*
X4873Y2D01*
X4872Y2D01*
X4871Y2D01*
X4870Y2D01*
X4869Y2D01*
X4868Y2D01*
X4867Y2D01*
X4866Y2D01*
X4865Y2D01*
X4864Y2D01*
X4863Y2D01*
X4862Y2D01*
X4861Y2D01*
X4860Y2D01*
X4859Y2D01*
X4858Y2D01*
X4857Y2D01*
X4856Y2D01*
X4855Y2D01*
X4854Y2D01*
X4853Y2D01*
X4852Y2D01*
X4851Y2D01*
X4850Y2D01*
X4849Y2D01*
X4848Y2D01*
X4847Y2D01*
X4846Y2D01*
X4845Y2D01*
X4844Y2D01*
X4843Y2D01*
X4842Y2D01*
X4841Y2D01*
X4840Y2D01*
X4839Y2D01*
X4838Y2D01*
X4837Y2D01*
X4836Y2D01*
X4835Y2D01*
X4834Y2D01*
X4833Y2D01*
X4832Y2D01*
X4831Y2D01*
X4830Y2D01*
X4829Y2D01*
X4828Y2D01*
X4827Y2D01*
X4826Y2D01*
X4825Y2D01*
X4824Y2D01*
X4823Y2D01*
X4822Y2D01*
X4821Y2D01*
X4820Y2D01*
X4819Y2D01*
X4818Y2D01*
X4817Y2D01*
X4816Y2D01*
X4815Y2D01*
X4814Y2D01*
X4813Y2D01*
X4812Y2D01*
X4811Y2D01*
X4810Y2D01*
X4809Y2D01*
X4808Y2D01*
X4807Y2D01*
X4806Y2D01*
X4805Y2D01*
X4804Y2D01*
X4803Y2D01*
X4802Y2D01*
X4801Y2D01*
X4800Y2D01*
X4799Y2D01*
X4798Y2D01*
X4797Y2D01*
X4796Y2D01*
X4795Y2D01*
X4794Y2D01*
X4793Y2D01*
X4792Y2D01*
X4791Y2D01*
X4790Y2D01*
X4789Y2D01*
X4788Y2D01*
X4787Y2D01*
X4786Y2D01*
X4785Y2D01*
X4784Y2D01*
X4783Y2D01*
X4782Y2D01*
X4781Y2D01*
X4780Y2D01*
X4779Y2D01*
X4778Y2D01*
X4777Y2D01*
X4776Y2D01*
X4775Y2D01*
X4774Y2D01*
X4773Y2D01*
X4772Y2D01*
X4771Y2D01*
X4770Y2D01*
X4769Y2D01*
X4768Y2D01*
X4767Y2D01*
X4766Y2D01*
X4765Y2D01*
X4764Y2D01*
X4763Y2D01*
X4762Y2D01*
X4761Y2D01*
X4760Y2D01*
X4759Y2D01*
X4758Y2D01*
X4757Y2D01*
X4756Y2D01*
X4755Y2D01*
X4754Y2D01*
X4753Y2D01*
X4752Y2D01*
X4751Y2D01*
X4750Y2D01*
X4749Y2D01*
X4748Y2D01*
X4747Y2D01*
X4746Y2D01*
X4745Y2D01*
X4744Y2D01*
X4743Y2D01*
X4742Y2D01*
X4741Y2D01*
X4740Y2D01*
X4739Y2D01*
X4738Y2D01*
X4737Y2D01*
X4736Y2D01*
X4735Y2D01*
X4734Y2D01*
X4733Y2D01*
X4732Y2D01*
X4731Y2D01*
X4730Y2D01*
X4729Y2D01*
X4728Y2D01*
X4727Y2D01*
X4726Y2D01*
X4725Y2D01*
X4724Y2D01*
X4723Y2D01*
X4722Y2D01*
X4721Y2D01*
X4720Y2D01*
X4719Y2D01*
X4718Y2D01*
X4717Y2D01*
X4716Y2D01*
X4715Y2D01*
X4714Y2D01*
X4713Y2D01*
X4712Y2D01*
X4711Y2D01*
X4710Y2D01*
X4709Y2D01*
X4708Y2D01*
X4707Y2D01*
X4706Y2D01*
X4705Y2D01*
X4704Y2D01*
X4703Y2D01*
X4702Y2D01*
X4701Y2D01*
X4700Y2D01*
X4699Y2D01*
X4698Y2D01*
X4697Y2D01*
X4696Y2D01*
X4695Y2D01*
X4694Y2D01*
X4693Y2D01*
X4692Y2D01*
X4691Y2D01*
X4690Y2D01*
X4689Y2D01*
X4688Y2D01*
X4687Y2D01*
X4686Y2D01*
X4685Y2D01*
X4684Y2D01*
X4683Y2D01*
X4682Y2D01*
X4681Y2D01*
X4680Y2D01*
X4679Y2D01*
X4678Y2D01*
X4677Y2D01*
X4676Y2D01*
X4675Y2D01*
X4674Y2D01*
X4673Y2D01*
X4672Y2D01*
X4671Y2D01*
X4670Y2D01*
X4669Y2D01*
X4668Y2D01*
X4667Y2D01*
X4666Y2D01*
X4665Y2D01*
X4664Y2D01*
X4663Y2D01*
X4662Y2D01*
X4661Y2D01*
X4660Y2D01*
X4659Y2D01*
X4658Y2D01*
X4657Y2D01*
X4656Y2D01*
X4655Y2D01*
X4654Y2D01*
X4653Y2D01*
X4652Y2D01*
X4651Y2D01*
X4650Y2D01*
X4649Y2D01*
X4648Y2D01*
X4647Y2D01*
X4646Y2D01*
X4645Y2D01*
X4644Y2D01*
X4643Y2D01*
X4642Y2D01*
X4641Y2D01*
X4640Y2D01*
X4639Y2D01*
X4638Y2D01*
X4637Y2D01*
X4636Y2D01*
X4635Y2D01*
X4634Y2D01*
X4633Y2D01*
X4632Y2D01*
X4631Y2D01*
X4630Y2D01*
X4629Y2D01*
X4628Y2D01*
X4627Y2D01*
X4626Y2D01*
X4625Y2D01*
X4624Y2D01*
X4623Y2D01*
X4622Y2D01*
X4621Y2D01*
X4620Y2D01*
X4619Y2D01*
X4618Y2D01*
X4617Y2D01*
X4616Y2D01*
X4615Y2D01*
X4614Y2D01*
X4613Y2D01*
X4612Y2D01*
X4611Y2D01*
X4610Y2D01*
X4609Y2D01*
X4608Y2D01*
X4607Y2D01*
X4606Y2D01*
X4605Y2D01*
X4604Y2D01*
X4603Y2D01*
X4602Y2D01*
X4601Y2D01*
X4600Y2D01*
X4599Y2D01*
X4598Y2D01*
X4597Y2D01*
X4596Y2D01*
X4595Y2D01*
X4594Y2D01*
X4593Y2D01*
X4592Y2D01*
X4591Y2D01*
X4590Y2D01*
X4589Y2D01*
X4588Y2D01*
X4587Y2D01*
X4586Y2D01*
X4585Y2D01*
X4584Y2D01*
X4583Y2D01*
X4582Y2D01*
X4581Y2D01*
X4580Y2D01*
X4579Y2D01*
X4578Y2D01*
X4577Y2D01*
X4576Y2D01*
X4575Y2D01*
X4574Y2D01*
X4573Y2D01*
X4572Y2D01*
X4571Y2D01*
X4570Y2D01*
X4569Y2D01*
X4568Y2D01*
X4567Y2D01*
X4566Y2D01*
X4565Y2D01*
X4564Y2D01*
X4563Y2D01*
X4562Y2D01*
X4561Y2D01*
X4560Y2D01*
X4559Y2D01*
X4558Y2D01*
X4557Y2D01*
X4556Y2D01*
X4555Y2D01*
X4554Y2D01*
X4553Y2D01*
X4552Y2D01*
X4551Y2D01*
X4550Y2D01*
X4549Y2D01*
X4548Y2D01*
X4547Y2D01*
X4546Y2D01*
X4545Y2D01*
X4544Y2D01*
X4543Y2D01*
X4542Y2D01*
X4541Y2D01*
X4540Y2D01*
X4539Y2D01*
X4538Y2D01*
X4537Y2D01*
X4536Y2D01*
X4535Y2D01*
X4534Y2D01*
X4533Y2D01*
X4532Y2D01*
X4531Y2D01*
X4530Y2D01*
X4529Y2D01*
X4528Y2D01*
X4527Y2D01*
X4526Y2D01*
X4525Y2D01*
X4524Y2D01*
X4523Y2D01*
X4522Y2D01*
X4521Y2D01*
X4520Y2D01*
X4519Y2D01*
X4518Y2D01*
X4517Y2D01*
X4516Y2D01*
X4515Y2D01*
X4514Y2D01*
X4513Y2D01*
X4512Y2D01*
X4511Y2D01*
X4510Y2D01*
X4509Y2D01*
X4508Y2D01*
X4507Y2D01*
X4506Y2D01*
X4505Y2D01*
X4504Y2D01*
X4503Y2D01*
X4502Y2D01*
X4501Y2D01*
X4500Y2D01*
X4499Y2D01*
X4498Y2D01*
X4497Y2D01*
X4496Y2D01*
X4495Y2D01*
X4494Y2D01*
X4493Y2D01*
X4492Y2D01*
X4491Y2D01*
X4490Y2D01*
X4489Y2D01*
X4488Y2D01*
X4487Y2D01*
X4486Y2D01*
X4485Y2D01*
X4484Y2D01*
X4483Y2D01*
X4482Y2D01*
X4481Y2D01*
X4480Y2D01*
X4479Y2D01*
X4478Y2D01*
X4477Y2D01*
X4476Y2D01*
X4475Y2D01*
X4474Y2D01*
X4473Y2D01*
X4472Y2D01*
X4471Y2D01*
X4470Y2D01*
X4469Y2D01*
X4468Y2D01*
X4467Y2D01*
X4466Y2D01*
X4465Y2D01*
X4464Y2D01*
X4463Y2D01*
X4462Y2D01*
X4461Y2D01*
X4460Y2D01*
X4459Y2D01*
X4458Y2D01*
X4457Y2D01*
X4456Y2D01*
X4455Y2D01*
X4454Y2D01*
X4453Y2D01*
X4452Y2D01*
X4451Y2D01*
X4450Y2D01*
X4449Y2D01*
X4448Y2D01*
X4447Y2D01*
X4446Y2D01*
X4445Y2D01*
X4444Y2D01*
X4443Y2D01*
X4442Y2D01*
X4441Y2D01*
X4440Y2D01*
X4439Y2D01*
X4438Y2D01*
X4437Y2D01*
X4436Y2D01*
X4435Y2D01*
X4434Y2D01*
X4433Y2D01*
X4432Y2D01*
X4431Y2D01*
X4430Y2D01*
X4429Y2D01*
X4428Y2D01*
X4427Y2D01*
X4426Y2D01*
X4425Y2D01*
X4424Y2D01*
X4423Y2D01*
X4422Y2D01*
X4421Y2D01*
X4420Y2D01*
X4419Y2D01*
X4418Y2D01*
X4417Y2D01*
X4416Y2D01*
X4415Y2D01*
X4414Y2D01*
X4413Y2D01*
X4412Y2D01*
X4411Y2D01*
X4410Y2D01*
X4409Y2D01*
X4408Y2D01*
X4407Y2D01*
X4406Y2D01*
X4405Y2D01*
X4404Y2D01*
X4403Y2D01*
X4402Y2D01*
X4401Y2D01*
X4400Y2D01*
X4399Y2D01*
X4398Y2D01*
X4397Y2D01*
X4396Y2D01*
X4395Y2D01*
X4394Y2D01*
X4393Y2D01*
X4392Y2D01*
X4391Y2D01*
X4390Y2D01*
X4389Y2D01*
X4388Y2D01*
X4387Y2D01*
X4386Y2D01*
X4385Y2D01*
X4384Y2D01*
X4383Y2D01*
X4382Y2D01*
X4381Y2D01*
X4380Y2D01*
X4379Y2D01*
X4378Y2D01*
X4377Y2D01*
X4376Y2D01*
X4375Y2D01*
X4374Y2D01*
X4373Y2D01*
X4372Y2D01*
X4371Y2D01*
X4370Y2D01*
X4369Y2D01*
X4368Y2D01*
X4367Y2D01*
X4366Y2D01*
X4365Y2D01*
X4364Y2D01*
X4363Y2D01*
X4362Y2D01*
X4361Y2D01*
X4360Y2D01*
X4359Y2D01*
X4358Y2D01*
X4357Y2D01*
X4356Y2D01*
X4355Y2D01*
X4354Y2D01*
X4353Y2D01*
X4352Y2D01*
X4351Y2D01*
X4350Y2D01*
X4349Y2D01*
X4348Y2D01*
X4347Y2D01*
X4346Y2D01*
X4345Y2D01*
X4344Y2D01*
X4343Y2D01*
X4342Y2D01*
X4341Y2D01*
X4340Y2D01*
X4339Y2D01*
X4338Y2D01*
X4337Y2D01*
X4336Y2D01*
X4335Y2D01*
X4334Y2D01*
X4333Y2D01*
X4332Y2D01*
X4331Y2D01*
X4330Y2D01*
X4329Y2D01*
X4328Y2D01*
X4327Y2D01*
X4326Y2D01*
X4325Y2D01*
X4324Y2D01*
X4323Y2D01*
X4322Y2D01*
X4321Y2D01*
X4320Y2D01*
X4319Y2D01*
X4318Y2D01*
X4317Y2D01*
X4316Y2D01*
X4315Y2D01*
X4314Y2D01*
X4313Y2D01*
X4312Y2D01*
X4311Y2D01*
X4310Y2D01*
X4309Y2D01*
X4308Y2D01*
X4307Y2D01*
X4306Y2D01*
X4305Y2D01*
X4304Y2D01*
X4303Y2D01*
X4302Y2D01*
X4301Y2D01*
X4300Y2D01*
X4299Y2D01*
X4298Y2D01*
X4297Y2D01*
X4296Y2D01*
X4295Y2D01*
X4294Y2D01*
X4293Y2D01*
X4292Y2D01*
X4291Y2D01*
X4290Y2D01*
X4289Y2D01*
X4288Y2D01*
X4287Y2D01*
X4286Y2D01*
X4285Y2D01*
X4284Y2D01*
X4283Y2D01*
X4282Y2D01*
X4281Y2D01*
X4280Y2D01*
X4279Y2D01*
X4278Y2D01*
X4277Y2D01*
X4276Y2D01*
X4275Y2D01*
X4274Y2D01*
X4273Y2D01*
X4272Y2D01*
X4271Y2D01*
X4270Y2D01*
X4269Y2D01*
X4268Y2D01*
X4267Y2D01*
X4266Y2D01*
X4265Y2D01*
X4264Y2D01*
X4263Y2D01*
X4262Y2D01*
X4261Y2D01*
X4260Y2D01*
X4259Y2D01*
X4258Y2D01*
X4257Y2D01*
X4256Y2D01*
X4255Y2D01*
X4254Y2D01*
X4253Y2D01*
X4252Y2D01*
X4251Y2D01*
X4250Y2D01*
X4249Y2D01*
X4248Y2D01*
X4247Y2D01*
X4246Y2D01*
X4245Y2D01*
X4244Y2D01*
X4243Y2D01*
X4242Y2D01*
X4241Y2D01*
X4240Y2D01*
X4239Y2D01*
X4238Y2D01*
X4237Y2D01*
X4236Y2D01*
X4235Y2D01*
X4234Y2D01*
X4233Y2D01*
X4232Y2D01*
X4231Y2D01*
X4230Y2D01*
X4229Y2D01*
X4228Y2D01*
X4227Y2D01*
X4226Y2D01*
X4225Y2D01*
X4224Y2D01*
X4223Y2D01*
X4222Y2D01*
X4221Y2D01*
X4220Y2D01*
X4219Y2D01*
X4218Y2D01*
X4217Y2D01*
X4216Y2D01*
X4215Y2D01*
X4214Y2D01*
X4213Y2D01*
X4212Y2D01*
X4211Y2D01*
X4210Y2D01*
X4209Y2D01*
X4208Y2D01*
X4207Y2D01*
X4206Y2D01*
X4205Y2D01*
X4204Y2D01*
X4203Y2D01*
X4202Y2D01*
X4201Y2D01*
X4200Y2D01*
X4199Y2D01*
X4198Y2D01*
X4197Y2D01*
X4196Y2D01*
X4195Y2D01*
X4194Y2D01*
X4193Y2D01*
X4192Y2D01*
X4191Y2D01*
X4190Y2D01*
X4189Y2D01*
X4188Y2D01*
X4187Y2D01*
X4186Y2D01*
X4185Y2D01*
X4184Y2D01*
X4183Y2D01*
X4182Y2D01*
X4181Y2D01*
X4180Y2D01*
X4179Y2D01*
X4178Y2D01*
X4177Y2D01*
X4176Y2D01*
X4175Y2D01*
X4174Y2D01*
X4173Y2D01*
X4172Y2D01*
X4171Y2D01*
X4170Y2D01*
X4169Y2D01*
X4168Y2D01*
X4167Y2D01*
X4166Y2D01*
X4165Y2D01*
X4164Y2D01*
X4163Y2D01*
X4162Y2D01*
X4161Y2D01*
X4160Y2D01*
X4159Y2D01*
X4158Y2D01*
X4157Y2D01*
X4156Y2D01*
X4155Y2D01*
X4154Y2D01*
X4153Y2D01*
X4152Y2D01*
X4151Y2D01*
X4150Y2D01*
X4149Y2D01*
X4148Y2D01*
X4147Y2D01*
X4146Y2D01*
X4145Y2D01*
X4144Y2D01*
X4143Y2D01*
X4142Y2D01*
X4141Y2D01*
X4140Y2D01*
X4139Y2D01*
X4138Y2D01*
X4137Y2D01*
X4136Y2D01*
X4135Y2D01*
X4134Y2D01*
X4133Y2D01*
X4132Y2D01*
X4131Y2D01*
X4130Y2D01*
X4129Y2D01*
X4128Y2D01*
X4127Y2D01*
X4126Y2D01*
X4125Y2D01*
X4124Y2D01*
X4123Y2D01*
X4122Y2D01*
X4121Y2D01*
X4120Y2D01*
X4119Y2D01*
X4118Y2D01*
X4117Y2D01*
X4116Y2D01*
X4115Y2D01*
X4114Y2D01*
X4113Y2D01*
X4112Y2D01*
X4111Y2D01*
X4110Y2D01*
X4109Y2D01*
X4108Y2D01*
X4107Y2D01*
X4106Y2D01*
X4105Y2D01*
X4104Y2D01*
X4103Y2D01*
X4102Y2D01*
X4101Y2D01*
X4100Y2D01*
X4099Y2D01*
X4098Y2D01*
X4097Y2D01*
X4096Y2D01*
X4095Y2D01*
X4094Y2D01*
X4093Y2D01*
X4092Y2D01*
X4091Y2D01*
X4090Y2D01*
X4089Y2D01*
X4088Y2D01*
X4087Y2D01*
X4086Y2D01*
X4085Y2D01*
X4084Y2D01*
X4083Y2D01*
X4082Y2D01*
X4081Y2D01*
X4080Y2D01*
X4079Y2D01*
X4078Y2D01*
X4077Y2D01*
X4076Y2D01*
X4075Y2D01*
X4074Y2D01*
X4073Y2D01*
X4072Y2D01*
X4071Y2D01*
X4070Y2D01*
X4069Y2D01*
X4068Y2D01*
X4067Y2D01*
X4066Y2D01*
X4065Y2D01*
X4064Y2D01*
X4063Y2D01*
X4062Y2D01*
X4061Y2D01*
X4060Y2D01*
X4059Y2D01*
X4058Y2D01*
X4057Y2D01*
X4056Y2D01*
X4055Y2D01*
X4054Y2D01*
X4053Y2D01*
X4052Y2D01*
X4051Y2D01*
X4050Y2D01*
X4049Y2D01*
X4048Y2D01*
X4047Y2D01*
X4046Y2D01*
X4045Y2D01*
X4044Y2D01*
X4043Y2D01*
X4042Y2D01*
X4041Y2D01*
X4040Y2D01*
X4039Y2D01*
X4038Y2D01*
X4037Y2D01*
X4036Y2D01*
X4035Y2D01*
X4034Y2D01*
X4033Y2D01*
X4032Y2D01*
X4031Y2D01*
X4030Y2D01*
X4029Y2D01*
X4028Y2D01*
X4027Y2D01*
X4026Y2D01*
X4025Y2D01*
X4024Y2D01*
X4023Y2D01*
X4022Y2D01*
X4021Y2D01*
X4020Y2D01*
X4019Y2D01*
X4018Y2D01*
X4017Y2D01*
X4016Y2D01*
X4015Y2D01*
X4014Y2D01*
X4013Y2D01*
X4012Y2D01*
X4011Y2D01*
X4010Y2D01*
X4009Y2D01*
X4008Y2D01*
X4007Y2D01*
X4006Y2D01*
X4005Y2D01*
X4004Y2D01*
X4003Y2D01*
X4002Y2D01*
X4001Y2D01*
X4000Y2D01*
X3999Y2D01*
X3998Y2D01*
X3997Y2D01*
X3996Y2D01*
X3995Y2D01*
X3994Y2D01*
X3993Y2D01*
X3992Y2D01*
X3991Y2D01*
X3990Y2D01*
X3989Y2D01*
X3988Y2D01*
X3987Y2D01*
X3986Y2D01*
X3985Y2D01*
X3984Y2D01*
X3983Y2D01*
X3982Y2D01*
X3981Y2D01*
X3980Y2D01*
X3979Y2D01*
X3978Y2D01*
X3977Y2D01*
X3976Y2D01*
X3975Y2D01*
X3974Y2D01*
X3973Y2D01*
X3972Y2D01*
X3971Y2D01*
X3970Y2D01*
X3969Y2D01*
X3968Y2D01*
X3967Y2D01*
X3966Y2D01*
X3965Y2D01*
X3964Y2D01*
X3963Y2D01*
X3962Y2D01*
X3961Y2D01*
X3960Y2D01*
X3959Y2D01*
X3958Y2D01*
X3957Y2D01*
X3956Y2D01*
X3955Y2D01*
X3954Y2D01*
X3953Y2D01*
X3952Y2D01*
X3951Y2D01*
X3950Y2D01*
X3949Y2D01*
X3948Y2D01*
X3947Y2D01*
X3946Y2D01*
X3945Y2D01*
X3944Y2D01*
X3943Y2D01*
X3942Y2D01*
X3941Y2D01*
X3940Y2D01*
X3939Y2D01*
X3938Y2D01*
X3937Y2D01*
X3936Y2D01*
X3935Y2D01*
X3934Y2D01*
X3933Y2D01*
X3932Y2D01*
X3931Y2D01*
X3930Y2D01*
X3929Y2D01*
X3928Y2D01*
X3927Y2D01*
X3926Y2D01*
X3925Y2D01*
X3924Y2D01*
X3923Y2D01*
X3922Y2D01*
X3921Y2D01*
X3920Y2D01*
X3919Y2D01*
X3918Y2D01*
X3917Y2D01*
X3916Y2D01*
X3915Y2D01*
X3914Y2D01*
X3913Y2D01*
X3912Y2D01*
X3911Y2D01*
X3910Y2D01*
X3909Y2D01*
X3908Y2D01*
X3907Y2D01*
X3906Y2D01*
X3905Y2D01*
X3904Y2D01*
X3903Y2D01*
X3902Y2D01*
X3901Y2D01*
X3900Y2D01*
X3899Y2D01*
X3898Y2D01*
X3897Y2D01*
X3896Y2D01*
X3895Y2D01*
X3894Y2D01*
X3893Y2D01*
X3892Y2D01*
X3891Y2D01*
X3890Y2D01*
X3889Y2D01*
X3888Y2D01*
X3887Y2D01*
X3886Y2D01*
X3885Y2D01*
X3884Y2D01*
X3883Y2D01*
X3882Y2D01*
X3881Y2D01*
X3880Y2D01*
X3879Y2D01*
X3878Y2D01*
X3877Y2D01*
X3876Y2D01*
X3875Y2D01*
X3874Y2D01*
X3873Y2D01*
X3872Y2D01*
X3871Y2D01*
X3870Y2D01*
X3869Y2D01*
X3868Y2D01*
X3867Y2D01*
X3866Y2D01*
X3865Y2D01*
X3864Y2D01*
X3863Y2D01*
X3862Y2D01*
X3861Y2D01*
X3860Y2D01*
X3859Y2D01*
X3858Y2D01*
X3857Y2D01*
X3856Y2D01*
X3855Y2D01*
X3854Y2D01*
X3853Y2D01*
X3852Y2D01*
X3851Y2D01*
X3850Y2D01*
X3849Y2D01*
X3848Y2D01*
X3847Y2D01*
X3846Y2D01*
X3845Y2D01*
X3844Y2D01*
X3843Y2D01*
X3842Y2D01*
X3841Y2D01*
X3840Y2D01*
X3839Y2D01*
X3838Y2D01*
X3837Y2D01*
X3836Y2D01*
X3835Y2D01*
X3834Y2D01*
X3833Y2D01*
X3832Y2D01*
X3831Y2D01*
X3830Y2D01*
X3829Y2D01*
X3828Y2D01*
X3827Y2D01*
X3826Y2D01*
X3825Y2D01*
X3824Y2D01*
X3823Y2D01*
X3822Y2D01*
X3821Y2D01*
X3820Y2D01*
X3819Y2D01*
X3818Y2D01*
X3817Y2D01*
X3816Y2D01*
X3815Y2D01*
X3814Y2D01*
X3813Y2D01*
X3812Y2D01*
X3811Y2D01*
X3810Y2D01*
X3809Y2D01*
X3808Y2D01*
X3807Y2D01*
X3806Y2D01*
X3805Y2D01*
X3804Y2D01*
X3803Y2D01*
X3802Y2D01*
X3801Y2D01*
X3800Y2D01*
X3799Y2D01*
X3798Y2D01*
X3797Y2D01*
X3796Y2D01*
X3795Y2D01*
X3794Y2D01*
X3793Y2D01*
X3792Y2D01*
X3791Y2D01*
X3790Y2D01*
X3789Y2D01*
X3788Y2D01*
X3787Y2D01*
X3786Y2D01*
X3785Y2D01*
X3784Y2D01*
X3783Y2D01*
X3782Y2D01*
X3781Y2D01*
X3780Y2D01*
X3779Y2D01*
X3778Y2D01*
X3777Y2D01*
X3776Y2D01*
X3775Y2D01*
X3774Y2D01*
X3773Y2D01*
X3772Y2D01*
X3771Y2D01*
X3770Y2D01*
X3769Y2D01*
X3768Y2D01*
X3767Y2D01*
X3766Y2D01*
X3765Y2D01*
X3764Y2D01*
X3763Y2D01*
X3762Y2D01*
X3761Y2D01*
X3760Y2D01*
X3759Y2D01*
X3758Y2D01*
X3757Y2D01*
X3756Y2D01*
X3755Y2D01*
X3754Y2D01*
X3753Y2D01*
X3752Y2D01*
X3751Y2D01*
X3750Y2D01*
X3749Y2D01*
X3748Y2D01*
X3747Y2D01*
X3746Y2D01*
X3745Y2D01*
X3744Y2D01*
X3743Y2D01*
X3742Y2D01*
X3741Y2D01*
X3740Y2D01*
X3739Y2D01*
X3738Y2D01*
X3737Y2D01*
X3736Y2D01*
X3735Y2D01*
X3734Y2D01*
X3733Y2D01*
X3732Y2D01*
X3731Y2D01*
X3730Y2D01*
X3729Y2D01*
X3728Y2D01*
X3727Y2D01*
X3726Y2D01*
X3725Y2D01*
X3724Y2D01*
X3723Y2D01*
X3722Y2D01*
X3721Y2D01*
X3720Y2D01*
X3719Y2D01*
X3718Y2D01*
X3717Y2D01*
X3716Y2D01*
X3715Y2D01*
X3714Y2D01*
X3713Y2D01*
X3712Y2D01*
X3711Y2D01*
X3710Y2D01*
X3709Y2D01*
X3708Y2D01*
X3707Y2D01*
X3706Y2D01*
X3705Y2D01*
X3704Y2D01*
X3703Y2D01*
X3702Y2D01*
X3701Y2D01*
X3700Y2D01*
X3699Y2D01*
X3698Y2D01*
X3697Y2D01*
X3696Y2D01*
X3695Y2D01*
X3694Y2D01*
X3693Y2D01*
X3692Y2D01*
X3691Y2D01*
X3690Y2D01*
X3689Y2D01*
X3688Y2D01*
X3687Y2D01*
X3686Y2D01*
X3685Y2D01*
X3684Y2D01*
X3683Y2D01*
X3682Y2D01*
X3681Y2D01*
X3680Y2D01*
X3679Y2D01*
X3678Y2D01*
X3677Y2D01*
X3676Y2D01*
X3675Y2D01*
X3674Y2D01*
X3673Y2D01*
X3672Y2D01*
X3671Y2D01*
X3670Y2D01*
X3669Y2D01*
X3668Y2D01*
X3667Y2D01*
X3666Y2D01*
X3665Y2D01*
X3664Y2D01*
X3663Y2D01*
X3662Y2D01*
X3661Y2D01*
X3660Y2D01*
X3659Y2D01*
X3658Y2D01*
X3657Y2D01*
X3656Y2D01*
X3655Y2D01*
X3654Y2D01*
X3653Y2D01*
X3652Y2D01*
X3651Y2D01*
X3650Y2D01*
X3649Y2D01*
X3648Y2D01*
X3647Y2D01*
X3646Y2D01*
X3645Y2D01*
X3644Y2D01*
X3643Y2D01*
X3642Y2D01*
X3641Y2D01*
X3640Y2D01*
X3639Y2D01*
X3638Y2D01*
X3637Y2D01*
X3636Y2D01*
X3635Y2D01*
X3634Y2D01*
X3633Y2D01*
X3632Y2D01*
X3631Y2D01*
X3630Y2D01*
X3629Y2D01*
X3628Y2D01*
X3627Y2D01*
X3626Y2D01*
X3625Y2D01*
X3624Y2D01*
X3623Y2D01*
X3622Y2D01*
X3621Y2D01*
X3620Y2D01*
X3619Y2D01*
X3618Y2D01*
X3617Y2D01*
X3616Y2D01*
X3615Y2D01*
X3614Y2D01*
X3613Y2D01*
X3612Y2D01*
X3611Y2D01*
X3610Y2D01*
X3609Y2D01*
X3608Y2D01*
X3607Y2D01*
X3606Y2D01*
X3605Y2D01*
X3604Y2D01*
X3603Y2D01*
X3602Y2D01*
X3601Y2D01*
X3600Y2D01*
X3599Y2D01*
X3598Y2D01*
X3597Y2D01*
X3596Y2D01*
X3595Y2D01*
X3594Y2D01*
X3593Y2D01*
X3592Y2D01*
X3591Y2D01*
X3590Y2D01*
X3589Y2D01*
X3588Y2D01*
X3587Y2D01*
X3586Y2D01*
X3585Y2D01*
X3584Y2D01*
X3583Y2D01*
X3582Y2D01*
X3581Y2D01*
X3580Y2D01*
X3579Y2D01*
X3578Y2D01*
X3577Y2D01*
X3576Y2D01*
X3575Y2D01*
X3574Y2D01*
X3573Y2D01*
X3572Y2D01*
X3571Y2D01*
X3570Y2D01*
X3569Y2D01*
X3568Y2D01*
X3567Y2D01*
X3566Y2D01*
X3565Y2D01*
X3564Y2D01*
X3563Y2D01*
X3562Y2D01*
X3561Y2D01*
X3560Y2D01*
X3559Y2D01*
X3558Y2D01*
X3557Y2D01*
X3556Y2D01*
X3555Y2D01*
X3554Y2D01*
X3553Y2D01*
X3552Y2D01*
X3551Y2D01*
X3550Y2D01*
X3549Y2D01*
X3548Y2D01*
X3547Y2D01*
X3546Y2D01*
X3545Y2D01*
X3544Y2D01*
X3543Y2D01*
X3542Y2D01*
X3541Y2D01*
X3540Y2D01*
X3539Y2D01*
X3538Y2D01*
X3537Y2D01*
X3536Y2D01*
X3535Y2D01*
X3534Y2D01*
X3533Y2D01*
X3532Y2D01*
X3531Y2D01*
X3530Y2D01*
X3529Y2D01*
X3528Y2D01*
X3527Y2D01*
X3526Y2D01*
X3525Y2D01*
X3524Y2D01*
X3523Y2D01*
X3522Y2D01*
X3521Y2D01*
X3520Y2D01*
X3519Y2D01*
X3518Y2D01*
X3517Y2D01*
X3516Y2D01*
X3515Y2D01*
X3514Y2D01*
X3513Y2D01*
X3512Y2D01*
X3511Y2D01*
X3510Y2D01*
X3509Y2D01*
X3508Y2D01*
X3507Y2D01*
X3506Y2D01*
X3505Y2D01*
X3504Y2D01*
X3503Y2D01*
X3502Y2D01*
X3501Y2D01*
X3500Y2D01*
X3499Y2D01*
X3498Y2D01*
X3497Y2D01*
X3496Y2D01*
X3495Y2D01*
X3494Y2D01*
X3493Y2D01*
X3492Y2D01*
X3491Y2D01*
X3490Y2D01*
X3489Y2D01*
X3488Y2D01*
X3487Y2D01*
X3486Y2D01*
X3485Y2D01*
X3484Y2D01*
X3483Y2D01*
X3482Y2D01*
X3481Y2D01*
X3480Y2D01*
X3479Y2D01*
X3478Y2D01*
X3477Y2D01*
X3476Y2D01*
X3475Y2D01*
X3474Y2D01*
X3473Y2D01*
X3472Y2D01*
X3471Y2D01*
X3470Y2D01*
X3469Y2D01*
X3468Y2D01*
X3467Y2D01*
X3466Y2D01*
X3465Y2D01*
X3464Y2D01*
X3463Y2D01*
X3462Y2D01*
X3461Y2D01*
X3460Y2D01*
X3459Y2D01*
X3458Y2D01*
X3457Y2D01*
X3456Y2D01*
X3455Y2D01*
X3454Y2D01*
X3453Y2D01*
X3452Y2D01*
X3451Y2D01*
X3450Y2D01*
X3449Y2D01*
X3448Y2D01*
X3447Y2D01*
X3446Y2D01*
X3445Y2D01*
X3444Y2D01*
X3443Y2D01*
X3442Y2D01*
X3441Y2D01*
X3440Y2D01*
X3439Y2D01*
X3438Y2D01*
X3437Y2D01*
X3436Y2D01*
X3435Y2D01*
X3434Y2D01*
X3433Y2D01*
X3432Y2D01*
X3431Y2D01*
X3430Y2D01*
X3429Y2D01*
X3428Y2D01*
X3427Y2D01*
X3426Y2D01*
X3425Y2D01*
X3424Y2D01*
X3423Y2D01*
X3422Y2D01*
X3421Y2D01*
X3420Y2D01*
X3419Y2D01*
X3418Y2D01*
X3417Y2D01*
X3416Y2D01*
X3415Y2D01*
X3414Y2D01*
X3413Y2D01*
X3412Y2D01*
X3411Y2D01*
X3410Y2D01*
X3409Y2D01*
X3408Y2D01*
X3407Y2D01*
X3406Y2D01*
X3405Y2D01*
X3404Y2D01*
X3403Y2D01*
X3402Y2D01*
X3401Y2D01*
X3400Y2D01*
X3399Y2D01*
X3398Y2D01*
X3397Y2D01*
X3396Y2D01*
X3395Y2D01*
X3394Y2D01*
X3393Y2D01*
X3392Y2D01*
X3391Y2D01*
X3390Y2D01*
X3389Y2D01*
X3388Y2D01*
X3387Y2D01*
X3386Y2D01*
X3385Y2D01*
X3384Y2D01*
X3383Y2D01*
X3382Y2D01*
X3381Y2D01*
X3380Y2D01*
X3379Y2D01*
X3378Y2D01*
X3377Y2D01*
X3376Y2D01*
X3375Y2D01*
X3374Y2D01*
X3373Y2D01*
X3372Y2D01*
X3371Y2D01*
X3370Y2D01*
X3369Y2D01*
X3368Y2D01*
X3367Y2D01*
X3366Y2D01*
X3365Y2D01*
X3364Y2D01*
X3363Y2D01*
X3362Y2D01*
X3361Y2D01*
X3360Y2D01*
X3359Y2D01*
X3358Y2D01*
X3357Y2D01*
X3356Y2D01*
X3355Y2D01*
X3354Y2D01*
X3353Y2D01*
X3352Y2D01*
X3351Y2D01*
X3350Y2D01*
X3349Y2D01*
X3348Y2D01*
X3347Y2D01*
X3346Y2D01*
X3345Y2D01*
X3344Y2D01*
X3343Y2D01*
X3342Y2D01*
X3341Y2D01*
X3340Y2D01*
X3339Y2D01*
X3338Y2D01*
X3337Y2D01*
X3336Y2D01*
X3335Y2D01*
X3334Y2D01*
X3333Y2D01*
X3332Y2D01*
X3331Y2D01*
X3330Y2D01*
X3329Y2D01*
X3328Y2D01*
X3327Y2D01*
X3326Y2D01*
X3325Y2D01*
X3324Y2D01*
X3323Y2D01*
X3322Y2D01*
X3321Y2D01*
X3320Y2D01*
X3319Y2D01*
X3318Y2D01*
X3317Y2D01*
X3316Y2D01*
X3315Y2D01*
X3314Y2D01*
X3313Y2D01*
X3312Y2D01*
X3311Y2D01*
X3310Y2D01*
X3309Y2D01*
X3308Y2D01*
X3307Y2D01*
X3306Y2D01*
X3305Y2D01*
X3304Y2D01*
X3303Y2D01*
X3302Y2D01*
X3301Y2D01*
X3300Y2D01*
X3299Y2D01*
X3298Y2D01*
X3297Y2D01*
X3296Y2D01*
X3295Y2D01*
X3294Y2D01*
X3293Y2D01*
X3292Y2D01*
X3291Y2D01*
X3290Y2D01*
X3289Y2D01*
X3288Y2D01*
X3287Y2D01*
X3286Y2D01*
X3285Y2D01*
X3284Y2D01*
X3283Y2D01*
X3282Y2D01*
X3281Y2D01*
X3280Y2D01*
X3279Y2D01*
X3278Y2D01*
X3277Y2D01*
X3276Y2D01*
X3275Y2D01*
X3274Y2D01*
X3273Y2D01*
X3272Y2D01*
X3271Y2D01*
X3270Y2D01*
X3269Y2D01*
X3268Y2D01*
X3267Y2D01*
X3266Y2D01*
X3265Y2D01*
X3264Y2D01*
X3263Y2D01*
X3262Y2D01*
X3261Y2D01*
X3260Y2D01*
X3259Y2D01*
X3258Y2D01*
X3257Y2D01*
X3256Y2D01*
X3255Y2D01*
X3254Y2D01*
X3253Y2D01*
X3252Y2D01*
X3251Y2D01*
X3250Y2D01*
X3249Y2D01*
X3248Y2D01*
X3247Y2D01*
X3246Y2D01*
X3245Y2D01*
X3244Y2D01*
X3243Y2D01*
X3242Y2D01*
X3241Y2D01*
X3240Y2D01*
X3239Y2D01*
X3238Y2D01*
X3237Y2D01*
X3236Y2D01*
X3235Y2D01*
X3234Y2D01*
X3233Y2D01*
X3232Y2D01*
X3231Y2D01*
X3230Y2D01*
X3229Y2D01*
X3228Y2D01*
X3227Y2D01*
X3226Y2D01*
X3225Y2D01*
X3224Y2D01*
X3223Y2D01*
X3222Y2D01*
X3221Y2D01*
X3220Y2D01*
X3219Y2D01*
X3218Y2D01*
X3217Y2D01*
X3216Y2D01*
X3215Y2D01*
X3214Y2D01*
X3213Y2D01*
X3212Y2D01*
X3211Y2D01*
X3210Y2D01*
X3209Y2D01*
X3208Y2D01*
X3207Y2D01*
X3206Y2D01*
X3205Y2D01*
X3204Y2D01*
X3203Y2D01*
X3202Y2D01*
X3201Y2D01*
X3200Y2D01*
X3199Y2D01*
X3198Y2D01*
X3197Y2D01*
X3196Y2D01*
X3195Y2D01*
X3194Y2D01*
X3193Y2D01*
X3192Y2D01*
X3191Y2D01*
X3190Y2D01*
X3189Y2D01*
X3188Y2D01*
X3187Y2D01*
X3186Y2D01*
X3185Y2D01*
X3184Y2D01*
X3183Y2D01*
X3182Y2D01*
X3181Y2D01*
X3180Y2D01*
X3179Y2D01*
X3178Y2D01*
X3177Y2D01*
X3176Y2D01*
X3175Y2D01*
X3174Y2D01*
X3173Y2D01*
X3172Y2D01*
X3171Y2D01*
X3170Y2D01*
X3169Y2D01*
X3168Y2D01*
X3167Y2D01*
X3166Y2D01*
X3165Y2D01*
X3164Y2D01*
X3163Y2D01*
X3162Y2D01*
X3161Y2D01*
X3160Y2D01*
X3159Y2D01*
X3158Y2D01*
X3157Y2D01*
X3156Y2D01*
X3155Y2D01*
X3154Y2D01*
X3153Y2D01*
X3152Y2D01*
X3151Y2D01*
X3150Y2D01*
X3149Y2D01*
X3148Y2D01*
X3147Y2D01*
X3146Y2D01*
X3145Y2D01*
X3144Y2D01*
X3143Y2D01*
X3142Y2D01*
X3141Y2D01*
X3140Y2D01*
X3139Y2D01*
X3138Y2D01*
X3137Y2D01*
X3136Y2D01*
X3135Y2D01*
X3134Y2D01*
X3133Y2D01*
X3132Y2D01*
X3131Y2D01*
X3130Y2D01*
X3129Y2D01*
X3128Y2D01*
X3127Y2D01*
X3126Y2D01*
X3125Y2D01*
X3124Y2D01*
X3123Y2D01*
X3122Y2D01*
X3121Y2D01*
X3120Y2D01*
X3119Y2D01*
X3118Y2D01*
X3117Y2D01*
X3116Y2D01*
X3115Y2D01*
X3114Y2D01*
X3113Y2D01*
X3112Y2D01*
X3111Y2D01*
X3110Y2D01*
X3109Y2D01*
X3108Y2D01*
X3107Y2D01*
X3106Y2D01*
X3105Y2D01*
X3104Y2D01*
X3103Y2D01*
X3102Y2D01*
X3101Y2D01*
X3100Y2D01*
X3099Y2D01*
X3098Y2D01*
X3097Y2D01*
X3096Y2D01*
X3095Y2D01*
X3094Y2D01*
X3093Y2D01*
X3092Y2D01*
X3091Y2D01*
X3090Y2D01*
X3089Y2D01*
X3088Y2D01*
X3087Y2D01*
X3086Y2D01*
X3085Y2D01*
X3084Y2D01*
X3083Y2D01*
X3082Y2D01*
X3081Y2D01*
X3080Y2D01*
X3079Y2D01*
X3078Y2D01*
X3077Y2D01*
X3076Y2D01*
X3075Y2D01*
X3074Y2D01*
X3073Y2D01*
X3072Y2D01*
X3071Y2D01*
X3070Y2D01*
X3069Y2D01*
X3068Y2D01*
X3067Y2D01*
X3066Y2D01*
X3065Y2D01*
X3064Y2D01*
X3063Y2D01*
X3062Y2D01*
X3061Y2D01*
X3060Y2D01*
X3059Y2D01*
X3058Y2D01*
X3057Y2D01*
X3056Y2D01*
X3055Y2D01*
X3054Y2D01*
X3053Y2D01*
X3052Y2D01*
X3051Y2D01*
X3050Y2D01*
X3049Y2D01*
X3048Y2D01*
X3047Y2D01*
X3046Y2D01*
X3045Y2D01*
X3044Y2D01*
X3043Y2D01*
X3042Y2D01*
X3041Y2D01*
X3040Y2D01*
X3039Y2D01*
X3038Y2D01*
X3037Y2D01*
X3036Y2D01*
X3035Y2D01*
X3034Y2D01*
X3033Y2D01*
X3032Y2D01*
X3031Y2D01*
X3030Y2D01*
X3029Y2D01*
X3028Y2D01*
X3027Y2D01*
X3026Y2D01*
X3025Y2D01*
X3024Y2D01*
X3023Y2D01*
X3022Y2D01*
X3021Y2D01*
X3020Y2D01*
X3019Y2D01*
X3018Y2D01*
X3017Y2D01*
X3016Y2D01*
X3015Y2D01*
X3014Y2D01*
X3013Y2D01*
X3012Y2D01*
X3011Y2D01*
X3010Y2D01*
X3009Y2D01*
X3008Y2D01*
X3007Y2D01*
X3006Y2D01*
X3005Y2D01*
X3004Y2D01*
X3003Y2D01*
X3002Y2D01*
X3001Y2D01*
X3000Y2D01*
X2999Y2D01*
X2998Y2D01*
X2997Y2D01*
X2996Y2D01*
X2995Y2D01*
X2994Y2D01*
X2993Y2D01*
X2992Y2D01*
X2991Y2D01*
X2990Y2D01*
X2989Y2D01*
X2988Y2D01*
X2987Y2D01*
X2986Y2D01*
X2985Y2D01*
X2984Y2D01*
X2983Y2D01*
X2982Y2D01*
X2981Y2D01*
X2980Y2D01*
X2979Y2D01*
X2978Y2D01*
X2977Y2D01*
X2976Y2D01*
X2975Y2D01*
X2974Y2D01*
X2973Y2D01*
X2972Y2D01*
X2971Y2D01*
X2970Y2D01*
X2969Y2D01*
X2968Y2D01*
X2967Y2D01*
X2966Y2D01*
X2965Y2D01*
X2964Y2D01*
X2963Y2D01*
X2962Y2D01*
X2961Y2D01*
X2960Y2D01*
X2959Y2D01*
X2958Y2D01*
X2957Y2D01*
X2956Y2D01*
X2955Y2D01*
X2954Y2D01*
X2953Y2D01*
X2952Y2D01*
X2951Y2D01*
X2950Y2D01*
X2949Y2D01*
X2948Y2D01*
X2947Y2D01*
X2946Y2D01*
X2945Y2D01*
X2944Y2D01*
X2943Y2D01*
X2942Y2D01*
X2941Y2D01*
X2940Y2D01*
X2939Y2D01*
X2938Y2D01*
X2937Y2D01*
X2936Y2D01*
X2935Y2D01*
X2934Y2D01*
X2933Y2D01*
X2932Y2D01*
X2931Y2D01*
X2930Y2D01*
X2929Y2D01*
X2928Y2D01*
X2927Y2D01*
X2926Y2D01*
X2925Y2D01*
X2924Y2D01*
X2923Y2D01*
X2922Y2D01*
X2921Y2D01*
X2920Y2D01*
X2919Y2D01*
X2918Y2D01*
X2917Y2D01*
X2916Y2D01*
X2915Y2D01*
X2914Y2D01*
X2913Y2D01*
X2912Y2D01*
X2911Y2D01*
X2910Y2D01*
X2909Y2D01*
X2908Y2D01*
X2907Y2D01*
X2906Y2D01*
X2905Y2D01*
X2904Y2D01*
X2903Y2D01*
X2902Y2D01*
X2901Y2D01*
X2900Y2D01*
X2899Y2D01*
X2898Y2D01*
X2897Y2D01*
X2896Y2D01*
X2895Y2D01*
X2894Y2D01*
X2893Y2D01*
X2892Y2D01*
X2891Y2D01*
X2890Y2D01*
X2889Y2D01*
X2888Y2D01*
X2887Y2D01*
X2886Y2D01*
X2885Y2D01*
X2884Y2D01*
X2883Y2D01*
X2882Y2D01*
X2881Y2D01*
X2880Y2D01*
X2879Y2D01*
X2878Y2D01*
X2877Y2D01*
X2876Y2D01*
X2875Y2D01*
X2874Y2D01*
X2873Y2D01*
X2872Y2D01*
X2871Y2D01*
X2870Y2D01*
X2869Y2D01*
X2868Y2D01*
X2867Y2D01*
X2866Y2D01*
X2865Y2D01*
X2864Y2D01*
X2863Y2D01*
X2862Y2D01*
X2861Y2D01*
X2860Y2D01*
X2859Y2D01*
X2858Y2D01*
X2857Y2D01*
X2856Y2D01*
X2855Y2D01*
X2854Y2D01*
X2853Y2D01*
X2852Y2D01*
X2851Y2D01*
X2850Y2D01*
X2849Y2D01*
X2848Y2D01*
X2847Y2D01*
X2846Y2D01*
X2845Y2D01*
X2844Y2D01*
X2843Y2D01*
X2842Y2D01*
X2841Y2D01*
X2840Y2D01*
X2839Y2D01*
X2838Y2D01*
X2837Y2D01*
X2836Y2D01*
X2835Y2D01*
X2834Y2D01*
X2833Y2D01*
X2832Y2D01*
X2831Y2D01*
X2830Y2D01*
X2829Y2D01*
X2828Y2D01*
X2827Y2D01*
X2826Y2D01*
X2825Y2D01*
X2824Y2D01*
X2823Y2D01*
X2822Y2D01*
X2821Y2D01*
X2820Y2D01*
X2819Y2D01*
X2818Y2D01*
X2817Y2D01*
X2816Y2D01*
X2815Y2D01*
X2814Y2D01*
X2813Y2D01*
X2812Y2D01*
X2811Y2D01*
X2810Y2D01*
X2809Y2D01*
X2808Y2D01*
X2807Y2D01*
X2806Y2D01*
X2805Y2D01*
X2804Y2D01*
X2803Y2D01*
X2802Y2D01*
X2801Y2D01*
X2800Y2D01*
X2799Y2D01*
X2798Y2D01*
X2797Y2D01*
X2796Y2D01*
X2795Y2D01*
X2794Y2D01*
X2793Y2D01*
X2792Y2D01*
X2791Y2D01*
X2790Y2D01*
X2789Y2D01*
X2788Y2D01*
X2787Y2D01*
X2786Y2D01*
X2785Y2D01*
X2784Y2D01*
X2783Y2D01*
X2782Y2D01*
X2781Y2D01*
X2780Y2D01*
X2779Y2D01*
X2778Y2D01*
X2777Y2D01*
X2776Y2D01*
X2775Y2D01*
X2774Y2D01*
X2773Y2D01*
X2772Y2D01*
X2771Y2D01*
X2770Y2D01*
X2769Y2D01*
X2768Y2D01*
X2767Y2D01*
X2766Y2D01*
X2765Y2D01*
X2764Y2D01*
X2763Y2D01*
X2762Y2D01*
X2761Y2D01*
X2760Y2D01*
X2759Y2D01*
X2758Y2D01*
X2757Y2D01*
X2756Y2D01*
X2755Y2D01*
X2754Y2D01*
X2753Y2D01*
X2752Y2D01*
X2751Y2D01*
X2750Y2D01*
X2749Y2D01*
X2748Y2D01*
X2747Y2D01*
X2746Y2D01*
X2745Y2D01*
X2744Y2D01*
X2743Y2D01*
X2742Y2D01*
X2741Y2D01*
X2740Y2D01*
X2739Y2D01*
X2738Y2D01*
X2737Y2D01*
X2736Y2D01*
X2735Y2D01*
X2734Y2D01*
X2733Y2D01*
X2732Y2D01*
X2731Y2D01*
X2730Y2D01*
X2729Y2D01*
X2728Y2D01*
X2727Y2D01*
X2726Y2D01*
X2725Y2D01*
X2724Y2D01*
X2723Y2D01*
X2722Y2D01*
X2721Y2D01*
X2720Y2D01*
X2719Y2D01*
X2718Y2D01*
X2717Y2D01*
X2716Y2D01*
X2715Y2D01*
X2714Y2D01*
X2713Y2D01*
X2712Y2D01*
X2711Y2D01*
X2710Y2D01*
X2709Y2D01*
X2708Y2D01*
X2707Y2D01*
X2706Y2D01*
X2705Y2D01*
X2704Y2D01*
X2703Y2D01*
X2702Y2D01*
X2701Y2D01*
X2700Y2D01*
X2699Y2D01*
X2698Y2D01*
X2697Y2D01*
X2696Y2D01*
X2695Y2D01*
X2694Y2D01*
X2693Y2D01*
X2692Y2D01*
X2691Y2D01*
X2690Y2D01*
X2689Y2D01*
X2688Y2D01*
X2687Y2D01*
X2686Y2D01*
X2685Y2D01*
X2684Y2D01*
X2683Y2D01*
X2682Y2D01*
X2681Y2D01*
X2680Y2D01*
X2679Y2D01*
X2678Y2D01*
X2677Y2D01*
X2676Y2D01*
X2675Y2D01*
X2674Y2D01*
X2673Y2D01*
X2672Y2D01*
X2671Y2D01*
X2670Y2D01*
X2669Y2D01*
X2668Y2D01*
X2667Y2D01*
X2666Y2D01*
X2665Y2D01*
X2664Y2D01*
X2663Y2D01*
X2662Y2D01*
X2661Y2D01*
X2660Y2D01*
X2659Y2D01*
X2658Y2D01*
X2657Y2D01*
X2656Y2D01*
X2655Y2D01*
X2654Y2D01*
X2653Y2D01*
X2652Y2D01*
X2651Y2D01*
X2650Y2D01*
X2649Y2D01*
X2648Y2D01*
X2647Y2D01*
X2646Y2D01*
X2645Y2D01*
X2644Y2D01*
X2643Y2D01*
X2642Y2D01*
X2641Y2D01*
X2640Y2D01*
X2639Y2D01*
X2638Y2D01*
X2637Y2D01*
X2636Y2D01*
X2635Y2D01*
X2634Y2D01*
X2633Y2D01*
X2632Y2D01*
X2631Y2D01*
X2630Y2D01*
X2629Y2D01*
X2628Y2D01*
X2627Y2D01*
X2626Y2D01*
X2625Y2D01*
X2624Y2D01*
X2623Y2D01*
X2622Y2D01*
X2621Y2D01*
X2620Y2D01*
X2619Y2D01*
X2618Y2D01*
X2617Y2D01*
X2616Y2D01*
X2615Y2D01*
X2614Y2D01*
X2613Y2D01*
X2612Y2D01*
X2611Y2D01*
X2610Y2D01*
X2609Y2D01*
X2608Y2D01*
X2607Y2D01*
X2606Y2D01*
X2605Y2D01*
X2604Y2D01*
X2603Y2D01*
X2602Y2D01*
X2601Y2D01*
X2600Y2D01*
X2599Y2D01*
X2598Y2D01*
X2597Y2D01*
X2596Y2D01*
X2595Y2D01*
X2594Y2D01*
X2593Y2D01*
X2592Y2D01*
X2591Y2D01*
X2590Y2D01*
X2589Y2D01*
X2588Y2D01*
X2587Y2D01*
X2586Y2D01*
X2585Y2D01*
X2584Y2D01*
X2583Y2D01*
X2582Y2D01*
X2581Y2D01*
X2580Y2D01*
X2579Y2D01*
X2578Y2D01*
X2577Y2D01*
X2576Y2D01*
X2575Y2D01*
X2574Y2D01*
X2573Y2D01*
X2572Y2D01*
X2571Y2D01*
X2570Y2D01*
X2569Y2D01*
X2568Y2D01*
X2567Y2D01*
X2566Y2D01*
X2565Y2D01*
X2564Y2D01*
X2563Y2D01*
X2562Y2D01*
X2561Y2D01*
X2560Y2D01*
X2559Y2D01*
X2558Y2D01*
X2557Y2D01*
X2556Y2D01*
X2555Y2D01*
X2554Y2D01*
X2553Y2D01*
X2552Y2D01*
X2551Y2D01*
X2550Y2D01*
X2549Y2D01*
X2548Y2D01*
X2547Y2D01*
X2546Y2D01*
X2545Y2D01*
X2544Y2D01*
X2543Y2D01*
X2542Y2D01*
X2541Y2D01*
X2540Y2D01*
X2539Y2D01*
X2538Y2D01*
X2537Y2D01*
X2536Y2D01*
X2535Y2D01*
X2534Y2D01*
X2533Y2D01*
X2532Y2D01*
X2531Y2D01*
X2530Y2D01*
X2529Y2D01*
X2528Y2D01*
X2527Y2D01*
X2526Y2D01*
X2525Y2D01*
X2524Y2D01*
X2523Y2D01*
X2522Y2D01*
X2521Y2D01*
X2520Y2D01*
X2519Y2D01*
X2518Y2D01*
X2517Y2D01*
X2516Y2D01*
X2515Y2D01*
X2514Y2D01*
X2513Y2D01*
X2512Y2D01*
X2511Y2D01*
X2510Y2D01*
X2509Y2D01*
X2508Y2D01*
X2507Y2D01*
X2506Y2D01*
X2505Y2D01*
X2504Y2D01*
X2503Y2D01*
X2502Y2D01*
X2501Y2D01*
X2500Y2D01*
X2499Y2D01*
X2498Y2D01*
X2497Y2D01*
X2496Y2D01*
X2495Y2D01*
X2494Y2D01*
X2493Y2D01*
X2492Y2D01*
X2491Y2D01*
X2490Y2D01*
X2489Y2D01*
X2488Y2D01*
X2487Y2D01*
X2486Y2D01*
X2485Y2D01*
X2484Y2D01*
X2483Y2D01*
X2482Y2D01*
X2481Y2D01*
X2480Y2D01*
X2479Y2D01*
X2478Y2D01*
X2477Y2D01*
X2476Y2D01*
X2475Y2D01*
X2474Y2D01*
X2473Y2D01*
X2472Y2D01*
X2471Y2D01*
X2470Y2D01*
X2469Y2D01*
X2468Y2D01*
X2467Y2D01*
X2466Y2D01*
X2465Y2D01*
X2464Y2D01*
X2463Y2D01*
X2462Y2D01*
X2461Y2D01*
X2460Y2D01*
X2459Y2D01*
X2458Y2D01*
X2457Y2D01*
X2456Y2D01*
X2455Y2D01*
X2454Y2D01*
X2453Y2D01*
X2452Y2D01*
X2451Y2D01*
X2450Y2D01*
X2449Y2D01*
X2448Y2D01*
X2447Y2D01*
X2446Y2D01*
X2445Y2D01*
X2444Y2D01*
X2443Y2D01*
X2442Y2D01*
X2441Y2D01*
X2440Y2D01*
X2439Y2D01*
X2438Y2D01*
X2437Y2D01*
X2436Y2D01*
X2435Y2D01*
X2434Y2D01*
X2433Y2D01*
X2432Y2D01*
X2431Y2D01*
X2430Y2D01*
X2429Y2D01*
X2428Y2D01*
X2427Y2D01*
X2426Y2D01*
X2425Y2D01*
X2424Y2D01*
X2423Y2D01*
X2422Y2D01*
X2421Y2D01*
X2420Y2D01*
X2419Y2D01*
X2418Y2D01*
X2417Y2D01*
X2416Y2D01*
X2415Y2D01*
X2414Y2D01*
X2413Y2D01*
X2412Y2D01*
X2411Y2D01*
X2410Y2D01*
X2409Y2D01*
X2408Y2D01*
X2407Y2D01*
X2406Y2D01*
X2405Y2D01*
X2404Y2D01*
X2403Y2D01*
X2402Y2D01*
X2401Y2D01*
X2400Y2D01*
X2399Y2D01*
X2398Y2D01*
X2397Y2D01*
X2396Y2D01*
X2395Y2D01*
X2394Y2D01*
X2393Y2D01*
X2392Y2D01*
X2391Y2D01*
X2390Y2D01*
X2389Y2D01*
X2388Y2D01*
X2387Y2D01*
X2386Y2D01*
X2385Y2D01*
X2384Y2D01*
X2383Y2D01*
X2382Y2D01*
X2381Y2D01*
X2380Y2D01*
X2379Y2D01*
X2378Y2D01*
X2377Y2D01*
X2376Y2D01*
X2375Y2D01*
X2374Y2D01*
X2373Y2D01*
X2372Y2D01*
X2371Y2D01*
X2370Y2D01*
X2369Y2D01*
X2368Y2D01*
X2367Y2D01*
X2366Y2D01*
X2365Y2D01*
X2364Y2D01*
X2363Y2D01*
X2362Y2D01*
X2361Y2D01*
X2360Y2D01*
X2359Y2D01*
X2358Y2D01*
X2357Y2D01*
X2356Y2D01*
X2355Y2D01*
X2354Y2D01*
X2353Y2D01*
X2352Y2D01*
X2351Y2D01*
X2350Y2D01*
X2349Y2D01*
X2348Y2D01*
X2347Y2D01*
X2346Y2D01*
X2345Y2D01*
X2344Y2D01*
X2343Y2D01*
X2342Y2D01*
X2341Y2D01*
X2340Y2D01*
X2339Y2D01*
X2338Y2D01*
X2337Y2D01*
X2336Y2D01*
X2335Y2D01*
X2334Y2D01*
X2333Y2D01*
X2332Y2D01*
X2331Y2D01*
X2330Y2D01*
X2329Y2D01*
X2328Y2D01*
X2327Y2D01*
X2326Y2D01*
X2325Y2D01*
X2324Y2D01*
X2323Y2D01*
X2322Y2D01*
X2321Y2D01*
X2320Y2D01*
X2319Y2D01*
X2318Y2D01*
X2317Y2D01*
X2316Y2D01*
X2315Y2D01*
X2314Y2D01*
X2313Y2D01*
X2312Y2D01*
X2311Y2D01*
X2310Y2D01*
X2309Y2D01*
X2308Y2D01*
X2307Y2D01*
X2306Y2D01*
X2305Y2D01*
X2304Y2D01*
X2303Y2D01*
X2302Y2D01*
X2301Y2D01*
X2300Y2D01*
X2299Y2D01*
X2298Y2D01*
X2297Y2D01*
X2296Y2D01*
X2295Y2D01*
X2294Y2D01*
X2293Y2D01*
X2292Y2D01*
X2291Y2D01*
X2290Y2D01*
X2289Y2D01*
X2288Y2D01*
X2287Y2D01*
X2286Y2D01*
X2285Y2D01*
X2284Y2D01*
X2283Y2D01*
X2282Y2D01*
X2281Y2D01*
X2280Y2D01*
X2279Y2D01*
X2278Y2D01*
X2277Y2D01*
X2276Y2D01*
X2275Y2D01*
X2274Y2D01*
X2273Y2D01*
X2272Y2D01*
X2271Y2D01*
X2270Y2D01*
X2269Y2D01*
X2268Y2D01*
X2267Y2D01*
X2266Y2D01*
X2265Y2D01*
X2264Y2D01*
X2263Y2D01*
X2262Y2D01*
X2261Y2D01*
X2260Y2D01*
X2259Y2D01*
X2258Y2D01*
X2257Y2D01*
X2256Y2D01*
X2255Y2D01*
X2254Y2D01*
X2253Y2D01*
X2252Y2D01*
X2251Y2D01*
X2250Y2D01*
X2249Y2D01*
X2248Y2D01*
X2247Y2D01*
X2246Y2D01*
X2245Y2D01*
X2244Y2D01*
X2243Y2D01*
X2242Y2D01*
X2241Y2D01*
X2240Y2D01*
X2239Y2D01*
X2238Y2D01*
X2237Y2D01*
X2236Y2D01*
X2235Y2D01*
X2234Y2D01*
X2233Y2D01*
X2232Y2D01*
X2231Y2D01*
X2230Y2D01*
X2229Y2D01*
X2228Y2D01*
X2227Y2D01*
X2226Y2D01*
X2225Y2D01*
X2224Y2D01*
X2223Y2D01*
X2222Y2D01*
X2221Y2D01*
X2220Y2D01*
X2219Y2D01*
X2218Y2D01*
X2217Y2D01*
X2216Y2D01*
X2215Y2D01*
X2214Y2D01*
X2213Y2D01*
X2212Y2D01*
X2211Y2D01*
X2210Y2D01*
X2209Y2D01*
X2208Y2D01*
X2207Y2D01*
X2206Y2D01*
X2205Y2D01*
X2204Y2D01*
X2203Y2D01*
X2202Y2D01*
X2201Y2D01*
X2200Y2D01*
X2199Y2D01*
X2198Y2D01*
X2197Y2D01*
X2196Y2D01*
X2195Y2D01*
X2194Y2D01*
X2193Y2D01*
X2192Y2D01*
X2191Y2D01*
X2190Y2D01*
X2189Y2D01*
X2188Y2D01*
X2187Y2D01*
X2186Y2D01*
X2185Y2D01*
X2184Y2D01*
X2183Y2D01*
X2182Y2D01*
X2181Y2D01*
X2180Y2D01*
X2179Y2D01*
X2178Y2D01*
X2177Y2D01*
X2176Y2D01*
X2175Y2D01*
X2174Y2D01*
X2173Y2D01*
X2172Y2D01*
X2171Y2D01*
X2170Y2D01*
X2169Y2D01*
X2168Y2D01*
X2167Y2D01*
X2166Y2D01*
X2165Y2D01*
X2164Y2D01*
X2163Y2D01*
X2162Y2D01*
X2161Y2D01*
X2160Y2D01*
X2159Y2D01*
X2158Y2D01*
X2157Y2D01*
X2156Y2D01*
X2155Y2D01*
X2154Y2D01*
X2153Y2D01*
X2152Y2D01*
X2151Y2D01*
X2150Y2D01*
X2149Y2D01*
X2148Y2D01*
X2147Y2D01*
X2146Y2D01*
X2145Y2D01*
X2144Y2D01*
X2143Y2D01*
X2142Y2D01*
X2141Y2D01*
X2140Y2D01*
X2139Y2D01*
X2138Y2D01*
X2137Y2D01*
X2136Y2D01*
X2135Y2D01*
X2134Y2D01*
X2133Y2D01*
X2132Y2D01*
X2131Y2D01*
X2130Y2D01*
X2129Y2D01*
X2128Y2D01*
X2127Y2D01*
X2126Y2D01*
X2125Y2D01*
X2124Y2D01*
X2123Y2D01*
X2122Y2D01*
X2121Y2D01*
X2120Y2D01*
X2119Y2D01*
X2118Y2D01*
X2117Y2D01*
X2116Y2D01*
X2115Y2D01*
X2114Y2D01*
X2113Y2D01*
X2112Y2D01*
X2111Y2D01*
X2110Y2D01*
X2109Y2D01*
X2108Y2D01*
X2107Y2D01*
X2106Y2D01*
X2105Y2D01*
X2104Y2D01*
X2103Y2D01*
X2102Y2D01*
X2101Y2D01*
X2100Y2D01*
X2099Y2D01*
X2098Y2D01*
X2097Y2D01*
X2096Y2D01*
X2095Y2D01*
X2094Y2D01*
X2093Y2D01*
X2092Y2D01*
X2091Y2D01*
X2090Y2D01*
X2089Y2D01*
X2088Y2D01*
X2087Y2D01*
X2086Y2D01*
X2085Y2D01*
X2084Y2D01*
X2083Y2D01*
X2082Y2D01*
X2081Y2D01*
X2080Y2D01*
X2079Y2D01*
X2078Y2D01*
X2077Y2D01*
X2076Y2D01*
X2075Y2D01*
X2074Y2D01*
X2073Y2D01*
X2072Y2D01*
X2071Y2D01*
X2070Y2D01*
X2069Y2D01*
X2068Y2D01*
X2067Y2D01*
X2066Y2D01*
X2065Y2D01*
X2064Y2D01*
X2063Y2D01*
X2062Y2D01*
X2061Y2D01*
X2060Y2D01*
X2059Y2D01*
X2058Y2D01*
X2057Y2D01*
X2056Y2D01*
X2055Y2D01*
X2054Y2D01*
X2053Y2D01*
X2052Y2D01*
X2051Y2D01*
X2050Y2D01*
X2049Y2D01*
X2048Y2D01*
X2047Y2D01*
X2046Y2D01*
X2045Y2D01*
X2044Y2D01*
X2043Y2D01*
X2042Y2D01*
X2041Y2D01*
X2040Y2D01*
X2039Y2D01*
X2038Y2D01*
X2037Y2D01*
X2036Y2D01*
X2035Y2D01*
X2034Y2D01*
X2033Y2D01*
X2032Y2D01*
X2031Y2D01*
X2030Y2D01*
X2029Y2D01*
X2028Y2D01*
X2027Y2D01*
X2026Y2D01*
X2025Y2D01*
X2024Y2D01*
X2023Y2D01*
X2022Y2D01*
X2021Y2D01*
X2020Y2D01*
X2019Y2D01*
X2018Y2D01*
X2017Y2D01*
X2016Y2D01*
X2015Y2D01*
X2014Y2D01*
X2013Y2D01*
X2012Y2D01*
X2011Y2D01*
X2010Y2D01*
X2009Y2D01*
X2008Y2D01*
X2007Y2D01*
X2006Y2D01*
X2005Y2D01*
X2004Y2D01*
X2003Y2D01*
X2002Y2D01*
X2001Y2D01*
X2000Y2D01*
X1999Y2D01*
X1998Y2D01*
X1997Y2D01*
X1996Y2D01*
X1995Y2D01*
X1994Y2D01*
X1993Y2D01*
X1992Y2D01*
X1991Y2D01*
X1990Y2D01*
X1989Y2D01*
X1988Y2D01*
X1987Y2D01*
X1986Y2D01*
X1985Y2D01*
X1984Y2D01*
X1983Y2D01*
X1982Y2D01*
X1981Y2D01*
X1980Y2D01*
X1979Y2D01*
X1978Y2D01*
X1977Y2D01*
X1976Y2D01*
X1975Y2D01*
X1974Y2D01*
X1973Y2D01*
X1972Y2D01*
X1971Y2D01*
X1970Y2D01*
X1969Y2D01*
X1968Y2D01*
X1967Y2D01*
X1966Y2D01*
X1965Y2D01*
X1964Y2D01*
X1963Y2D01*
X1962Y2D01*
X1961Y2D01*
X1960Y2D01*
X1959Y2D01*
X1958Y2D01*
X1957Y2D01*
X1956Y2D01*
X1955Y2D01*
X1954Y2D01*
X1953Y2D01*
X1952Y2D01*
X1951Y2D01*
X1950Y2D01*
X1949Y2D01*
X1948Y2D01*
X1947Y2D01*
X1946Y2D01*
X1945Y2D01*
X1944Y2D01*
X1943Y2D01*
X1942Y2D01*
X1941Y2D01*
X1940Y2D01*
X1939Y2D01*
X1938Y2D01*
X1937Y2D01*
X1936Y2D01*
X1935Y2D01*
X1934Y2D01*
X1933Y2D01*
X1932Y2D01*
X1931Y2D01*
X1930Y2D01*
X1929Y2D01*
X1928Y2D01*
X1927Y2D01*
X1926Y2D01*
X1925Y2D01*
X1924Y2D01*
X1923Y2D01*
X1922Y2D01*
X1921Y2D01*
X1920Y2D01*
X1919Y2D01*
X1918Y2D01*
X1917Y2D01*
X1916Y2D01*
X1915Y2D01*
X1914Y2D01*
X1913Y2D01*
X1912Y2D01*
X1911Y2D01*
X1910Y2D01*
X1909Y2D01*
X1908Y2D01*
X1907Y2D01*
X1906Y2D01*
X1905Y2D01*
X1904Y2D01*
X1903Y2D01*
X1902Y2D01*
X1901Y2D01*
X1900Y2D01*
X1899Y2D01*
X1898Y2D01*
X1897Y2D01*
X1896Y2D01*
X1895Y2D01*
X1894Y2D01*
X1893Y2D01*
X1892Y2D01*
X1891Y2D01*
X1890Y2D01*
X1889Y2D01*
X1888Y2D01*
X1887Y2D01*
X1886Y2D01*
X1885Y2D01*
X1884Y2D01*
X1883Y2D01*
X1882Y2D01*
X1881Y2D01*
X1880Y2D01*
X1879Y2D01*
X1878Y2D01*
X1877Y2D01*
X1876Y2D01*
X1875Y2D01*
X1874Y2D01*
X1873Y2D01*
X1872Y2D01*
X1871Y2D01*
X1870Y2D01*
X1869Y2D01*
X1868Y2D01*
X1867Y2D01*
X1866Y2D01*
X1865Y2D01*
X1864Y2D01*
X1863Y2D01*
X1862Y2D01*
X1861Y2D01*
X1860Y2D01*
X1859Y2D01*
X1858Y2D01*
X1857Y2D01*
X1856Y2D01*
X1855Y2D01*
X1854Y2D01*
X1853Y2D01*
X1852Y2D01*
X1851Y2D01*
X1850Y2D01*
X1849Y2D01*
X1848Y2D01*
X1847Y2D01*
X1846Y2D01*
X1845Y2D01*
X1844Y2D01*
X1843Y2D01*
X1842Y2D01*
X1841Y2D01*
X1840Y2D01*
X1839Y2D01*
X1838Y2D01*
X1837Y2D01*
X1836Y2D01*
X1835Y2D01*
X1834Y2D01*
X1833Y2D01*
X1832Y2D01*
X1831Y2D01*
X1830Y2D01*
X1829Y2D01*
X1828Y2D01*
X1827Y2D01*
X1826Y2D01*
X1825Y2D01*
X1824Y2D01*
X1823Y2D01*
X1822Y2D01*
X1821Y2D01*
X1820Y2D01*
X1819Y2D01*
X1818Y2D01*
X1817Y2D01*
X1816Y2D01*
X1815Y2D01*
X1814Y2D01*
X1813Y2D01*
X1812Y2D01*
X1811Y2D01*
X1810Y2D01*
X1809Y2D01*
X1808Y2D01*
X1807Y2D01*
X1806Y2D01*
X1805Y2D01*
X1804Y2D01*
X1803Y2D01*
X1802Y2D01*
X1801Y2D01*
X1800Y2D01*
X1799Y2D01*
X1798Y2D01*
X1797Y2D01*
X1796Y2D01*
X1795Y2D01*
X1794Y2D01*
X1793Y2D01*
X1792Y2D01*
X1791Y2D01*
X1790Y2D01*
X1789Y2D01*
X1788Y2D01*
X1787Y2D01*
X1786Y2D01*
X1785Y2D01*
X1784Y2D01*
X1783Y2D01*
X1782Y2D01*
X1781Y2D01*
X1780Y2D01*
X1779Y2D01*
X1778Y2D01*
X1777Y2D01*
X1776Y2D01*
X1775Y2D01*
X1774Y2D01*
X1773Y2D01*
X1772Y2D01*
X1771Y2D01*
X1770Y2D01*
X1769Y2D01*
X1768Y2D01*
X1767Y2D01*
X1766Y2D01*
X1765Y2D01*
X1764Y2D01*
X1763Y2D01*
X1762Y2D01*
X1761Y2D01*
X1760Y2D01*
X1759Y2D01*
X1758Y2D01*
X1757Y2D01*
X1756Y2D01*
X1755Y2D01*
X1754Y2D01*
X1753Y2D01*
X1752Y2D01*
X1751Y2D01*
X1750Y2D01*
X1749Y2D01*
X1748Y2D01*
X1747Y2D01*
X1746Y2D01*
X1745Y2D01*
X1744Y2D01*
X1743Y2D01*
X1742Y2D01*
X1741Y2D01*
X1740Y2D01*
X1739Y2D01*
X1738Y2D01*
X1737Y2D01*
X1736Y2D01*
X1735Y2D01*
X1734Y2D01*
X1733Y2D01*
X1732Y2D01*
X1731Y2D01*
X1730Y2D01*
X1729Y2D01*
X1728Y2D01*
X1727Y2D01*
X1726Y2D01*
X1725Y2D01*
X1724Y2D01*
X1723Y2D01*
X1722Y2D01*
X1721Y2D01*
X1720Y2D01*
X1719Y2D01*
X1718Y2D01*
X1717Y2D01*
X1716Y2D01*
X1715Y2D01*
X1714Y2D01*
X1713Y2D01*
X1712Y2D01*
X1711Y2D01*
X1710Y2D01*
X1709Y2D01*
X1708Y2D01*
X1707Y2D01*
X1706Y2D01*
X1705Y2D01*
X1704Y2D01*
X1703Y2D01*
X1702Y2D01*
X1701Y2D01*
X1700Y2D01*
X1699Y2D01*
X1698Y2D01*
X1697Y2D01*
X1696Y2D01*
X1695Y2D01*
X1694Y2D01*
X1693Y2D01*
X1692Y2D01*
X1691Y2D01*
X1690Y2D01*
X1689Y2D01*
X1688Y2D01*
X1687Y2D01*
X1686Y2D01*
X1685Y2D01*
X1684Y2D01*
X1683Y2D01*
X1682Y2D01*
X1681Y2D01*
X1680Y2D01*
X1679Y2D01*
X1678Y2D01*
X1677Y2D01*
X1676Y2D01*
X1675Y2D01*
X1674Y2D01*
X1673Y2D01*
X1672Y2D01*
X1671Y2D01*
X1670Y2D01*
X1669Y2D01*
X1668Y2D01*
X1667Y2D01*
X1666Y2D01*
X1665Y2D01*
X1664Y2D01*
X1663Y2D01*
X1662Y2D01*
X1661Y2D01*
X1660Y2D01*
X1659Y2D01*
X1658Y2D01*
X1657Y2D01*
X1656Y2D01*
X1655Y2D01*
X1654Y2D01*
X1653Y2D01*
X1652Y2D01*
X1651Y2D01*
X1650Y2D01*
X1649Y2D01*
X1648Y2D01*
X1647Y2D01*
X1646Y2D01*
X1645Y2D01*
X1644Y2D01*
X1643Y2D01*
X1642Y2D01*
X1641Y2D01*
X1640Y2D01*
X1639Y2D01*
X1638Y2D01*
X1637Y2D01*
X1636Y2D01*
X1635Y2D01*
X1634Y2D01*
X1633Y2D01*
X1632Y2D01*
X1631Y2D01*
X1630Y2D01*
X1629Y2D01*
X1628Y2D01*
X1627Y2D01*
X1626Y2D01*
X1625Y2D01*
X1624Y2D01*
X1623Y2D01*
X1622Y2D01*
X1621Y2D01*
X1620Y2D01*
X1619Y2D01*
X1618Y2D01*
X1617Y2D01*
X1616Y2D01*
X1615Y2D01*
X1614Y2D01*
X1613Y2D01*
X1612Y2D01*
X1611Y2D01*
X1610Y2D01*
X1609Y2D01*
X1608Y2D01*
X1607Y2D01*
X1606Y2D01*
X1605Y2D01*
X1604Y2D01*
X1603Y2D01*
X1602Y2D01*
X1601Y2D01*
X1600Y2D01*
X1599Y2D01*
X1598Y2D01*
X1597Y2D01*
X1596Y2D01*
X1595Y2D01*
X1594Y2D01*
X1593Y2D01*
X1592Y2D01*
X1591Y2D01*
X1590Y2D01*
X1589Y2D01*
X1588Y2D01*
X1587Y2D01*
X1586Y2D01*
X1585Y2D01*
X1584Y2D01*
X1583Y2D01*
X1582Y2D01*
X1581Y2D01*
X1580Y2D01*
X1579Y2D01*
X1578Y2D01*
X1577Y2D01*
X1576Y2D01*
X1575Y2D01*
X1574Y2D01*
X1573Y2D01*
X1572Y2D01*
X1571Y2D01*
X1570Y2D01*
X1569Y2D01*
X1568Y2D01*
X1567Y2D01*
X1566Y2D01*
X1565Y2D01*
X1564Y2D01*
X1563Y2D01*
X1562Y2D01*
X1561Y2D01*
X1560Y2D01*
X1559Y2D01*
X1558Y2D01*
X1557Y2D01*
X1556Y2D01*
X1555Y2D01*
X1554Y2D01*
X1553Y2D01*
X1552Y2D01*
X1551Y2D01*
X1550Y2D01*
X1549Y2D01*
X1548Y2D01*
X1547Y2D01*
X1546Y2D01*
X1545Y2D01*
X1544Y2D01*
X1543Y2D01*
X1542Y2D01*
X1541Y2D01*
X1540Y2D01*
X1539Y2D01*
X1538Y2D01*
X1537Y2D01*
X1536Y2D01*
X1535Y2D01*
X1534Y2D01*
X1533Y2D01*
X1532Y2D01*
X1531Y2D01*
X1530Y2D01*
X1529Y2D01*
X1528Y2D01*
X1527Y2D01*
X1526Y2D01*
X1525Y2D01*
X1524Y2D01*
X1523Y2D01*
X1522Y2D01*
X1521Y2D01*
X1520Y2D01*
X1519Y2D01*
X1518Y2D01*
X1517Y2D01*
X1516Y2D01*
X1515Y2D01*
X1514Y2D01*
X1513Y2D01*
X1512Y2D01*
X1511Y2D01*
X1510Y2D01*
X1509Y2D01*
X1508Y2D01*
X1507Y2D01*
X1506Y2D01*
X1505Y2D01*
X1504Y2D01*
X1503Y2D01*
X1502Y2D01*
X1501Y2D01*
X1500Y2D01*
X1499Y2D01*
X1498Y2D01*
X1497Y2D01*
X1496Y2D01*
X1495Y2D01*
X1494Y2D01*
X1493Y2D01*
X1492Y2D01*
X1491Y2D01*
X1490Y2D01*
X1489Y2D01*
X1488Y2D01*
X1487Y2D01*
X1486Y2D01*
X1485Y2D01*
X1484Y2D01*
X1483Y2D01*
X1482Y2D01*
X1481Y2D01*
X1480Y2D01*
X1479Y2D01*
X1478Y2D01*
X1477Y2D01*
X1476Y2D01*
X1475Y2D01*
X1474Y2D01*
X1473Y2D01*
X1472Y2D01*
X1471Y2D01*
X1470Y2D01*
X1469Y2D01*
X1468Y2D01*
X1467Y2D01*
X1466Y2D01*
X1465Y2D01*
X1464Y2D01*
X1463Y2D01*
X1462Y2D01*
X1461Y2D01*
X1460Y2D01*
X1459Y2D01*
X1458Y2D01*
X1457Y2D01*
X1456Y2D01*
X1455Y2D01*
X1454Y2D01*
X1453Y2D01*
X1452Y2D01*
X1451Y2D01*
X1450Y2D01*
X1449Y2D01*
X1448Y2D01*
X1447Y2D01*
X1446Y2D01*
X1445Y2D01*
X1444Y2D01*
X1443Y2D01*
X1442Y2D01*
X1441Y2D01*
X1440Y2D01*
X1439Y2D01*
X1438Y2D01*
X1437Y2D01*
X1436Y2D01*
X1435Y2D01*
X1434Y2D01*
X1433Y2D01*
X1432Y2D01*
X1431Y2D01*
X1430Y2D01*
X1429Y2D01*
X1428Y2D01*
X1427Y2D01*
X1426Y2D01*
X1425Y2D01*
X1424Y2D01*
X1423Y2D01*
X1422Y2D01*
X1421Y2D01*
X1420Y2D01*
X1419Y2D01*
X1418Y2D01*
X1417Y2D01*
X1416Y2D01*
X1415Y2D01*
X1414Y2D01*
X1413Y2D01*
X1412Y2D01*
X1411Y2D01*
X1410Y2D01*
X1409Y2D01*
X1408Y2D01*
X1407Y2D01*
X1406Y2D01*
X1405Y2D01*
X1404Y2D01*
X1403Y2D01*
X1402Y2D01*
X1401Y2D01*
X1400Y2D01*
X1399Y2D01*
X1398Y2D01*
X1397Y2D01*
X1396Y2D01*
X1395Y2D01*
X1394Y2D01*
X1393Y2D01*
X1392Y2D01*
X1391Y2D01*
X1390Y2D01*
X1389Y2D01*
X1388Y2D01*
X1387Y2D01*
X1386Y2D01*
X1385Y2D01*
X1384Y2D01*
X1383Y2D01*
X1382Y2D01*
X1381Y2D01*
X1380Y2D01*
X1379Y2D01*
X1378Y2D01*
X1377Y2D01*
X1376Y2D01*
X1375Y2D01*
X1374Y2D01*
X1373Y2D01*
X1372Y2D01*
X1371Y2D01*
X1370Y2D01*
X1369Y2D01*
X1368Y2D01*
X1367Y2D01*
X1366Y2D01*
X1365Y2D01*
X1364Y2D01*
X1363Y2D01*
X1362Y2D01*
X1361Y2D01*
X1360Y2D01*
X1359Y2D01*
X1358Y2D01*
X1357Y2D01*
X1356Y2D01*
X1355Y2D01*
X1354Y2D01*
X1353Y2D01*
X1352Y2D01*
X1351Y2D01*
X1350Y2D01*
X1349Y2D01*
X1348Y2D01*
X1347Y2D01*
X1346Y2D01*
X1345Y2D01*
X1344Y2D01*
X1343Y2D01*
X1342Y2D01*
X1341Y2D01*
X1340Y2D01*
X1339Y2D01*
X1338Y2D01*
X1337Y2D01*
X1336Y2D01*
X1335Y2D01*
X1334Y2D01*
X1333Y2D01*
X1332Y2D01*
X1331Y2D01*
X1330Y2D01*
X1329Y2D01*
X1328Y2D01*
X1327Y2D01*
X1326Y2D01*
X1325Y2D01*
X1324Y2D01*
X1323Y2D01*
X1322Y2D01*
X1321Y2D01*
X1320Y2D01*
X1319Y2D01*
X1318Y2D01*
X1317Y2D01*
X1316Y2D01*
X1315Y2D01*
X1314Y2D01*
X1313Y2D01*
X1312Y2D01*
X1311Y2D01*
X1310Y2D01*
X1309Y2D01*
X1308Y2D01*
X1307Y2D01*
X1306Y2D01*
X1305Y2D01*
X1304Y2D01*
X1303Y2D01*
X1302Y2D01*
X1301Y2D01*
X1300Y2D01*
X1299Y2D01*
X1298Y2D01*
X1297Y2D01*
X1296Y2D01*
X1295Y2D01*
X1294Y2D01*
X1293Y2D01*
X1292Y2D01*
X1291Y2D01*
X1290Y2D01*
X1289Y2D01*
X1288Y2D01*
X1287Y2D01*
X1286Y2D01*
X1285Y2D01*
X1284Y2D01*
X1283Y2D01*
X1282Y2D01*
X1281Y2D01*
X1280Y2D01*
X1279Y2D01*
X1278Y2D01*
X1277Y2D01*
X1276Y2D01*
X1275Y2D01*
X1274Y2D01*
X1273Y2D01*
X1272Y2D01*
X1271Y2D01*
X1270Y2D01*
X1269Y2D01*
X1268Y2D01*
X1267Y2D01*
X1266Y2D01*
X1265Y2D01*
X1264Y2D01*
X1263Y2D01*
X1262Y2D01*
X1261Y2D01*
X1260Y2D01*
X1259Y2D01*
X1258Y2D01*
X1257Y2D01*
X1256Y2D01*
X1255Y2D01*
X1254Y2D01*
X1253Y2D01*
X1252Y2D01*
X1251Y2D01*
X1250Y2D01*
X1249Y2D01*
X1248Y2D01*
X1247Y2D01*
X1246Y2D01*
X1245Y2D01*
X1244Y2D01*
X1243Y2D01*
X1242Y2D01*
X1241Y2D01*
X1240Y2D01*
X1239Y2D01*
X1238Y2D01*
X1237Y2D01*
X1236Y2D01*
X1235Y2D01*
X1234Y2D01*
X1233Y2D01*
X1232Y2D01*
X1231Y2D01*
X1230Y2D01*
X1229Y2D01*
X1228Y2D01*
X1227Y2D01*
X1226Y2D01*
X1225Y2D01*
X1224Y2D01*
X1223Y2D01*
X1222Y2D01*
X1221Y2D01*
X1220Y2D01*
X1219Y2D01*
X1218Y2D01*
X1217Y2D01*
X1216Y2D01*
X1215Y2D01*
X1214Y2D01*
X1213Y2D01*
X1212Y2D01*
X1211Y2D01*
X1210Y2D01*
X1209Y2D01*
X1208Y2D01*
X1207Y2D01*
X1206Y2D01*
X1205Y2D01*
X1204Y2D01*
X1203Y2D01*
X1202Y2D01*
X1201Y2D01*
X1200Y2D01*
X1199Y2D01*
X1198Y2D01*
X1197Y2D01*
X1196Y2D01*
X1195Y2D01*
X1194Y2D01*
X1193Y2D01*
X1192Y2D01*
X1191Y2D01*
X1190Y2D01*
X1189Y2D01*
X1188Y2D01*
X1187Y2D01*
X1186Y2D01*
X1185Y2D01*
X1184Y2D01*
X1183Y2D01*
X1182Y2D01*
X1181Y2D01*
X1180Y2D01*
X1179Y2D01*
X1178Y2D01*
X1177Y2D01*
X1176Y2D01*
X1175Y2D01*
X1174Y2D01*
X1173Y2D01*
X1172Y2D01*
X1171Y2D01*
X1170Y2D01*
X1169Y2D01*
X1168Y2D01*
X1167Y2D01*
X1166Y2D01*
X1165Y2D01*
X1164Y2D01*
X1163Y2D01*
X1162Y2D01*
X1161Y2D01*
X1160Y2D01*
X1159Y2D01*
X1158Y2D01*
X1157Y2D01*
X1156Y2D01*
X1155Y2D01*
X1154Y2D01*
X1153Y2D01*
X1152Y2D01*
X1151Y2D01*
X1150Y2D01*
X1149Y2D01*
X1148Y2D01*
X1147Y2D01*
X1146Y2D01*
X1145Y2D01*
X1144Y2D01*
X1143Y2D01*
X1142Y2D01*
X1141Y2D01*
X1140Y2D01*
X1139Y2D01*
X1138Y2D01*
X1137Y2D01*
X1136Y2D01*
X1135Y2D01*
X1134Y2D01*
X1133Y2D01*
X1132Y2D01*
X1131Y2D01*
X1130Y2D01*
X1129Y2D01*
X1128Y2D01*
X1127Y2D01*
X1126Y2D01*
X1125Y2D01*
X1124Y2D01*
X1123Y2D01*
X1122Y2D01*
X1121Y2D01*
X1120Y2D01*
X1119Y2D01*
X1118Y2D01*
X1117Y2D01*
X1116Y2D01*
X1115Y2D01*
X1114Y2D01*
X1113Y2D01*
X1112Y2D01*
X1111Y2D01*
X1110Y2D01*
X1109Y2D01*
X1108Y2D01*
X1107Y2D01*
X1106Y2D01*
X1105Y2D01*
X1104Y2D01*
X1103Y2D01*
X1102Y2D01*
X1101Y2D01*
X1100Y2D01*
X1099Y2D01*
X1098Y2D01*
X1097Y2D01*
X1096Y2D01*
X1095Y2D01*
X1094Y2D01*
X1093Y2D01*
X1092Y2D01*
X1091Y2D01*
X1090Y2D01*
X1089Y2D01*
X1088Y2D01*
X1087Y2D01*
X1086Y2D01*
X1085Y2D01*
X1084Y2D01*
X1083Y2D01*
X1082Y2D01*
X1081Y2D01*
X1080Y2D01*
X1079Y2D01*
X1078Y2D01*
X1077Y2D01*
X1076Y2D01*
X1075Y2D01*
X1074Y2D01*
X1073Y2D01*
X1072Y2D01*
X1071Y2D01*
X1070Y2D01*
X1069Y2D01*
X1068Y2D01*
X1067Y2D01*
X1066Y2D01*
X1065Y2D01*
X1064Y2D01*
X1063Y2D01*
X1062Y2D01*
X1061Y2D01*
X1060Y2D01*
X1059Y2D01*
X1058Y2D01*
X1057Y2D01*
X1056Y2D01*
X1055Y2D01*
X1054Y2D01*
X1053Y2D01*
X1052Y2D01*
X1051Y2D01*
X1050Y2D01*
X1049Y2D01*
X1048Y2D01*
X1047Y2D01*
X1046Y2D01*
X1045Y2D01*
X1044Y2D01*
X1043Y2D01*
X1042Y2D01*
X1041Y2D01*
X1040Y2D01*
X1039Y2D01*
X1038Y2D01*
X1037Y2D01*
X1036Y2D01*
X1035Y2D01*
X1034Y2D01*
X1033Y2D01*
X1032Y2D01*
X1031Y2D01*
X1030Y2D01*
X1029Y2D01*
X1028Y2D01*
X1027Y2D01*
X1026Y2D01*
X1025Y2D01*
X1024Y2D01*
X1023Y2D01*
X1022Y2D01*
X1021Y2D01*
X1020Y2D01*
X1019Y2D01*
X1018Y2D01*
X1017Y2D01*
X1016Y2D01*
X1015Y2D01*
X1014Y2D01*
X1013Y2D01*
X1012Y2D01*
X1011Y2D01*
X1010Y2D01*
X1009Y2D01*
X1008Y2D01*
X1007Y2D01*
X1006Y2D01*
X1005Y2D01*
X1004Y2D01*
X1003Y2D01*
X1002Y2D01*
X1001Y2D01*
X1000Y2D01*
X999Y2D01*
X998Y2D01*
X997Y2D01*
X996Y2D01*
X995Y2D01*
X994Y2D01*
X993Y2D01*
X992Y2D01*
X991Y2D01*
X990Y2D01*
X989Y2D01*
X988Y2D01*
X987Y2D01*
X986Y2D01*
X985Y2D01*
X984Y2D01*
X983Y2D01*
X982Y2D01*
X981Y2D01*
X980Y2D01*
X979Y2D01*
X978Y2D01*
X977Y2D01*
X976Y2D01*
X975Y2D01*
X974Y2D01*
X973Y2D01*
X972Y2D01*
X971Y2D01*
X970Y2D01*
X969Y2D01*
X968Y2D01*
X967Y2D01*
X966Y2D01*
X965Y2D01*
X964Y2D01*
X963Y2D01*
X962Y2D01*
X961Y2D01*
X960Y2D01*
X959Y2D01*
X958Y2D01*
X957Y2D01*
X956Y2D01*
X955Y2D01*
X954Y2D01*
X953Y2D01*
X952Y2D01*
X951Y2D01*
X950Y2D01*
X949Y2D01*
X948Y2D01*
X947Y2D01*
X946Y2D01*
X945Y2D01*
X944Y2D01*
X943Y2D01*
X942Y2D01*
X941Y2D01*
X940Y2D01*
X939Y2D01*
X938Y2D01*
X937Y2D01*
X936Y2D01*
X935Y2D01*
X934Y2D01*
X933Y2D01*
X932Y2D01*
X931Y2D01*
X930Y2D01*
X929Y2D01*
X928Y2D01*
X927Y2D01*
X926Y2D01*
X925Y2D01*
X924Y2D01*
X923Y2D01*
X922Y2D01*
X921Y2D01*
X920Y2D01*
X919Y2D01*
X918Y2D01*
X917Y2D01*
X916Y2D01*
X915Y2D01*
X914Y2D01*
X913Y2D01*
X912Y2D01*
X911Y2D01*
X910Y2D01*
X909Y2D01*
X908Y2D01*
X907Y2D01*
X906Y2D01*
X905Y2D01*
X904Y2D01*
X903Y2D01*
X902Y2D01*
X901Y2D01*
X900Y2D01*
X899Y2D01*
X898Y2D01*
X897Y2D01*
X896Y2D01*
X895Y2D01*
X894Y2D01*
X893Y2D01*
X892Y2D01*
X891Y2D01*
X890Y2D01*
X889Y2D01*
X888Y2D01*
X887Y2D01*
X886Y2D01*
X885Y2D01*
X884Y2D01*
X883Y2D01*
X882Y2D01*
X881Y2D01*
X880Y2D01*
X879Y2D01*
X878Y2D01*
X877Y2D01*
X876Y2D01*
X875Y2D01*
X874Y2D01*
X873Y2D01*
X872Y2D01*
X871Y2D01*
X870Y2D01*
X869Y2D01*
X868Y2D01*
X867Y2D01*
X866Y2D01*
X865Y2D01*
X864Y2D01*
X863Y2D01*
X862Y2D01*
X861Y2D01*
X860Y2D01*
X859Y2D01*
X858Y2D01*
X857Y2D01*
X856Y2D01*
X855Y2D01*
X854Y2D01*
X853Y2D01*
X852Y2D01*
X851Y2D01*
X850Y2D01*
X849Y2D01*
X848Y2D01*
X847Y2D01*
X846Y2D01*
X845Y2D01*
X844Y2D01*
X843Y2D01*
X842Y2D01*
X841Y2D01*
X840Y2D01*
X839Y2D01*
X838Y2D01*
X837Y2D01*
X836Y2D01*
X835Y2D01*
X834Y2D01*
X833Y2D01*
X832Y2D01*
X831Y2D01*
X830Y2D01*
X829Y2D01*
X828Y2D01*
X827Y2D01*
X826Y2D01*
X825Y2D01*
X824Y2D01*
X823Y2D01*
X822Y2D01*
X821Y2D01*
X820Y2D01*
X819Y2D01*
X818Y2D01*
X817Y2D01*
X816Y2D01*
X815Y2D01*
X814Y2D01*
X813Y2D01*
X812Y2D01*
X811Y2D01*
X810Y2D01*
X809Y2D01*
X808Y2D01*
X807Y2D01*
X806Y2D01*
X805Y2D01*
X804Y2D01*
X803Y2D01*
X802Y2D01*
X801Y2D01*
X800Y2D01*
X799Y2D01*
X798Y2D01*
X797Y2D01*
X796Y2D01*
X795Y2D01*
X794Y2D01*
X793Y2D01*
X792Y2D01*
X791Y2D01*
X790Y2D01*
X789Y2D01*
X788Y2D01*
X787Y2D01*
X786Y2D01*
X785Y2D01*
X784Y2D01*
X783Y2D01*
X782Y2D01*
X781Y2D01*
X780Y2D01*
X779Y2D01*
X778Y2D01*
X777Y2D01*
X776Y2D01*
X775Y2D01*
X774Y2D01*
X773Y2D01*
X772Y2D01*
X771Y2D01*
X770Y2D01*
X769Y2D01*
X768Y2D01*
X767Y2D01*
X766Y2D01*
X765Y2D01*
X764Y2D01*
X763Y2D01*
X762Y2D01*
X761Y2D01*
X760Y2D01*
X759Y2D01*
X758Y2D01*
X757Y2D01*
X756Y2D01*
X755Y2D01*
X754Y2D01*
X753Y2D01*
X752Y2D01*
X751Y2D01*
X750Y2D01*
X749Y2D01*
X748Y2D01*
X747Y2D01*
X746Y2D01*
X745Y2D01*
X744Y2D01*
X743Y2D01*
X742Y2D01*
X741Y2D01*
X740Y2D01*
X739Y2D01*
X738Y2D01*
X737Y2D01*
X736Y2D01*
X735Y2D01*
X734Y2D01*
X733Y2D01*
X732Y2D01*
X731Y2D01*
X730Y2D01*
X729Y2D01*
X728Y2D01*
X727Y2D01*
X726Y2D01*
X725Y2D01*
X724Y2D01*
X723Y2D01*
X722Y2D01*
X721Y2D01*
X720Y2D01*
X719Y2D01*
X718Y2D01*
X717Y2D01*
X716Y2D01*
X715Y2D01*
X714Y2D01*
X713Y2D01*
X712Y2D01*
X711Y2D01*
X710Y2D01*
X709Y2D01*
X708Y2D01*
X707Y2D01*
X706Y2D01*
X705Y2D01*
X704Y2D01*
X703Y2D01*
X702Y2D01*
X701Y2D01*
X700Y2D01*
X699Y2D01*
X698Y2D01*
X697Y2D01*
X696Y2D01*
X695Y2D01*
X694Y2D01*
X693Y2D01*
X692Y2D01*
X691Y2D01*
X690Y2D01*
X689Y2D01*
X688Y2D01*
X687Y2D01*
X686Y2D01*
X685Y2D01*
X684Y2D01*
X683Y2D01*
X682Y2D01*
X681Y2D01*
X680Y2D01*
X679Y2D01*
X678Y2D01*
X677Y2D01*
X676Y2D01*
X675Y2D01*
X674Y2D01*
X673Y2D01*
X672Y2D01*
X671Y2D01*
X670Y2D01*
X669Y2D01*
X668Y2D01*
X667Y2D01*
X666Y2D01*
X665Y2D01*
X664Y2D01*
X663Y2D01*
X662Y2D01*
X661Y2D01*
X660Y2D01*
X659Y2D01*
X658Y2D01*
X657Y2D01*
X656Y2D01*
X655Y2D01*
X654Y2D01*
X653Y2D01*
X652Y2D01*
X651Y2D01*
X650Y2D01*
X649Y2D01*
X648Y2D01*
X647Y2D01*
X646Y2D01*
X645Y2D01*
X644Y2D01*
X643Y2D01*
X642Y2D01*
X641Y2D01*
X640Y2D01*
X639Y2D01*
X638Y2D01*
X637Y2D01*
X636Y2D01*
X635Y2D01*
X634Y2D01*
X633Y2D01*
X632Y2D01*
X631Y2D01*
X630Y2D01*
X629Y2D01*
X628Y2D01*
X627Y2D01*
X626Y2D01*
X625Y2D01*
X624Y2D01*
X623Y2D01*
X622Y2D01*
X621Y2D01*
X620Y2D01*
X619Y2D01*
X618Y2D01*
X617Y2D01*
X616Y2D01*
X615Y2D01*
X614Y2D01*
X613Y2D01*
X612Y2D01*
X611Y2D01*
X610Y2D01*
X609Y2D01*
X608Y2D01*
X607Y2D01*
X606Y2D01*
X605Y2D01*
X604Y2D01*
X603Y2D01*
X602Y2D01*
X601Y2D01*
X600Y2D01*
X599Y2D01*
X598Y2D01*
X597Y2D01*
X596Y2D01*
X595Y2D01*
X594Y2D01*
X593Y2D01*
X592Y2D01*
X591Y2D01*
X590Y2D01*
X589Y2D01*
X588Y2D01*
X587Y2D01*
X586Y2D01*
X585Y2D01*
X584Y2D01*
X583Y2D01*
X582Y2D01*
X581Y2D01*
X580Y2D01*
X579Y2D01*
X578Y2D01*
X577Y2D01*
X576Y2D01*
X575Y2D01*
X574Y2D01*
X573Y2D01*
X572Y2D01*
X571Y2D01*
X570Y2D01*
X569Y2D01*
X568Y2D01*
X567Y2D01*
X566Y2D01*
X565Y2D01*
X564Y2D01*
X563Y2D01*
X562Y2D01*
X561Y2D01*
X560Y2D01*
X559Y2D01*
X558Y2D01*
X557Y2D01*
X556Y2D01*
X555Y2D01*
X554Y2D01*
X553Y2D01*
X552Y2D01*
X551Y2D01*
X550Y2D01*
X549Y2D01*
X548Y2D01*
X547Y2D01*
X546Y2D01*
X545Y2D01*
X544Y2D01*
X543Y2D01*
X542Y2D01*
X541Y2D01*
X540Y2D01*
X539Y2D01*
X538Y2D01*
X537Y2D01*
X536Y2D01*
X535Y2D01*
X534Y2D01*
X533Y2D01*
X532Y2D01*
X531Y2D01*
X530Y2D01*
X529Y2D01*
X528Y2D01*
X527Y2D01*
X526Y2D01*
X525Y2D01*
X524Y2D01*
X523Y2D01*
X522Y2D01*
X521Y2D01*
X520Y2D01*
X519Y2D01*
X518Y2D01*
X517Y2D01*
X516Y2D01*
X515Y2D01*
X514Y2D01*
X513Y2D01*
X512Y2D01*
X511Y2D01*
X510Y2D01*
X509Y2D01*
X508Y2D01*
X507Y2D01*
X506Y2D01*
X505Y2D01*
X504Y2D01*
X503Y2D01*
X502Y2D01*
X501Y2D01*
X500Y2D01*
X499Y2D01*
X498Y2D01*
X497Y2D01*
X496Y2D01*
X495Y2D01*
X494Y2D01*
X493Y2D01*
X492Y2D01*
X491Y2D01*
X490Y2D01*
X489Y2D01*
X488Y2D01*
X487Y2D01*
X486Y2D01*
X485Y2D01*
X484Y2D01*
X483Y2D01*
X482Y2D01*
X481Y2D01*
X480Y2D01*
X479Y2D01*
X478Y2D01*
X477Y2D01*
X476Y2D01*
X475Y2D01*
X474Y2D01*
X473Y2D01*
X472Y2D01*
X471Y2D01*
X470Y2D01*
X469Y2D01*
X468Y2D01*
X467Y2D01*
X466Y2D01*
X465Y2D01*
X464Y2D01*
X463Y2D01*
X462Y2D01*
X461Y2D01*
X460Y2D01*
X459Y2D01*
X458Y2D01*
X457Y2D01*
X456Y2D01*
X455Y2D01*
X454Y2D01*
X453Y2D01*
X452Y2D01*
X451Y2D01*
X450Y2D01*
X449Y2D01*
X448Y2D01*
X447Y2D01*
X446Y2D01*
X445Y2D01*
X444Y2D01*
X443Y2D01*
X442Y2D01*
X441Y2D01*
X440Y2D01*
X439Y2D01*
X438Y2D01*
X437Y2D01*
X436Y2D01*
X435Y2D01*
X434Y2D01*
X433Y2D01*
X432Y2D01*
X431Y2D01*
X430Y2D01*
X429Y2D01*
X428Y2D01*
X427Y2D01*
X426Y2D01*
X425Y2D01*
X424Y2D01*
X423Y2D01*
X422Y2D01*
X421Y2D01*
X420Y2D01*
X419Y2D01*
X418Y2D01*
X417Y2D01*
X416Y2D01*
X415Y2D01*
X414Y2D01*
X413Y2D01*
X412Y2D01*
X411Y2D01*
X410Y2D01*
X409Y2D01*
X408Y2D01*
X407Y2D01*
X406Y2D01*
X405Y2D01*
X404Y2D01*
X403Y2D01*
X402Y2D01*
X401Y2D01*
X400Y2D01*
X399Y2D01*
X398Y2D01*
X397Y2D01*
X396Y2D01*
X395Y2D01*
X394Y2D01*
X393Y2D01*
X392Y2D01*
X391Y2D01*
X390Y2D01*
X389Y2D01*
X388Y2D01*
X387Y2D01*
X386Y2D01*
X385Y2D01*
X384Y2D01*
X383Y2D01*
X382Y2D01*
X381Y2D01*
X380Y2D01*
X379Y2D01*
X378Y2D01*
X377Y2D01*
X376Y2D01*
X375Y2D01*
X374Y2D01*
X373Y2D01*
X372Y2D01*
X371Y2D01*
X370Y2D01*
X369Y2D01*
X368Y2D01*
X367Y2D01*
X366Y2D01*
X365Y2D01*
X364Y2D01*
X363Y2D01*
X362Y2D01*
X361Y2D01*
X360Y3D01*
X359Y3D01*
X358Y3D01*
X357Y3D01*
X356Y3D01*
X355Y3D01*
X354Y3D01*
X353Y3D01*
X352Y3D01*
X351Y3D01*
X350Y3D01*
X349Y3D01*
X348Y3D01*
X347Y3D01*
X346Y4D01*
X345Y4D01*
X344Y4D01*
X343Y4D01*
X342Y4D01*
X341Y4D01*
X340Y4D01*
X339Y4D01*
X338Y4D01*
X337Y5D01*
X336Y5D01*
X335Y5D01*
X334Y5D01*
X333Y5D01*
X332Y5D01*
X331Y5D01*
X330Y5D01*
X329Y6D01*
X328Y6D01*
X327Y6D01*
X326Y6D01*
X325Y6D01*
X324Y6D01*
X323Y6D01*
X322Y7D01*
X321Y7D01*
X320Y7D01*
X319Y7D01*
X318Y7D01*
X317Y7D01*
X316Y8D01*
X315Y8D01*
X314Y8D01*
X313Y8D01*
X312Y8D01*
X311Y8D01*
X310Y9D01*
X309Y9D01*
X308Y9D01*
X307Y9D01*
X306Y9D01*
X305Y10D01*
X304Y10D01*
X303Y10D01*
X302Y10D01*
X301Y11D01*
X300Y11D01*
X299Y11D01*
X298Y11D01*
X297Y11D01*
X296Y12D01*
X295Y12D01*
X294Y12D01*
X293Y12D01*
X292Y13D01*
X291Y13D01*
X290Y13D01*
X289Y13D01*
X288Y14D01*
X287Y14D01*
X286Y14D01*
X285Y14D01*
X284Y15D01*
X283Y15D01*
X282Y15D01*
X281Y16D01*
X280Y16D01*
X279Y16D01*
X278Y16D01*
X277Y17D01*
X276Y17D01*
X275Y17D01*
X274Y18D01*
X273Y18D01*
X272Y18D01*
X271Y18D01*
X270Y19D01*
X269Y19D01*
X268Y19D01*
X267Y20D01*
X266Y20D01*
X265Y20D01*
X264Y21D01*
X263Y21D01*
X262Y21D01*
X261Y22D01*
X260Y22D01*
X259Y23D01*
X258Y23D01*
X257Y23D01*
X256Y24D01*
X255Y24D01*
X254Y24D01*
X253Y25D01*
X252Y25D01*
X251Y25D01*
X250Y26D01*
X249Y26D01*
X248Y26D01*
X247Y27D01*
X246Y27D01*
X245Y28D01*
X244Y28D01*
X243Y28D01*
X242Y29D01*
X241Y29D01*
X240Y30D01*
X239Y30D01*
X238Y31D01*
X237Y31D01*
X236Y31D01*
X235Y32D01*
X234Y32D01*
X233Y33D01*
X232Y33D01*
X231Y33D01*
X230Y34D01*
X229Y34D01*
X228Y35D01*
X227Y35D01*
X226Y36D01*
X225Y36D01*
X224Y37D01*
X223Y37D01*
X222Y38D01*
X221Y38D01*
X220Y39D01*
X219Y39D01*
X218Y40D01*
X217Y40D01*
X216Y40D01*
X215Y41D01*
X214Y41D01*
X213Y42D01*
X212Y43D01*
X211Y43D01*
X210Y44D01*
X209Y44D01*
X208Y45D01*
X207Y45D01*
X206Y46D01*
X205Y46D01*
X204Y47D01*
X203Y47D01*
X202Y48D01*
X201Y48D01*
X200Y49D01*
X199Y49D01*
X198Y50D01*
X197Y51D01*
X196Y51D01*
X195Y52D01*
X194Y52D01*
X193Y53D01*
X192Y54D01*
X191Y54D01*
X190Y55D01*
X189Y55D01*
X188Y56D01*
X187Y57D01*
X186Y57D01*
X185Y58D01*
X184Y58D01*
X183Y59D01*
X182Y60D01*
X181Y60D01*
X180Y61D01*
X179Y62D01*
X178Y62D01*
X177Y63D01*
X176Y64D01*
X175Y64D01*
X174Y65D01*
X173Y66D01*
X172Y66D01*
X171Y67D01*
X170Y68D01*
X169Y68D01*
X168Y69D01*
X167Y70D01*
X166Y70D01*
X165Y71D01*
X164Y72D01*
X163Y72D01*
X162Y73D01*
X161Y74D01*
X160Y75D01*
X159Y75D01*
X158Y76D01*
X157Y77D01*
X156Y78D01*
X155Y78D01*
X154Y79D01*
X153Y80D01*
X152Y81D01*
X151Y81D01*
X150Y82D01*
X149Y83D01*
X148Y84D01*
X147Y85D01*
X146Y85D01*
X145Y86D01*
X144Y87D01*
X143Y88D01*
X142Y89D01*
X141Y90D01*
X140Y90D01*
X139Y91D01*
X138Y92D01*
X137Y93D01*
X136Y94D01*
X135Y95D01*
X134Y96D01*
X133Y96D01*
X132Y97D01*
X131Y98D01*
X130Y99D01*
X129Y100D01*
X128Y101D01*
X127Y102D01*
X126Y103D01*
X125Y104D01*
X124Y105D01*
X123Y106D01*
X122Y107D01*
X121Y108D01*
X120Y109D01*
X119Y110D01*
X118Y110D01*
X117Y111D01*
X116Y112D01*
X115Y113D01*
X114Y114D01*
X113Y115D01*
X112Y116D01*
X111Y117D01*
X110Y118D01*
X110Y119D01*
X109Y120D01*
X108Y121D01*
X107Y122D01*
X106Y123D01*
X105Y124D01*
X104Y125D01*
X103Y126D01*
X102Y127D01*
X101Y128D01*
X100Y129D01*
X99Y130D01*
X99Y131D01*
X98Y132D01*
X97Y133D01*
X96Y134D01*
X95Y135D01*
X94Y136D01*
X94Y137D01*
X93Y138D01*
X92Y139D01*
X91Y140D01*
X90Y141D01*
X89Y142D01*
X89Y143D01*
X88Y144D01*
X87Y145D01*
X86Y146D01*
X85Y147D01*
X85Y148D01*
X84Y149D01*
X83Y150D01*
X82Y151D01*
X82Y152D01*
X81Y153D01*
X80Y154D01*
X79Y155D01*
X79Y156D01*
X78Y157D01*
X77Y158D01*
X76Y159D01*
X76Y160D01*
X75Y161D01*
X74Y162D01*
X73Y163D01*
X73Y164D01*
X72Y165D01*
X71Y166D01*
X71Y167D01*
X70Y168D01*
X69Y169D01*
X69Y170D01*
X68Y171D01*
X67Y172D01*
X67Y173D01*
X66Y174D01*
X65Y175D01*
X65Y176D01*
X64Y177D01*
X63Y178D01*
X63Y179D01*
X62Y180D01*
X62Y181D01*
X61Y182D01*
X60Y183D01*
X60Y184D01*
X59Y185D01*
X58Y186D01*
X58Y187D01*
X57Y188D01*
X57Y189D01*
X56Y190D01*
X55Y191D01*
X55Y192D01*
X54Y193D01*
X54Y194D01*
X53Y195D01*
X53Y196D01*
X52Y197D01*
X51Y198D01*
X51Y199D01*
X50Y200D01*
X50Y201D01*
X49Y202D01*
X49Y203D01*
X48Y204D01*
X48Y205D01*
X47Y206D01*
X46Y207D01*
X46Y208D01*
X45Y209D01*
X45Y210D01*
X44Y211D01*
X44Y212D01*
X43Y213D01*
X43Y214D01*
X42Y215D01*
X42Y216D01*
X41Y217D01*
X41Y218D01*
X40Y219D01*
X40Y221D01*
X39Y222D01*
X39Y223D01*
X38Y224D01*
X38Y225D01*
X37Y226D01*
X37Y227D01*
X36Y228D01*
X36Y229D01*
X35Y230D01*
X35Y231D01*
X34Y232D01*
X34Y234D01*
X33Y235D01*
X33Y236D01*
X32Y237D01*
X32Y238D01*
X31Y239D01*
X31Y241D01*
X30Y242D01*
X30Y243D01*
X29Y244D01*
X29Y246D01*
X28Y247D01*
X28Y248D01*
X27Y249D01*
X27Y251D01*
X26Y252D01*
X26Y254D01*
X25Y255D01*
X25Y256D01*
X24Y257D01*
X24Y259D01*
X23Y260D01*
X23Y262D01*
X22Y263D01*
X22Y265D01*
X21Y266D01*
X21Y268D01*
X20Y269D01*
X20Y271D01*
X19Y272D01*
X19Y274D01*
X18Y275D01*
X18Y277D01*
X17Y278D01*
X17Y280D01*
X16Y281D01*
X16Y284D01*
X15Y285D01*
X15Y287D01*
X14Y288D01*
X14Y291D01*
X13Y292D01*
X13Y295D01*
X12Y296D01*
X12Y299D01*
X11Y300D01*
X11Y303D01*
X10Y304D01*
X10Y308D01*
X9Y309D01*
X9Y312D01*
X8Y313D01*
X8Y317D01*
X7Y318D01*
X7Y323D01*
X6Y324D01*
X6Y328D01*
X5Y329D01*
X5Y335D01*
X4Y336D01*
X4Y342D01*
X3Y343D01*
X3Y350D01*
X2Y351D01*
X2Y361D01*
X1Y362D01*
X1Y375D01*
X0Y376D01*
X0Y2527D01*
X1Y2528D01*
X1Y2541D01*
X2Y2542D01*
X2Y2552D01*
X3Y2553D01*
X3Y2560D01*
X4Y2561D01*
X4Y2567D01*
X5Y2568D01*
X5Y2574D01*
X6Y2575D01*
X6Y2579D01*
X7Y2580D01*
X7Y2585D01*
X8Y2586D01*
X8Y2590D01*
X9Y2591D01*
X9Y2594D01*
X10Y2595D01*
X10Y2599D01*
X11Y2600D01*
X11Y2603D01*
X12Y2604D01*
X12Y2607D01*
X13Y2608D01*
X13Y2611D01*
X14Y2612D01*
X14Y2615D01*
X15Y2616D01*
X15Y2618D01*
X16Y2619D01*
X16Y2622D01*
X17Y2623D01*
X17Y2625D01*
X18Y2626D01*
X18Y2628D01*
X19Y2629D01*
X19Y2631D01*
X20Y2632D01*
X20Y2634D01*
X21Y2635D01*
X21Y2637D01*
X22Y2638D01*
X22Y2640D01*
X23Y2641D01*
X23Y2643D01*
X24Y2644D01*
X24Y2646D01*
X25Y2647D01*
X25Y2648D01*
X26Y2649D01*
X26Y2651D01*
X27Y2652D01*
X27Y2654D01*
X28Y2655D01*
X28Y2656D01*
X29Y2657D01*
X29Y2659D01*
X30Y2660D01*
X30Y2661D01*
X31Y2662D01*
X31Y2664D01*
X32Y2665D01*
X32Y2666D01*
X33Y2667D01*
X33Y2668D01*
X34Y2669D01*
X34Y2671D01*
X35Y2672D01*
X35Y2673D01*
X36Y2674D01*
X36Y2675D01*
X37Y2676D01*
X37Y2677D01*
X38Y2678D01*
X38Y2679D01*
X39Y2680D01*
X39Y2681D01*
X40Y2682D01*
X40Y2684D01*
X41Y2685D01*
X41Y2686D01*
X42Y2687D01*
X42Y2688D01*
X43Y2689D01*
X43Y2690D01*
X44Y2691D01*
X44Y2692D01*
X45Y2693D01*
X45Y2694D01*
X46Y2695D01*
X46Y2696D01*
X47Y2697D01*
X48Y2698D01*
X48Y2699D01*
X49Y2700D01*
X49Y2701D01*
X50Y2702D01*
X50Y2703D01*
X51Y2704D01*
X51Y2705D01*
X52Y2706D01*
X53Y2707D01*
X53Y2708D01*
X54Y2709D01*
X54Y2710D01*
X55Y2711D01*
X55Y2712D01*
X56Y2713D01*
X57Y2714D01*
X57Y2715D01*
X58Y2716D01*
X58Y2717D01*
X59Y2718D01*
X60Y2719D01*
X60Y2720D01*
X61Y2721D01*
X62Y2722D01*
X62Y2723D01*
X63Y2724D01*
X63Y2725D01*
X64Y2726D01*
X65Y2727D01*
X65Y2728D01*
X66Y2729D01*
X67Y2730D01*
X67Y2731D01*
X68Y2732D01*
X69Y2733D01*
X69Y2734D01*
X70Y2735D01*
X71Y2736D01*
X71Y2737D01*
X72Y2738D01*
X73Y2739D01*
X73Y2740D01*
X74Y2741D01*
X75Y2742D01*
X76Y2743D01*
X76Y2744D01*
X77Y2745D01*
X78Y2746D01*
X79Y2747D01*
X79Y2748D01*
X80Y2749D01*
X81Y2750D01*
X82Y2751D01*
X82Y2752D01*
X83Y2753D01*
X84Y2754D01*
X85Y2755D01*
X85Y2756D01*
X86Y2757D01*
X87Y2758D01*
X88Y2759D01*
X89Y2760D01*
X89Y2761D01*
X90Y2762D01*
X91Y2763D01*
X92Y2764D01*
X93Y2765D01*
X94Y2766D01*
X94Y2767D01*
X95Y2768D01*
X96Y2769D01*
X97Y2770D01*
X98Y2771D01*
X99Y2772D01*
X99Y2773D01*
X100Y2774D01*
X101Y2775D01*
X102Y2776D01*
X103Y2777D01*
X104Y2778D01*
X105Y2779D01*
X106Y2780D01*
X107Y2781D01*
X108Y2782D01*
X109Y2783D01*
X110Y2784D01*
X110Y2785D01*
X111Y2786D01*
X112Y2787D01*
X113Y2788D01*
X114Y2789D01*
X115Y2790D01*
X116Y2791D01*
X117Y2792D01*
X118Y2793D01*
X119Y2793D01*
X120Y2794D01*
X121Y2795D01*
X122Y2796D01*
X123Y2797D01*
X124Y2798D01*
X125Y2799D01*
X126Y2800D01*
X127Y2801D01*
X128Y2802D01*
X129Y2803D01*
X130Y2804D01*
X131Y2805D01*
X132Y2806D01*
X133Y2807D01*
X134Y2807D01*
X135Y2808D01*
X136Y2809D01*
X137Y2810D01*
X138Y2811D01*
X139Y2812D01*
X140Y2813D01*
X141Y2813D01*
X142Y2814D01*
X143Y2815D01*
X144Y2816D01*
X145Y2817D01*
X146Y2818D01*
X147Y2818D01*
X148Y2819D01*
X149Y2820D01*
X150Y2821D01*
X151Y2822D01*
X152Y2822D01*
X153Y2823D01*
X154Y2824D01*
X155Y2825D01*
X156Y2825D01*
X157Y2826D01*
X158Y2827D01*
X159Y2828D01*
X160Y2828D01*
X161Y2829D01*
X162Y2830D01*
X163Y2831D01*
X164Y2831D01*
X165Y2832D01*
X166Y2833D01*
X167Y2833D01*
X168Y2834D01*
X169Y2835D01*
X170Y2835D01*
X171Y2836D01*
X172Y2837D01*
X173Y2837D01*
X174Y2838D01*
X175Y2839D01*
X176Y2839D01*
X177Y2840D01*
X178Y2841D01*
X179Y2841D01*
X180Y2842D01*
X181Y2843D01*
X182Y2843D01*
X183Y2844D01*
X184Y2845D01*
X185Y2845D01*
X186Y2846D01*
X187Y2846D01*
X188Y2847D01*
X189Y2848D01*
X190Y2848D01*
X191Y2849D01*
X192Y2849D01*
X193Y2850D01*
X194Y2851D01*
X195Y2851D01*
X196Y2852D01*
X197Y2852D01*
X198Y2853D01*
X199Y2854D01*
X200Y2854D01*
X201Y2855D01*
X202Y2855D01*
X203Y2856D01*
X204Y2856D01*
X205Y2857D01*
X206Y2857D01*
X207Y2858D01*
X208Y2858D01*
X209Y2859D01*
X210Y2859D01*
X211Y2860D01*
X212Y2860D01*
X213Y2861D01*
X214Y2862D01*
X215Y2862D01*
X216Y2863D01*
X217Y2863D01*
X218Y2863D01*
X219Y2864D01*
X220Y2864D01*
X221Y2865D01*
X222Y2865D01*
X223Y2866D01*
X224Y2866D01*
X225Y2867D01*
X226Y2867D01*
X227Y2868D01*
X228Y2868D01*
X229Y2869D01*
X230Y2869D01*
X231Y2870D01*
X232Y2870D01*
X233Y2870D01*
X234Y2871D01*
X235Y2871D01*
X236Y2872D01*
X237Y2872D01*
X238Y2872D01*
X239Y2873D01*
X240Y2873D01*
X241Y2874D01*
X242Y2874D01*
X243Y2875D01*
X244Y2875D01*
X245Y2875D01*
X246Y2876D01*
X247Y2876D01*
X248Y2877D01*
X249Y2877D01*
X250Y2877D01*
X251Y2878D01*
X252Y2878D01*
X253Y2878D01*
X254Y2879D01*
X255Y2879D01*
X256Y2879D01*
X257Y2880D01*
X258Y2880D01*
X259Y2880D01*
X260Y2881D01*
X261Y2881D01*
X262Y2882D01*
X263Y2882D01*
X264Y2882D01*
X265Y2883D01*
X266Y2883D01*
X267Y2883D01*
X268Y2884D01*
X269Y2884D01*
X270Y2884D01*
X271Y2885D01*
X272Y2885D01*
X273Y2885D01*
X274Y2885D01*
X275Y2886D01*
X276Y2886D01*
X277Y2886D01*
X278Y2887D01*
X279Y2887D01*
X280Y2887D01*
X281Y2887D01*
X282Y2888D01*
X283Y2888D01*
X284Y2888D01*
X285Y2889D01*
X286Y2889D01*
X287Y2889D01*
X288Y2889D01*
X289Y2890D01*
X290Y2890D01*
X291Y2890D01*
X292Y2890D01*
X293Y2891D01*
X294Y2891D01*
X295Y2891D01*
X296Y2891D01*
X297Y2892D01*
X298Y2892D01*
X299Y2892D01*
X300Y2892D01*
X301Y2892D01*
X302Y2893D01*
X303Y2893D01*
X304Y2893D01*
X305Y2893D01*
X306Y2894D01*
X307Y2894D01*
X308Y2894D01*
X309Y2894D01*
X310Y2894D01*
X311Y2895D01*
X312Y2895D01*
X313Y2895D01*
X314Y2895D01*
X315Y2895D01*
X316Y2895D01*
X317Y2896D01*
X318Y2896D01*
X319Y2896D01*
X320Y2896D01*
X321Y2896D01*
X322Y2896D01*
X323Y2897D01*
X324Y2897D01*
X325Y2897D01*
X326Y2897D01*
X327Y2897D01*
X328Y2897D01*
X329Y2897D01*
X330Y2898D01*
X331Y2898D01*
X332Y2898D01*
X333Y2898D01*
X334Y2898D01*
X335Y2898D01*
X336Y2898D01*
X337Y2898D01*
X338Y2899D01*
X339Y2899D01*
X340Y2899D01*
X341Y2899D01*
X342Y2899D01*
X343Y2899D01*
X344Y2899D01*
X345Y2899D01*
X346Y2899D01*
X347Y2900D01*
X348Y2900D01*
X349Y2900D01*
X350Y2900D01*
X351Y2900D01*
X352Y2900D01*
X353Y2900D01*
X354Y2900D01*
X355Y2900D01*
X356Y2900D01*
X357Y2900D01*
X358Y2900D01*
X359Y2900D01*
X360Y2900D01*
X361Y2901D01*
D02*
G04 End of contour*
M02*