; NON-PLATED HOLES START AT T1
; THROUGH (PLATED) HOLES START AT T100
M48
INCH
T100C0.037000
T101C0.032000
T102C0.030000
T103C0.042000
T104C0.100000
T105C0.015748
T106C0.035000
T107C0.114173
T108C0.038189
T109C0.036000
T110C0.051181
T111C0.038000
T112C0.048750
T113C0.031497
T114C0.038795
%
T100
X021269Y021959
X014469Y021959
X017869Y023959
X021269Y023959
X017869Y022959
X017869Y024959
X014469Y022959
X021269Y022959
X014469Y023959
X017869Y021959
X021269Y024959
X014469Y024959
T101
X037869Y023059
X040869Y019359
X036869Y026059
X035869Y023059
X034869Y023059
X044869Y016359
X033869Y023059
X043869Y019359
X035869Y026059
X039869Y026059
X041869Y019359
X040869Y026059
X037869Y016359
X041869Y016359
X042869Y016359
X039869Y023059
X036869Y023059
X038869Y019359
X033869Y026059
X034869Y026059
X037869Y019359
X040869Y023059
X038869Y026059
X039869Y019359
X038869Y016359
X037869Y026059
X036869Y019359
X039869Y016359
X036869Y016359
X042869Y019359
X038869Y023059
X040869Y016359
X043869Y016359
X044869Y019359
T102
X027969Y027259
X045069Y023559
X043069Y023559
X027969Y025259
T103
X025869Y018259
X026869Y018259
X024869Y021239
X019169Y027559
X058289Y026259
X027869Y018259
X020169Y027559
X027869Y021239
X047869Y023359
X061269Y026259
X047869Y010359
X047869Y020379
X025869Y021239
X024869Y018259
X047869Y004039
X031969Y027559
X021169Y027559
X047869Y013879
X029969Y027559
X047869Y001059
X014169Y027559
X047869Y007379
X030969Y027559
X026869Y021239
X047869Y016859
X016169Y027559
X015169Y027559
T104
X054670Y027559
X051396Y027559
X056970Y027559
X049096Y027559
T105
X028269Y001859
X027169Y003159
X001769Y009359
X029069Y001259
X019969Y001559
X012470Y000359
T106
X036400Y015270
X041200Y015270
X042070Y009659
X036769Y005759
X036470Y009659
X038100Y007370
X035270Y016959
X046969Y013859
X029669Y012159
X026370Y006559
X032270Y016959
X038800Y015270
X042900Y007370
X041269Y021259
X038169Y021259
X043600Y015270
X045070Y008659
X037770Y009659
X016269Y020559
X039300Y007370
X042170Y012359
X033470Y009659
X040500Y007370
X046969Y007359
X045170Y011359
X026669Y012159
X026069Y026459
X032270Y015959
X036900Y007370
X045070Y009659
X036269Y013659
X037600Y015270
X040770Y011359
X041700Y007370
X046969Y016859
X040770Y008659
X040269Y021259
X042269Y013659
X046969Y004059
X044970Y004759
X028769Y004759
X037969Y005759
X033169Y005759
X041970Y003759
X037069Y021259
X026369Y007659
X024069Y026459
X043969Y025459
X029669Y013059
X036069Y021259
X044800Y015270
X028777Y009449
X035069Y013659
X044970Y003759
X039169Y021259
X042369Y021259
X045170Y012359
X025769Y005659
X042170Y011359
X039169Y005759
X041069Y013659
X041970Y004759
X043969Y027459
X039869Y013659
X028754Y008380
X037469Y013659
X043369Y021259
X026669Y013059
X035569Y005759
X046969Y001059
X042070Y008659
X037770Y011359
X033869Y013659
X037770Y008659
X035270Y015959
X044100Y007370
X046969Y010359
X046969Y023359
X041569Y005759
X035700Y007370
X040369Y005759
X036470Y008659
X034969Y021259
X040770Y009659
X046969Y020359
X040770Y012359
X028769Y005659
X038669Y013659
X033969Y021259
X036470Y012359
X033470Y011359
X036470Y011359
X042400Y015270
X040000Y015270
X033470Y012359
X019269Y020559
X025769Y004759
X033470Y008659
X034369Y005759
X037770Y012359
T107
X017270Y017559
X026469Y009859
X045469Y001559
X017270Y002059
X045569Y021559
T108
X038169Y004559
X039169Y004559
X034169Y004559
X034169Y001559
X040169Y004559
X033169Y001559
X037169Y004559
X033169Y004559
X036169Y001559
X037169Y001559
X035169Y001559
X040169Y001559
X039169Y001559
X038169Y001559
X035169Y004559
X036169Y004559
T109
X030669Y015359
X030669Y007359
X030669Y011359
X024669Y008359
X030669Y002359
X030669Y016359
X024669Y015359
X030669Y008359
X030669Y010359
X024669Y012359
X030669Y004359
X024669Y011359
X024669Y014359
X030669Y006359
X024669Y016359
X024669Y010359
X024669Y005359
X030669Y014359
X030669Y003359
X024669Y007359
X024669Y004359
X024669Y009359
X024669Y006359
X030669Y005359
X024669Y002359
X024669Y003359
X030669Y009359
X030669Y012359
X024669Y013359
X030669Y013359
T110
X050577Y014097
X050577Y001097
X050577Y007597
X049770Y003459
X049770Y009959
X055360Y018821
X055360Y007597
X055360Y020597
X055360Y025321
X050577Y018821
X050577Y025321
X055360Y014097
X049770Y022959
X055360Y005821
X050577Y005821
X055360Y012321
X049770Y016459
X055360Y001097
X050577Y012321
X050577Y020597
T111
X028769Y023559
X025769Y022459
X027769Y023559
X028769Y022459
X026769Y023559
X030769Y023559
X031769Y022459
X025769Y023559
X029769Y022459
X024769Y022459
X031769Y023559
X029769Y023559
X027769Y022459
X026769Y022459
X024769Y023559
X030769Y022459
T112
X059669Y022459
X059669Y024459
X059669Y004459
X059669Y002459
X059669Y016459
X059669Y008459
X059669Y014459
X059669Y006459
X059669Y012459
X059669Y010459
X059669Y020459
X059669Y018459
T113
X047954Y011959
X046969Y018459
X047954Y005559
X047954Y018459
X046969Y024959
X046969Y005559
X047954Y024959
X046969Y011959
T114
X022263Y010353
X010963Y016459
X001969Y014451
X010963Y004461
X022263Y002361
X013270Y016357
X022263Y006357
X010963Y006459
X013270Y018355
X001969Y002453
X022263Y008355
X022263Y013355
X010963Y012453
X010963Y007453
X010963Y015455
X001969Y015455
X013270Y009359
X013270Y004359
X010963Y013457
X013270Y019359
X022263Y014359
X001969Y007453
X001969Y016459
X010963Y010455
X001969Y011459
X022263Y015353
X013270Y003355
X013270Y010353
X013270Y001357
X010963Y009461
X022263Y003355
X010963Y003457
X013270Y013355
X013270Y012361
X013270Y008355
X022263Y005353
X022263Y007361
X010963Y001459
X022263Y009359
X013270Y017351
X010963Y002453
X013270Y006357
X013270Y002361
X010963Y011459
X022263Y004359
X001969Y001459
X001969Y006459
X001969Y005455
X022263Y011357
X001969Y008457
X013270Y015353
X022263Y017351
X001969Y012453
X001969Y003457
X001969Y013457
X022263Y019359
X010963Y008457
X001969Y004461
X022263Y018355
X010963Y005455
X013270Y011357
X013270Y005353
X010963Y014451
X022263Y001357
X022263Y016357
X013270Y007361
X013270Y014359
X022263Y012361
T00
M30
